<?xml version="1.0" standalone="no"?>
<!DOCTYPE svg PUBLIC "-//W3C//DTD SVG 1.1//EN" "http://www.w3.org/Graphics/SVG/1.1/DTD/svg11.dtd" >
<svg xmlns="http://www.w3.org/2000/svg">
<metadata>
Created by FontPrep 20130207 at Thu Feb  9 12:30:14 2017
 By James
Copyright (c) 2014 Monotype Imaging Inc.  All rights reserved.
</metadata>
<defs>
<font id="3835ebcab51e839177740a39a6a94bec" horiz-adv-x='1024' >
  <font-face 
    font-family="DINNextSlabPro-Light"
    font-weight="300"
    font-stretch="normal"
    units-per-em="2048"
    panose-1="2 8 3 4 2 2 5 2 2 4"
    ascent="1536"
    descent="-512"
    x-height="977"
    cap-height="1393"
    bbox="-300.125 -436 2017.05 1872"
    underline-thickness="102"
    underline-position="-153"
    unicode-range="U+000D-FB02"
  />
<missing-glyph horiz-adv-x="962" 
d="M514 332v-80q0 -20 -20 -21h-64q-20 0 -20 21v80q0 20 20 20h64q20 0 20 -20zM700 932q0 -57 -17 -99t-60 -98l-76 -98q-27 -31 -34 -53.5t-7 -59.5v-45q0 -20 -21 -20h-45q-20 0 -20 20v49q0 82 45 138l76 96q45 55 60 89.5t15 88.5t-40.5 92.5t-113.5 38.5t-120 -33
q-10 -8 -10 -20v-92q0 -20 -21 -21h-41q-20 0 -20 21v131q0 20 18 33q86 61 196 61t173 -60.5t63 -158.5zM80 1305v-1217q0 -12 12 -12h778q12 0 13 12v1217q0 12 -13 12h-778q-12 0 -12 -12zM963 1372v-1352q0 -20 -21 -20h-922q-20 0 -20 20v1352q0 20 20 21h922
q21 -1 21 -21z" />
    <glyph glyph-name="fi" unicode="fi" horiz-adv-x="1214" 
d="M582 1372v-61q0 -20 -21 -21h-45q-76 0 -112 -14t-49 -51t-13 -115v-121q0 -12 12 -12h207q20 0 21 -21v-61q0 -20 -21 -21h-207q-12 0 -12 -12v-747q0 -12 12 -13h125q20 0 21 -20v-62q0 -20 -21 -20h-370q-20 0 -21 20v62q0 20 21 20h110q12 0 12 13v747q0 12 -12 12
h-104q-20 0 -21 21v61q0 20 21 21h104q12 0 12 12v105q0 118 27 182t85 90t161 27h57q21 -1 21 -21zM985 956v-841q0 -12 12 -13h115q20 0 21 -20v-62q0 -20 -21 -20h-364q-20 0 -21 20v62q0 20 21 20h114q12 0 12 13v747q0 12 -12 12h-114q-20 0 -21 21v61q0 20 21 21h217
q20 -1 20 -21zM995 1372v-115q0 -20 -20 -20h-90q-20 0 -21 20v115q0 20 21 21h90q20 -1 20 -21z" />
    <glyph glyph-name="fl" unicode="fl" horiz-adv-x="1202" 
d="M582 1372v-61q0 -20 -21 -21h-45q-76 0 -112 -14t-49 -51t-13 -115v-121q0 -12 12 -12h207q20 0 21 -21v-61q0 -20 -21 -21h-207q-12 0 -12 -12v-747q0 -12 12 -13h125q20 0 21 -20v-62q0 -20 -21 -20h-370q-20 0 -21 20v62q0 20 21 20h110q12 0 12 13v747q0 12 -12 12
h-104q-20 0 -21 21v61q0 20 21 21h104q12 0 12 12v105q0 118 27 182t85 90t161 27h57q21 -1 21 -21zM954 1372v-1145q0 -71 24 -99t81 -28h35q20 0 20 -20v-64q0 -20 -20 -20h-47q-109 0 -156 54t-47 175v1053q0 12 -13 12h-114q-20 0 -21 21v61q0 20 21 21h217
q20 -1 20 -21z" />
    <glyph glyph-name="f_f" unicode="ff" horiz-adv-x="1277" 
d="M582 1372v-61q0 -20 -21 -21h-45q-76 0 -112 -14t-49 -51t-13 -115v-121q0 -12 12 -12h207q20 0 21 -21v-61q0 -20 -21 -21h-207q-12 0 -12 -12v-747q0 -12 12 -13h125q20 0 21 -20v-62q0 -20 -21 -20h-370q-20 0 -21 20v62q0 20 21 20h110q12 0 12 13v747q0 12 -12 12
h-104q-20 0 -21 21v61q0 20 21 21h104q12 0 12 12v105q0 118 27 182t85 90t161 27h57q21 -1 21 -21zM1221 1372v-61q0 -20 -21 -21h-45q-76 0 -112 -14t-49 -51t-13 -115v-121q0 -12 12 -12h207q20 0 21 -21v-61q0 -20 -21 -21h-207q-12 0 -12 -12v-747q0 -12 12 -13h125
q20 0 21 -20v-62q0 -20 -21 -20h-370q-20 0 -21 20v62q0 20 21 20h110q12 0 12 13v747q0 12 -12 12h-104q-20 0 -21 21v61q0 20 21 21h104q12 0 12 12v105q0 118 27 182t85 90t161 27h57q21 -1 21 -21z" />
    <glyph glyph-name="f_f_i" unicode="ffi" horiz-adv-x="1853" 
d="M582 1372v-61q0 -20 -21 -21h-45q-76 0 -112 -14t-49 -51t-13 -115v-121q0 -12 12 -12h207q20 0 21 -21v-61q0 -20 -21 -21h-207q-12 0 -12 -12v-747q0 -12 12 -13h125q20 0 21 -20v-62q0 -20 -21 -20h-370q-20 0 -21 20v62q0 20 21 20h110q12 0 12 13v747q0 12 -12 12
h-104q-20 0 -21 21v61q0 20 21 21h104q12 0 12 12v105q0 118 27 182t85 90t161 27h57q21 -1 21 -21zM1221 1372v-61q0 -20 -21 -21h-45q-76 0 -112 -14t-49 -51t-13 -115v-121q0 -12 12 -12h207q20 0 21 -21v-61q0 -20 -21 -21h-207q-12 0 -12 -12v-747q0 -12 12 -13h125
q20 0 21 -20v-62q0 -20 -21 -20h-370q-20 0 -21 20v62q0 20 21 20h110q12 0 12 13v747q0 12 -12 12h-104q-20 0 -21 21v61q0 20 21 21h104q12 0 12 12v105q0 118 27 182t85 90t161 27h57q21 -1 21 -21zM1624 956v-841q0 -12 12 -13h115q20 0 21 -20v-62q0 -20 -21 -20h-365
q-20 0 -20 20v62q0 20 20 20h115q12 0 12 13v747q0 12 -12 12h-115q-20 0 -20 21v61q0 20 20 21h218q20 -1 20 -21zM1634 1372v-115q0 -20 -20 -20h-90q-20 0 -21 20v115q0 20 21 21h90q20 -1 20 -21z" />
    <glyph glyph-name="f_f_l" unicode="ffl" horiz-adv-x="1841" 
d="M582 1372v-61q0 -20 -21 -21h-45q-76 0 -112 -14t-49 -51t-13 -115v-121q0 -12 12 -12h207q20 0 21 -21v-61q0 -20 -21 -21h-207q-12 0 -12 -12v-747q0 -12 12 -13h125q20 0 21 -20v-62q0 -20 -21 -20h-370q-20 0 -21 20v62q0 20 21 20h110q12 0 12 13v747q0 12 -12 12
h-104q-20 0 -21 21v61q0 20 21 21h104q12 0 12 12v105q0 118 27 182t85 90t161 27h57q21 -1 21 -21zM1221 1372v-61q0 -20 -21 -21h-45q-76 0 -112 -14t-49 -51t-13 -115v-121q0 -12 12 -12h207q20 0 21 -21v-61q0 -20 -21 -21h-207q-12 0 -12 -12v-747q0 -12 12 -13h125
q20 0 21 -20v-62q0 -20 -21 -20h-370q-20 0 -21 20v62q0 20 21 20h110q12 0 12 13v747q0 12 -12 12h-104q-20 0 -21 21v61q0 20 21 21h104q12 0 12 12v105q0 118 27 182t85 90t161 27h57q21 -1 21 -21zM1593 1372v-1145q0 -71 24 -99t81 -28h35q20 0 20 -20v-64
q0 -20 -20 -20h-47q-109 0 -156 54t-47 175v1053q0 12 -13 12h-114q-20 0 -21 21v61q0 20 21 21h217q20 -1 20 -21z" />
    <glyph glyph-name=".notdef" horiz-adv-x="962" 
d="M514 332v-80q0 -20 -20 -21h-64q-20 0 -20 21v80q0 20 20 20h64q20 0 20 -20zM700 932q0 -57 -17 -99t-60 -98l-76 -98q-27 -31 -34 -53.5t-7 -59.5v-45q0 -20 -21 -20h-45q-20 0 -20 20v49q0 82 45 138l76 96q45 55 60 89.5t15 88.5t-40.5 92.5t-113.5 38.5t-120 -33
q-10 -8 -10 -20v-92q0 -20 -21 -21h-41q-20 0 -20 21v131q0 20 18 33q86 61 196 61t173 -60.5t63 -158.5zM80 1305v-1217q0 -12 12 -12h778q12 0 13 12v1217q0 12 -13 12h-778q-12 0 -12 -12zM963 1372v-1352q0 -20 -21 -20h-922q-20 0 -20 20v1352q0 20 20 21h922
q21 -1 21 -21z" />
    <glyph glyph-name=".null" horiz-adv-x="0" 
 />
    <glyph glyph-name="nonmarkingreturn" horiz-adv-x="681" 
 />
    <glyph glyph-name="NULL" horiz-adv-x="1228" 
 />
    <glyph glyph-name="NULL" horiz-adv-x="1228" 
 />
    <glyph glyph-name="CR" unicode="&#xd;" horiz-adv-x="503" 
 />
    <glyph glyph-name="space" unicode=" " horiz-adv-x="503" 
 />
    <glyph glyph-name="exclam" unicode="!" horiz-adv-x="544" 
d="M344 158v-138q0 -20 -20 -20h-103q-20 0 -20 20v138q0 20 20 20h103q20 0 20 -20zM250 362q-20 0 -21 21l-16 989q0 20 20 21h80q21 -1 21 -21l-17 -989q0 -20 -20 -21h-47z" />
    <glyph glyph-name="quotedbl" unicode="&#x22;" horiz-adv-x="643" 
d="M492 1372v-287q0 -20 -21 -20h-53q-20 0 -21 20v287q0 20 21 21h53q21 -1 21 -21zM246 1372v-287q0 -20 -21 -20h-53q-20 0 -20 20v287q0 20 20 21h53q21 -1 21 -21z" />
    <glyph glyph-name="numbersign" unicode="#" horiz-adv-x="1060" 
d="M348 539h307l47 346h-307zM985 977q20 0 21 -21v-51q0 -20 -21 -20h-186l-47 -346h184q20 0 20 -21v-49q0 -20 -20 -20h-197l-57 -429q-4 -20 -23 -20h-55q-23 0 -18 20l57 429h-307l-57 -429q-4 -20 -23 -20h-55q-23 0 -19 20l58 429h-164q-20 0 -21 20v49q0 20 21 21
h176l47 346h-172q-20 0 -21 20v51q0 20 21 21h184l56 395q4 20 22 21h55q23 0 19 -21l-55 -395h307l55 395q4 20 23 21h55q22 -1 18 -21l-55 -395h174z" />
    <glyph glyph-name="dollar" unicode="$" 
d="M858 369q0 117 -60.5 182t-201.5 90v-553q123 12 192.5 88t69.5 193zM266 1036q0 -111 57.5 -180.5t192.5 -91.5v541q-117 -13 -183.5 -85.5t-66.5 -183.5zM596 1518v-105q172 -10 301 -80q12 -8 12 -24v-199q0 -20 -20 -20h-62q-20 0 -20 20v131q0 18 -12 21
q-90 39 -199 45v-553q371 -55 371 -371q0 -168 -97.5 -276.5t-273.5 -122.5v-109q0 -20 -21 -20h-38q-20 0 -21 20v105q-215 6 -356 94q-10 6 -10 18v221q0 20 20 21h68q20 0 20 -21v-151q0 -12 10 -19q109 -53 248 -57v567q-178 27 -268 124t-90 254t98 261.5t260 118.5
v107q0 20 21 20h38q21 0 21 -20z" />
    <glyph glyph-name="percent" unicode="%" horiz-adv-x="1576" 
d="M1026 543q-14 -40 -14 -193q0 -152 14 -194q31 -88 147 -88t125 91t9 216t-15 168q-31 88 -133 88t-133 -88zM1378 570q20 -67 19 -225q0 -159 -20 -221t-78 -101t-140 -39t-151.5 47.5t-77.5 130t-8 214.5t20 197q20 64 77.5 104t139.5 40t140.5 -40t78.5 -107zM419 760
q130 0 138 90t8 218.5t-14 168.5q-31 88 -132 88q-129 0 -138 -90t-9 -218t15 -169q31 -88 132 -88zM420 676q-84 0 -144 40t-78 106t-18 224t18 221q18 62 78 102t144 40t152.5 -48t76.5 -131t8 -214t-18 -195t-76.5 -104.5t-142.5 -40.5zM403 -20h-55q-22 0 -12 20
l807 1393q10 20 28 20h56q22 0 12 -20l-807 -1393q-10 -20 -29 -20z" />
    <glyph glyph-name="ampersand" unicode="&#x26;" horiz-adv-x="1265" 
d="M236 324q0 -102 64.5 -172t162.5 -70t171 42t165 155l-320 417q-127 -102 -185 -186t-58 -186zM336 1149q0 -63 29.5 -115.5t134.5 -189.5q166 137 189.5 192.5t23.5 98.5q0 76 -53.5 126t-136.5 50t-135 -49.5t-52 -112.5zM817 1148q0 -105 -54 -186t-200 -200l303 -397
l156 198q12 18 31 19h112q20 0 21 -21v-61q0 -20 -21 -21h-71q-12 0 -21 -10l-143 -184l104 -138q20 -27 35.5 -36t40.5 -9h51q20 0 21 -20v-64q0 -20 -21 -20h-63q-51 0 -82 17.5t-66 64.5l-90 119q-98 -121 -189 -170t-202 -49q-156 0 -248 97t-92 255q0 117 71.5 223.5
t217.5 222.5q-115 152 -153 219.5t-38 135.5q0 123 84 201.5t213 78.5t211 -80t82 -185z" />
    <glyph glyph-name="quotesingle" unicode="'" horiz-adv-x="397" 
d="M246 1372v-287q0 -20 -21 -20h-53q-20 0 -20 20v287q0 20 20 21h53q21 -1 21 -21z" />
    <glyph glyph-name="parenleft" unicode="(" horiz-adv-x="565" 
d="M262 673q0 -208 54.5 -423t148.5 -402q2 -2 2 -11t-16 -9h-41q-16 0 -31 20q-109 186 -167 399.5t-58 424.5t58 425t167 398q14 20 31 21h41q10 0 14 -6.5t0 -14.5q-96 -186 -149.5 -400t-53.5 -422z" />
    <glyph glyph-name="parenright" unicode=")" horiz-adv-x="563" 
d="M412 559.5q0 -323.5 -226 -711.5q-14 -20 -28 -20h-43q-10 0 -14.5 6t-0.5 14q96 184 149.5 399.5t53.5 424.5t-53 423t-150 400q-2 2 -2 8q0 12 17 13h43q14 -1 28 -21q109 -184 167.5 -398t58.5 -537.5z" />
    <glyph glyph-name="asterisk" unicode="*" horiz-adv-x="714" 
d="M395 1372v-198l172 100q3 2 13 2t16 -10l16 -31q4 -8 4 -15t-12 -14l-172 -98l172 -98q18 -9 8 -29l-16 -31q-9 -18 -29 -8l-172 100v-198q0 -20 -20 -21h-35q-20 0 -21 21v196l-172 -98q-4 -2 -13 -2t-15 10l-17 31q-4 8 -4 15t13 14l170 98l-170 98q-19 9 -9 29l17 31
q9 18 28 8l172 -100v198q0 20 21 21h35q20 -1 20 -21z" />
    <glyph glyph-name="plus" unicode="+" 
d="M598 956v-327q0 -12 12 -13h324q20 0 20 -20v-61q0 -20 -20 -21h-324q-12 0 -12 -12v-328q0 -20 -20 -20h-66q-20 0 -20 20v328q0 12 -13 12h-323q-20 0 -21 21v61q0 20 21 20h323q12 0 13 13v327q0 20 20 21h66q20 -1 20 -21z" />
    <glyph glyph-name="comma" unicode="," horiz-adv-x="436" 
d="M283 158v-154q0 -25 -11 -45l-79 -158q-7 -16 -23 -16t-16 18v355q0 20 20 20h88q21 0 21 -20z" />
    <glyph glyph-name="hyphen" unicode="-" horiz-adv-x="765" 
d="M666 578v-64q0 -20 -21 -20h-524q-20 0 -21 20v64q0 20 21 20h524q21 0 21 -20z" />
    <glyph glyph-name="period" unicode="." horiz-adv-x="448" 
d="M295 158v-138q0 -20 -21 -20h-100q-20 0 -20 20v138q0 20 20 20h100q21 0 21 -20z" />
    <glyph glyph-name="slash" unicode="/" horiz-adv-x="833" 
d="M215 -20h-61q-20 0 -15 20l453 1393q6 20 26 20h62q19 0 14 -20l-452 -1393q-6 -20 -27 -20z" />
    <glyph glyph-name="zero" unicode="0" 
d="M544.5 84q192.5 0 250.5 170q28 86 28 372.5t-7 378t-21 134.5q-57 170 -250 170t-250 -170q-29 -89 -29 -442.5t29 -442.5q57 -170 249.5 -170zM545 -20q-133 0 -227 64.5t-128 172.5t-34 407.5t8 396.5t22 142q39 121 132.5 185.5t226.5 64.5t226 -64.5t128 -174.5
t35 -481t-35 -478t-128 -171t-226 -64z" />
    <glyph glyph-name="one" unicode="1" 
d="M268 1063q-12 0 -12 16v84q0 18 14 31l265 186q16 12 30 13h66q20 -1 20 -21v-1257q0 -12 13 -13h249q20 0 21 -20v-62q0 -20 -21 -20h-637q-20 0 -20 20v62q0 20 20 20h252q12 0 13 13v1132h-4l-258 -180q-8 -4 -11 -4z" />
    <glyph glyph-name="two" unicode="2" 
d="M909 1051q0 -90 -34.5 -169t-104.5 -171l-463 -605v-2h502q12 0 12 13v155q0 20 21 21h67q20 0 21 -21v-252q0 -20 -21 -20h-727q-20 0 -20 20v56q0 14 8 24l514 674q115 149 115 272q0 122 -72 191.5t-200 69.5t-220 -64q-10 -8 -10 -20v-162q0 -20 -21 -21h-67
q-20 0 -21 21v213q0 18 17 33q139 106 321 106q183 0 283 -98t100 -264z" />
    <glyph glyph-name="three" unicode="3" 
d="M909 1049q0 -113 -54 -191t-134 -123v-4q88 -37 152.5 -125t64.5 -227q0 -182 -109 -290.5t-305 -108.5t-325 102q-16 14 -17 33v209q0 20 21 20h67q20 0 21 -20v-152q0 -12 10 -20q91 -66 231 -66t217.5 80t77.5 210t-81.5 213t-213.5 83h-61q-20 0 -20 20v66
q0 20 20 20h61q119 0 192 75t73 195t-70 189.5t-206 69.5t-220 -66q-10 -8 -10 -20v-152q0 -20 -21 -20h-67q-20 0 -21 20v205q0 18 17 33q139 106 324 106q186 0 286 -99.5t100 -264.5z" />
    <glyph glyph-name="four" unicode="4" 
d="M242 385h430q12 0 12 12v381q0 20 21 21h69q20 0 21 -21v-381q0 -12 12 -12h154q20 0 20 -20v-66q0 -20 -20 -20h-154q-12 0 -12 -13v-246q0 -20 -21 -20h-69q-20 0 -21 20v246q0 12 -12 13h-535q-20 0 -20 20v61q0 6 4 23l452 993q8 16 27 17h76q22 -1 14 -19l-448 -987
v-2z" />
    <glyph glyph-name="five" unicode="5" 
d="M913 1372v-65q0 -20 -20 -21h-555q-12 0 -12 -12v-481h4q29 49 95.5 84.5t156.5 35.5q252 0 323 -215q31 -98 31 -243t-34 -246t-130 -165t-268 -64t-297 92q-12 10 -12 32v205q0 20 20 21h68q20 0 20 -21v-145q0 -37 75 -57.5t146 -20.5q215 0 275 168q27 74 27 198
t-26 202q-50 152 -231 153q-94 0 -156.5 -47t-84.5 -119q-6 -20 -23 -20h-65q-20 0 -21 20v731q0 20 21 21h653q20 -1 20 -21z" />
    <glyph glyph-name="six" unicode="6" 
d="M250 397.5q0 -139.5 83 -225.5t214 -86t213 87t82 225t-82 225.5t-213 87.5t-214 -87t-83 -226.5zM556 817q118 0 207 -51t139 -145.5t50 -219.5t-52 -221t-144 -148t-210 -52t-210 52t-144.5 147t-52.5 229t90 305l346 665q8 14 27 15h76q10 0 13 -6.5t-1 -12.5
l-313 -604l4 -2q57 49 175 49z" />
    <glyph glyph-name="seven" unicode="7" 
d="M938 1372v-76q0 -8 -4 -20l-500 -1258q-7 -18 -26 -18h-76q-20 0 -10 23l497 1257v6h-504q-12 0 -12 -12v-191q0 -20 -20 -20h-70q-20 0 -20 20v289q0 20 20 21h705q20 -1 20 -21z" />
    <glyph glyph-name="eight" unicode="8" 
d="M246 382q0 -130 82 -213t217 -83t217 83t82 213t-83 214t-216 84t-216 -84t-83 -214zM283 1046.5q0 -112.5 71.5 -186.5t189.5 -74t190.5 74t72.5 186.5t-72.5 186.5t-189.5 74t-189.5 -74t-72.5 -186.5zM918 1045q0 -104 -51.5 -186.5t-135.5 -123.5v-4
q102 -43 162.5 -136t60.5 -213t-52 -211t-145 -141t-212 -50t-212 50t-145.5 141t-52.5 211t60.5 213t162.5 136v4q-84 41 -135 123t-51 186t46 188.5t131 132.5t195.5 48t195.5 -48t131.5 -132t46.5 -188z" />
    <glyph glyph-name="nine" unicode="9" 
d="M248 994q0 -138 82 -225t213 -87t214 87t83 226.5t-83 225.5t-214 86t-213 -87.5t-82 -225.5zM137 991q0 125 52.5 221.5t144.5 148.5t210 52t210 -52t144 -147.5t52 -229.5t-90 -304l-346 -666q-8 -14 -27 -14h-75q-10 0 -13.5 6t0.5 12l314 605l-4 2q-59 -50 -176 -50
q-118 0 -206.5 51.5t-139 145.5t-50.5 219z" />
    <glyph glyph-name="colon" unicode=":" horiz-adv-x="464" 
d="M303 158v-138q0 -20 -20 -20h-101q-20 0 -20 20v138q0 20 20 20h101q20 0 20 -20zM303 956v-139q0 -20 -20 -20h-101q-20 0 -20 20v139q0 20 20 21h101q20 -1 20 -21z" />
    <glyph glyph-name="semicolon" unicode=";" horiz-adv-x="464" 
d="M297 158v-154q0 -25 -10 -45l-80 -158q-7 -16 -23 -16t-16 18v355q0 20 20 20h88q21 0 21 -20zM303 956v-139q0 -20 -20 -20h-101q-20 0 -20 20v139q0 20 20 21h101q20 -1 20 -21z" />
    <glyph glyph-name="less" unicode="&#x3c;" 
d="M954 922v-72q0 -18 -20 -27l-647 -256v-4l647 -256q20 -8 20 -26v-72q0 -19 -20 -14l-778 317q-21 7 -21 27v53q0 20 21 26l778 318l6 2q14 0 14 -16z" />
    <glyph glyph-name="equal" unicode="=" 
d="M954 397v-61q0 -20 -20 -21h-778q-20 0 -21 21v61q0 20 21 21h778q20 -1 20 -21zM954 795v-62q0 -20 -20 -20h-778q-20 0 -21 20v62q0 20 21 20h778q20 0 20 -20z" />
    <glyph glyph-name="greater" unicode="&#x3e;" 
d="M954 592v-53q0 -20 -20 -27l-778 -317l-6 -2q-14 0 -15 16v72q0 18 21 26l647 256v4l-647 256q-20 8 -21 27v72q0 19 21 14l778 -318q20 -7 20 -26z" />
    <glyph glyph-name="question" unicode="?" horiz-adv-x="913" 
d="M528 158v-138q0 -20 -20 -20h-102q-20 0 -21 20v138q0 20 21 20h102q20 0 20 -20zM817 1075q0 -80 -26.5 -140.5t-98.5 -156.5l-112 -149q-41 -53 -53.5 -87t-12.5 -93v-72q0 -20 -20 -21h-72q-20 0 -21 21v80q0 63 14.5 107t51.5 93l117 152q72 96 96.5 149.5
t24.5 116.5q0 111 -69.5 171.5t-187.5 60.5t-208 -60q-12 -8 -13 -20v-152q0 -20 -20 -20h-66q-20 0 -20 20v203q0 45 118.5 90t219.5 45q166 0 262 -94t96 -244z" />
    <glyph glyph-name="at" unicode="@" horiz-adv-x="1810" 
d="M1116 538q0 118 -24 186q-47 138 -210 138t-210 -145q-20 -61 -20 -179t20 -182q47 -145 209 -145t215 145q20 64 20 182zM862 958q182 0 250 -120h4v80q0 20 21 20h184q20 0 20 -20v-54q0 -20 -20 -20h-94q-12 0 -13 -13v-415q0 -100 52.5 -153.5t137.5 -53.5
t146.5 81.5t61.5 277.5t-88 354.5t-249 246.5t-370 88t-368.5 -89t-247.5 -249.5t-88 -371.5t88 -373t247.5 -251t395.5 -89t418 96q8 4 17 4t13 -10l21 -47q2 -2 2 -11t-12 -16q-191 -110 -455 -110t-447.5 102.5t-286 285.5t-102.5 418.5t102.5 419t286 285t417 101.5
t417.5 -101.5t286.5 -282t102.5 -406.5t-89 -336.5t-230 -110.5q-88 0 -152.5 43t-91.5 116h-2q-71 -159 -288 -159q-308 0 -308 421.5t311 421.5z" />
    <glyph glyph-name="A" unicode="A" horiz-adv-x="1265" 
d="M387 528h492l-242 691h-4zM1237 102q20 0 20 -20v-62q0 -20 -20 -20h-338q-20 0 -20 20v62q0 20 20 20h115q16 0 10 15l-106 301h-570l-106 -301q-6 -14 10 -15h115q20 0 20 -20v-62q0 -20 -20 -20h-338q-20 0 -21 20v62q0 20 21 20h73q12 0 17 13l450 1257q6 20 25 21
h84q18 -1 24 -21l447 -1257q4 -12 16 -13h72z" />
    <glyph glyph-name="B" unicode="B" horiz-adv-x="1249" 
d="M358 641v-522q0 -12 13 -13h346q145 0 223 74t78 200t-78 199.5t-223 73.5h-346q-13 0 -13 -12zM358 1274v-498q0 -12 13 -12h336q137 0 212.5 70.5t75.5 190.5t-74.5 190.5t-213.5 70.5h-336q-13 0 -13 -12zM1112 1032q0 -123 -57.5 -202.5t-157.5 -110.5v-4
q57 -10 111.5 -52t90.5 -113t36 -167q0 -180 -112 -281.5t-314 -101.5h-600q-20 0 -21 20v62q0 20 21 20h122q12 0 13 13v1163q0 12 -13 12h-122q-20 0 -21 21v61q0 20 21 21h600q194 0 298.5 -96.5t104.5 -264.5z" />
    <glyph glyph-name="C" unicode="C" horiz-adv-x="1183" 
d="M1055 1268v-215q0 -20 -21 -21h-69q-20 0 -21 21v153q0 12 -10 21q-108 76 -285 76q-281 0 -360 -234q-37 -118 -37 -326q0 -209 14.5 -358.5t126 -222t280.5 -72.5t261 66q10 6 10 20v160q0 20 21 20h69q20 0 21 -20v-217q0 -20 -15 -33q-147 -106 -393 -106
q-377 0 -477 305q-37 117 -37 348t33 505.5t477 274.5q251 0 395 -113q17 -14 17 -32z" />
    <glyph glyph-name="D" unicode="D" horiz-adv-x="1314" 
d="M360 1270v-1147q0 -12 13 -12h291q277 0 350 208q33 97 33 321t-14 369t-122 209t-247 64h-291q-13 0 -13 -12zM1163 696.5q0 -182.5 -24.5 -439.5t-456.5 -257h-573q-20 0 -21 20v62q0 20 21 20h122q12 0 13 13v1163q0 12 -13 12h-122q-20 0 -21 21v61q0 20 21 21h573
q352 0 444 -283q20 -63 28.5 -147t8.5 -266.5z" />
    <glyph glyph-name="E" unicode="E" horiz-adv-x="1191" 
d="M1069 1372v-239q0 -20 -20 -21h-70q-20 0 -21 21v137q0 12 -12 12h-573q-12 0 -13 -12v-496q0 -12 13 -12h450q12 0 13 12v105q0 20 20 20h70q20 0 20 -20v-344q0 -20 -20 -21h-70q-20 0 -20 21v104q0 12 -13 12h-450q-12 0 -13 -12v-516q0 -12 13 -12h573q12 0 12 12
v143q0 20 21 21h70q20 0 20 -21v-246q0 -20 -20 -20h-940q-20 0 -21 20v62q0 20 21 20h122q12 0 13 13v1163q0 12 -13 12h-122q-20 0 -21 21v61q0 20 21 21h940q20 -1 20 -21z" />
    <glyph glyph-name="F" unicode="F" horiz-adv-x="1171" 
d="M1069 1372v-242q0 -20 -20 -20h-70q-20 0 -21 20v140q0 12 -12 12h-573q-12 0 -13 -12v-510q0 -12 13 -12h450q12 0 13 12v104q0 20 20 21h70q20 0 20 -21v-344q0 -20 -20 -20h-70q-20 0 -20 20v105q0 12 -13 12h-450q-12 0 -13 -12v-510q0 -12 13 -13h129q20 0 20 -20
v-62q0 -20 -20 -20h-393q-20 0 -21 20v62q0 20 21 20h122q12 0 13 13v1163q0 12 -13 12h-122q-20 0 -21 21v61q0 20 21 21h940q20 -1 20 -21z" />
    <glyph glyph-name="G" unicode="G" horiz-adv-x="1259" 
d="M1083 1255v-198q0 -20 -20 -21h-70q-20 0 -20 21v139q0 14 -10 23q-49 39 -130 61.5t-169 22.5q-293 0 -375 -240q-37 -107 -37 -319t8 -292.5t25 -127.5q80 -233 368 -234q192 0 310 74q12 8 12 22v402q0 12 -12 12h-297q-20 0 -21 21v67q0 20 21 21h403q20 0 21 -21
v-557q0 -20 -15 -31q-70 -53 -180.5 -86.5t-241.5 -33.5q-382 0 -483 309q-37 117 -37 343t33 503.5t500 277.5q120 0 226.5 -33.5t176.5 -91.5q14 -12 14 -33z" />
    <glyph glyph-name="H" unicode="H" horiz-adv-x="1417" 
d="M1329 1372v-61q0 -20 -20 -21h-123q-12 0 -12 -12v-1163q0 -12 12 -13h123q20 0 20 -20v-62q0 -20 -20 -20h-387q-20 0 -21 20v62q0 20 21 20h122q12 0 13 13v524q0 12 -13 12h-671q-12 0 -13 -12v-524q0 -12 13 -13h123q20 0 20 -20v-62q0 -20 -20 -20h-387
q-20 0 -21 20v62q0 20 21 20h122q12 0 13 13v1163q0 12 -13 12h-122q-20 0 -21 21v61q0 20 21 21h387q20 0 20 -21v-61q0 -20 -20 -21h-123q-12 0 -13 -12v-504q0 -12 13 -12h671q12 0 13 12v504q0 12 -13 12h-122q-20 0 -21 21v61q0 20 21 21h387q20 -1 20 -21z" />
    <glyph glyph-name="I" unicode="I" horiz-adv-x="604" 
d="M516 1372v-61q0 -20 -20 -21h-123q-12 0 -13 -12v-1163q0 -12 13 -13h123q20 0 20 -20v-62q0 -20 -20 -20h-387q-20 0 -21 20v62q0 20 21 20h122q12 0 13 13v1163q0 12 -13 12h-122q-20 0 -21 21v61q0 20 21 21h387q20 -1 20 -21z" />
    <glyph glyph-name="J" unicode="J" horiz-adv-x="1024" 
d="M942 1372v-61q0 -20 -20 -21h-119q-12 0 -12 -12v-862q0 -217 -108 -326.5t-294 -109.5q-80 0 -162 21.5t-135 57.5q-12 10 -12 23v244q0 20 20 20h70q20 0 20 -20v-170q0 -14 11 -21q79 -45 201 -45t197 80t75 248v860q0 12 -12 12h-130q-20 0 -20 21v61q0 20 20 21h390
q20 -1 20 -21z" />
    <glyph glyph-name="K" unicode="K" horiz-adv-x="1306" 
d="M1239 1372v-61q0 -20 -20 -21h-103q-12 0 -22 -12l-373 -428l387 -735q8 -12 18 -13h136q20 0 20 -20v-62q0 -20 -20 -20h-207q-18 0 -27 16l-389 740l-279 -320v-321q0 -12 13 -13h123q20 0 20 -20v-62q0 -20 -20 -20h-387q-20 0 -21 20v62q0 20 21 20h122q12 0 13 13
v1163q0 12 -13 12h-122q-20 0 -21 21v61q0 20 21 21h387q20 0 20 -21v-61q0 -20 -20 -21h-123q-12 0 -13 -12v-678l596 678q4 4 2 8t-8 4h-94q-20 0 -20 21v61q0 20 20 21h363q20 -1 20 -21z" />
    <glyph glyph-name="L" unicode="L" horiz-adv-x="1124" 
d="M516 1372v-61q0 -20 -20 -21h-123q-12 0 -13 -12v-1155q0 -12 13 -12h567q12 0 12 12v143q0 20 21 21h69q20 0 21 -21v-246q0 -20 -21 -20h-933q-20 0 -21 20v62q0 20 21 20h122q12 0 13 13v1163q0 12 -13 12h-122q-20 0 -21 21v61q0 20 21 21h387q20 -1 20 -21z" />
    <glyph glyph-name="M" unicode="M" horiz-adv-x="1638" 
d="M1550 1372v-61q0 -20 -20 -21h-123q-12 0 -12 -12v-1163q0 -12 12 -13h123q20 0 20 -20v-62q0 -20 -20 -20h-387q-20 0 -21 20v62q0 20 21 20h123q12 0 12 13v995h-8l-393 -883q-11 -22 -37 -22h-41q-26 0 -37 22l-395 883h-7v-995q0 -12 13 -13h119q20 0 20 -20v-62
q0 -20 -20 -20h-383q-20 0 -21 20v62q0 20 21 20h122q12 0 13 13v1163q0 12 -13 12h-122q-20 0 -21 21v61q0 20 21 21h235q20 0 29 -21l444 -1003h8l441 1003q8 20 28 21h236q20 -1 20 -21z" />
    <glyph glyph-name="N" unicode="N" horiz-adv-x="1423" 
d="M1335 1372v-61q0 -20 -20 -21h-123q-12 0 -12 -12v-1258q0 -20 -21 -20h-80q-23 0 -35 20l-677 1149h-7v-1054q0 -12 13 -13h123q20 0 20 -20v-62q0 -20 -20 -20h-387q-20 0 -21 20v62q0 20 21 20h122q12 0 13 13v1163q0 12 -13 12h-122q-20 0 -21 21v61q0 20 21 21h231
q25 0 35 -21l680 -1145h8v1051q0 12 -12 12h-123q-20 0 -21 21v61q0 20 21 21h387q20 -1 20 -21z" />
    <glyph glyph-name="O" unicode="O" horiz-adv-x="1247" 
d="M252 696.5q0 -266.5 35 -370.5q78 -236 337 -236t337 236q35 104 34.5 370.5t-34.5 370.5q-78 236 -337 236t-337 -236q-35 -104 -35 -370.5zM154.5 350.5q-21.5 177.5 -21.5 400t46 362.5q46 141 161 220.5t285 79.5t308.5 -97.5t159.5 -274.5t21 -403t-41 -345
q-104 -313 -361 -313t-396.5 96.5t-161 274z" />
    <glyph glyph-name="P" unicode="P" horiz-adv-x="1222" 
d="M360 1270v-543q0 -12 13 -12h340q152 0 233.5 73.5t81.5 209t-82 210t-233 74.5h-340q-13 0 -13 -12zM1145 997.5q0 -182.5 -115 -288t-313 -105.5h-344q-12 0 -13 -12v-477q0 -12 13 -13h131q20 0 20 -20v-62q0 -20 -20 -20h-395q-20 0 -21 20v62q0 20 21 20h122
q12 0 13 13v1163q0 12 -13 12h-122q-20 0 -21 21v61q0 20 21 21h608q198 0 313 -106.5t115 -289z" />
    <glyph glyph-name="Q" unicode="Q" horiz-adv-x="1249" 
d="M252 696.5q0 -266.5 35 -370.5q78 -236 338 -236q143 0 231 74l-168 180q-6 6 -6 14.5t6 14.5l49 45q8 8 16.5 8t14.5 -8l158 -170q18 31 35 78q35 104 34.5 370.5t-34.5 370.5q-78 236 -337 236t-337 -236q-35 -104 -35 -370.5zM1157 -3q0 -9 -8 -15l-51 -50
q-6 -6 -14.5 -6t-14.5 8l-135 146q-123 -100 -301 -100q-355 0 -459 313q-41 125 -41 348t21.5 401t161 274.5t309.5 96.5t308.5 -97.5t159.5 -274.5t21 -403t-41 -345q-23 -70 -65 -133l141 -148q8 -6 8 -15z" />
    <glyph glyph-name="R" unicode="R" horiz-adv-x="1298" 
d="M360 1270v-516q0 -12 13 -13h342q150 0 230.5 72t80.5 201t-81 198.5t-230 69.5h-342q-13 0 -13 -12zM1143 1012q0 -139 -75 -234.5t-212 -128.5l225 -536q6 -10 17 -11h114q20 0 21 -20v-62q0 -20 -21 -20h-198q-18 0 -27 18l-254 613h-360q-12 0 -13 -13v-503
q0 -12 13 -13h123q20 0 20 -20v-62q0 -20 -20 -20h-387q-20 0 -21 20v62q0 20 21 20h122q12 0 13 13v1163q0 12 -13 12h-122q-20 0 -21 21v61q0 20 21 21h608q203 0 314.5 -100.5t111.5 -280.5z" />
    <glyph glyph-name="S" unicode="S" horiz-adv-x="1202" 
d="M995 1300v-217q0 -20 -20 -20h-70q-20 0 -20 20v144q0 17 -13 20q-118 55 -272 55t-235.5 -69.5t-81.5 -187.5t69.5 -181t243.5 -90l82 -12q203 -31 298 -125t95 -268t-124 -281.5t-362 -107.5t-423 114q-10 6 -10 21v221q0 20 20 20h70q20 0 20 -20v-150q0 -12 10 -18
q150 -78 322 -78t265 74t93 199t-70.5 193.5t-250.5 94.5l-72 11q-205 29 -300 120.5t-95 261.5t117.5 269.5t331.5 99.5t368 -90q14 -8 14 -23z" />
    <glyph glyph-name="T" unicode="T" horiz-adv-x="1173" 
d="M1122 1372v-242q0 -20 -20 -20h-70q-20 0 -20 20v142q0 12 -13 12h-342q-12 0 -12 -12v-1157q0 -12 12 -13h129q20 0 21 -20v-62q0 -20 -21 -20h-399q-20 0 -20 20v62q0 20 20 20h129q12 0 12 13v1157q0 12 -12 12h-342q-12 0 -12 -12v-142q0 -20 -21 -20h-69
q-20 0 -21 20v242q0 20 21 21h1030q20 -1 20 -21z" />
    <glyph glyph-name="U" unicode="U" horiz-adv-x="1361" 
d="M1300 1372v-61q0 -20 -20 -21h-119q-12 0 -12 -12v-797q0 -244 -123 -372.5t-345 -128.5t-345 128t-123 373v797q0 12 -12 12h-119q-20 0 -21 21v61q0 20 21 21h381q20 0 20 -21v-61q0 -20 -20 -21h-121q-12 0 -12 -12v-797q0 -193 91 -292t260 -99t260 99.5t91 291.5
v797q0 12 -12 12h-121q-20 0 -20 21v61q0 20 20 21h381q20 -1 20 -21z" />
    <glyph glyph-name="V" unicode="V" horiz-adv-x="1239" 
d="M1225 1372v-61q0 -20 -21 -21h-67q-10 0 -15 -12l-438 -1258q-6 -20 -22 -20h-82q-18 0 -25 20l-438 1260q-4 10 -17 10h-65q-20 0 -21 21v61q0 20 21 21h346q20 0 20 -21v-61q0 -20 -20 -21h-131q-16 0 -10 -16l381 -1102h4l379 1106q4 12 -11 12h-135q-20 0 -20 21v61
q0 20 20 21h346q21 -1 21 -21z" />
    <glyph glyph-name="W" unicode="W" horiz-adv-x="1767" 
d="M1745 1372v-61q0 -20 -21 -21h-67q-12 0 -17 -12l-307 -1258q-5 -20 -24 -20h-72q-16 0 -23 20l-327 1149h-4l-330 -1149q-6 -20 -23 -20h-71q-18 0 -25 20l-309 1260q-4 10 -16 10h-66q-20 0 -20 21v61q0 20 20 21h342q20 0 21 -21v-61q0 -20 -21 -21h-125
q-16 0 -12 -16l252 -1055h4l319 1153q6 20 25 21h72q18 0 24 -21l326 -1149h4l252 1053q4 14 -10 14h-136q-20 0 -20 21v61q0 20 20 21h344q21 -1 21 -21z" />
    <glyph glyph-name="X" unicode="X" horiz-adv-x="1196" 
d="M1126 1372v-61q0 -20 -20 -21h-64q-12 0 -20 -12l-352 -549l393 -614q10 -12 20 -13h68q20 0 20 -20v-62q0 -20 -20 -20h-346q-20 0 -21 20v62q0 20 21 20h119q13 0 8 15l-334 522h-2l-332 -520q-8 -17 8 -17h119q20 0 21 -20v-62q0 -20 -21 -20h-346q-20 0 -20 20v62
q0 20 20 20h66q14 0 20 11l395 616l-354 551q-6 10 -18 10h-64q-20 0 -20 21v61q0 20 20 21h346q20 0 21 -21v-61q0 -20 -21 -21h-121q-16 0 -8 -16l291 -455h2l291 457q5 14 -8 14h-121q-20 0 -21 21v61q0 20 21 21h344q20 -1 20 -21z" />
    <glyph glyph-name="Y" unicode="Y" horiz-adv-x="1116" 
d="M1102 1372v-61q0 -20 -21 -21h-65q-10 0 -19 -12l-381 -707v-456q0 -12 13 -13h127q20 0 20 -20v-62q0 -20 -20 -20h-396q-20 0 -20 20v62q0 20 20 20h127q12 0 13 13v456l-383 705q-6 14 -19 14h-63q-20 0 -21 21v61q0 20 21 21h344q20 0 20 -21v-61q0 -20 -20 -21h-119
q-8 0 -11 -5t1 -11l309 -576h4l309 578q5 14 -10 14h-125q-20 0 -20 21v61q0 20 20 21h344q21 -1 21 -21z" />
    <glyph glyph-name="Z" unicode="Z" horiz-adv-x="1105" 
d="M1010 1372v-69q0 -12 -9 -27l-772 -1163v-2h658q12 0 12 12v143q0 20 21 21h69q20 0 21 -21v-246q0 -20 -21 -20h-876q-20 0 -21 20v70q0 16 10 29l770 1161v2h-628q-12 0 -13 -12v-140q0 -20 -20 -20h-70q-20 0 -20 20v242q0 20 20 21h848q21 -1 21 -21z" />
    <glyph glyph-name="bracketleft" unicode="[" horiz-adv-x="579" 
d="M489 1495v-55q0 -20 -20 -21h-145q-12 0 -13 -12v-1470q0 -12 13 -13h145q20 0 20 -20v-56q0 -20 -20 -20h-244q-20 0 -20 20v1647q0 20 20 21h244q20 -1 20 -21z" />
    <glyph glyph-name="backslash" unicode="\" horiz-adv-x="833" 
d="M680 -20h-62q-20 0 -26 20l-455 1399q0 14 17 14h61q21 0 27 -20l454 -1399q0 -14 -16 -14z" />
    <glyph glyph-name="bracketright" unicode="]" horiz-adv-x="579" 
d="M375 1495v-1647q0 -20 -21 -20h-243q-20 0 -21 20v56q0 20 21 20h145q12 0 12 13v1470q0 12 -12 12h-145q-20 0 -21 21v55q0 20 21 21h243q21 -1 21 -21z" />
    <glyph glyph-name="asciicircum" unicode="^" horiz-adv-x="1087" 
d="M938 578h-66q-18 0 -26 20l-299 651h-4l-301 -651q-8 -20 -27 -20h-63q-10 0 -14.5 6t-0.5 14l355 774q10 20 28 21h49q19 -1 29 -21l352 -774l2 -8q0 -12 -14 -12z" />
    <glyph glyph-name="underscore" unicode="_" horiz-adv-x="940" 
d="M0 -252v84h940v-84h-940z" />
    <glyph glyph-name="grave" unicode="`" horiz-adv-x="862" 
d="M559 1143h-51q-23 0 -37 20l-180 250q-4 8 -4 10q0 10 14 11h78q21 -1 33 -21l157 -250l4 -10q0 -10 -14 -10z" />
    <glyph glyph-name="a" unicode="a" horiz-adv-x="1060" 
d="M219 274q0 -194 247 -194q122 0 196.5 60.5t74.5 160.5v150q0 12 -12 12h-229q-144 0 -210.5 -46.5t-66.5 -142.5zM737 123q-67 -143 -317 -143q-134 0 -221.5 74.5t-87.5 215.5t95 214t275 73h244q12 0 12 12v99q0 125 -53 177t-180 52t-207 -37q-10 -4 -10 -14v-121
q0 -20 -21 -20h-67q-20 0 -21 20v176q0 18 15 27q119 69 305 69t267 -72.5t81 -250.5v-559q0 -12 12 -13h115q20 0 20 -20v-62q0 -20 -20 -20h-213q-20 0 -21 20v103h-2z" />
    <glyph glyph-name="b" unicode="b" horiz-adv-x="1128" 
d="M346 488q0 -154 27 -234t91 -124t160 -44q191 0 248 172q27 80 27 230t-28 233q-58 170 -248 170q-95 0 -160 -44t-91 -125t-26 -234zM346 1372v-534h2q82 160 295 159q256 0 334 -233q35 -113 35 -276t-35 -275q-78 -233 -334 -233q-213 0 -295 159h-2v-119
q0 -20 -20 -20h-217q-20 0 -21 20v62q0 20 21 20h114q12 0 13 13v1163q0 12 -13 12h-114q-20 0 -21 21v61q0 20 21 21h217q20 -1 20 -21z" />
    <glyph glyph-name="c" unicode="c" horiz-adv-x="970" 
d="M842 899v-188q0 -20 -21 -21h-67q-20 0 -21 21v125q0 24 -70.5 39.5t-154.5 15.5t-153.5 -47t-97.5 -131q-28 -85 -28 -227t27 -220q59 -180 274 -180q129 0 195 37q8 6 8 14v121q0 20 21 21h67q20 0 21 -21v-184q0 -16 -17 -25q-117 -70 -297 -69q-299 0 -381 249
q-31 98 -31 255q0 156 36 268q34 112 132.5 178.5t218.5 66.5q212 0 324 -73q15 -15 15 -25z" />
    <glyph glyph-name="d" unicode="d" horiz-adv-x="1128" 
d="M229 488q0 -150 28 -232q58 -170 251 -170t248 172q26 78 26 230t-26 234q-26 81 -91 125t-159 44t-157.5 -44t-91.5 -126t-28 -233zM893 1372v-1257q0 -12 12 -13h115q20 0 20 -20v-62q0 -20 -20 -20h-217q-20 0 -21 20v119h-2q-82 -160 -295 -159q-256 0 -333 233
q-35 104 -35 275t35 276q76 233 329 233q219 0 299 -159h2v440q0 12 -12 12h-115q-20 0 -20 21v61q0 20 20 21h217q21 -1 21 -21z" />
    <glyph glyph-name="e" unicode="e" horiz-adv-x="1015" 
d="M242 557h534q12 0 12 12q0 200 -92 263t-188 63t-164 -46.5t-91 -120.5t-24 -159q0 -12 13 -12zM901 483q0 -20 -22 -20h-637q-12 0 -13 -14q0 -111 27 -189t97.5 -126t172.5 -48q172 0 273 125q12 16 28 4l47 -43q14 -12 3 -29q-118 -163 -370 -163q-130 0 -225.5 65.5
t-136.5 192.5q-29 84 -29 248t34 272t129.5 173.5t229.5 65.5t248.5 -78.5t129 -207.5t14.5 -228z" />
    <glyph glyph-name="f" unicode="f" horiz-adv-x="638" 
d="M582 1372v-61q0 -20 -21 -21h-45q-76 0 -111.5 -14t-49 -51t-13.5 -115v-121q0 -12 12 -12h207q20 0 21 -21v-61q0 -20 -21 -21h-207q-12 0 -12 -12v-747q0 -12 12 -13h125q20 0 21 -20v-62q0 -20 -21 -20h-370q-20 0 -21 20v62q0 20 21 20h110q12 0 12 13v747
q0 12 -12 12h-104q-20 0 -21 21v61q0 20 21 21h104q12 0 12 12v105q0 117 27 181t85 91t161 27h57q21 -1 21 -21z" />
    <glyph glyph-name="g" unicode="g" horiz-adv-x="1107" 
d="M501 891q-183 0 -243 -168q-29 -82 -29 -223t29 -228q59 -172 242 -172t241 172q25 74 25 223.5t-25 223.5q-57 172 -240 172zM475 997q212 0 289 -161h2v120q0 20 20 21h218q20 0 20 -21v-61q0 -20 -20 -21h-115q-12 0 -12 -12v-844q0 -201 -102.5 -304t-289.5 -103
q-104 0 -192 40t-131 101q-4 8 -4 15t8 14l49 43q6 6 15 6t16 -8q90 -104 241 -105q279 0 279 297v142h-2q-76 -160 -289 -160q-123 0 -206 60.5t-117 166.5t-34.5 272.5t34.5 272.5t118.5 167.5t204.5 61.5z" />
    <glyph glyph-name="h" unicode="h" horiz-adv-x="1189" 
d="M346 1372v-532h2q37 74 109.5 115.5t173.5 41.5q162 0 250 -97t88 -275v-510q0 -12 12 -13h113q20 0 20 -20v-62q0 -20 -20 -20h-363q-20 0 -20 20v62q0 20 20 20h115q12 0 12 13v483q0 293 -252 293q-113 0 -186.5 -74t-73.5 -199v-503q0 -12 12 -13h115q20 0 21 -20
v-62q0 -20 -21 -20h-364q-20 0 -21 20v62q0 20 21 20h114q12 0 13 13v1163q0 12 -13 12h-114q-20 0 -21 21v61q0 20 21 21h217q20 -1 20 -21z" />
    <glyph glyph-name="i" unicode="i" horiz-adv-x="575" 
d="M346 956v-841q0 -12 12 -13h115q20 0 21 -20v-62q0 -20 -21 -20h-364q-20 0 -21 20v62q0 20 21 20h114q12 0 13 13v747q0 12 -13 12h-114q-20 0 -21 21v61q0 20 21 21h217q20 -1 20 -21zM356 1372v-115q0 -20 -20 -20h-90q-20 0 -21 20v115q0 20 21 21h90q20 -1 20 -21z
" />
    <glyph glyph-name="j" unicode="j" horiz-adv-x="565" 
d="M346 956v-1069q0 -141 -57.5 -198.5t-194.5 -57.5h-22q-20 0 -21 21v61q0 20 21 21h18q84 0 115 30.5t31 120.5v977q0 12 -13 12h-114q-20 0 -21 21v61q0 20 21 21h217q20 -1 20 -21zM356 1372v-115q0 -20 -20 -20h-90q-20 0 -21 20v115q0 20 21 21h90q20 -1 20 -21z" />
    <glyph glyph-name="k" unicode="k" horiz-adv-x="1099" 
d="M346 1372v-930l438 516q16 18 35 19h156q20 0 20 -21v-61q0 -20 -20 -21h-119q-12 0 -22 -12l-207 -246l299 -501q8 -12 22 -13h107q20 0 20 -20v-62q0 -20 -20 -20h-166q-20 0 -35 20l-301 510l-207 -243v-172q0 -12 12 -13h115q20 0 21 -20v-62q0 -20 -21 -20h-364
q-20 0 -21 20v62q0 20 21 20h114q12 0 13 13v1163q0 12 -13 12h-114q-20 0 -21 21v61q0 20 21 21h217q20 -1 20 -21z" />
    <glyph glyph-name="l" unicode="l" horiz-adv-x="563" 
d="M315 1372v-1145q0 -72 23.5 -99.5t81.5 -27.5h35q20 0 20 -20v-64q0 -20 -20 -20h-47q-109 0 -156 54t-47 175v1053q0 12 -12 12h-115q-20 0 -21 21v61q0 20 21 21h217q20 -1 20 -21z" />
    <glyph glyph-name="m" unicode="m" horiz-adv-x="1812" 
d="M631 997q225 0 301 -184h2q92 184 315 184q166 0 254 -97t88 -275v-510q0 -12 13 -13h112q20 0 21 -20v-62q0 -20 -21 -20h-362q-20 0 -21 20v62q0 20 21 20h114q12 0 13 13v483q0 293 -252 293q-113 0 -186.5 -74t-73.5 -199v-503q0 -12 12 -13h115q20 0 20 -20v-62
q0 -20 -20 -20h-365q-20 0 -20 20v62q0 20 20 20h115q12 0 12 13v483q0 293 -252 293q-113 0 -186.5 -74t-73.5 -199v-503q0 -12 12 -13h115q20 0 21 -20v-62q0 -20 -21 -20h-364q-20 0 -21 20v62q0 20 21 20h114q12 0 13 13v747q0 12 -13 12h-114q-20 0 -21 21v61
q0 20 21 21h217q20 0 20 -21v-116h2q37 74 109.5 115.5t173.5 41.5z" />
    <glyph glyph-name="n" unicode="n" horiz-adv-x="1189" 
d="M969 625v-510q0 -12 12 -13h113q20 0 20 -20v-62q0 -20 -20 -20h-363q-20 0 -20 20v62q0 20 20 20h115q12 0 12 13v483q0 293 -252 293q-113 0 -186.5 -74t-73.5 -199v-503q0 -12 12 -13h115q20 0 21 -20v-62q0 -20 -21 -20h-364q-20 0 -21 20v62q0 20 21 20h114
q12 0 13 13v747q0 12 -13 12h-114q-20 0 -21 21v61q0 20 21 21h217q20 0 20 -21v-116h2q37 74 109.5 115.5t173.5 41.5q162 0 250 -97t88 -275z" />
    <glyph glyph-name="o" unicode="o" horiz-adv-x="1030" 
d="M229 488q0 -140 28 -224t95.5 -131t162.5 -47t162.5 47t95.5 131t28 224t-28 224t-95.5 131.5t-162.5 47.5t-162.5 -47t-95.5 -131q-28 -85 -28 -225zM515 -20q-134 0 -230.5 66.5t-132.5 178.5t-35 263q0 152 36 264t132 178.5t230 66.5t230.5 -66.5t132.5 -178.5
t36 -264t-36 -264t-132.5 -178t-230.5 -66z" />
    <glyph glyph-name="p" unicode="p" horiz-adv-x="1128" 
d="M346 488q0 -154 27 -234t91 -124t160 -44q191 0 248 172q27 80 27 230t-28 233q-58 170 -248 170q-95 0 -160 -44t-91 -125t-26 -234zM1012 488q0 -163 -35 -275q-78 -233 -334 -233q-213 0 -295 159h-2v-393q0 -12 12 -12h115q20 0 21 -21v-61q0 -20 -21 -21h-364
q-20 0 -21 21v61q0 20 21 21h114q12 0 13 12v1116q0 12 -13 12h-114q-20 0 -21 21v61q0 20 21 21h217q20 0 20 -21v-118h2q84 160 295 159q256 0 334 -233q35 -113 35 -276z" />
    <glyph glyph-name="q" unicode="q" horiz-adv-x="1128" 
d="M506 891q-191 0 -249 -170q-28 -82 -28 -233q0 -150 28 -232q58 -170 251 -170t248 172q26 78 26 230t-26 234q-26 81 -91 125t-159 44zM782 838v118q0 20 21 21h217q20 0 20 -21v-61q0 -20 -20 -21h-115q-12 0 -12 -12v-1116q0 -12 12 -12h115q20 0 20 -21v-61
q0 -20 -20 -21h-365q-20 0 -20 21v61q0 20 20 21h115q12 0 12 12v393h-2q-82 -160 -297 -159q-258 0 -331 235q-35 104 -35 274t35 275q74 233 331 233q215 1 297 -159h2z" />
    <glyph glyph-name="r" unicode="r" horiz-adv-x="815" 
d="M634 991q116 0 118 -37v-67q0 -25 -23 -19q-68 14 -123 15q-117 0 -188.5 -85t-71.5 -249v-434q0 -12 12 -13h131q20 0 21 -20v-62q0 -20 -21 -20h-380q-20 0 -21 20v62q0 20 21 20h114q12 0 13 13v747q0 12 -13 12h-114q-20 0 -21 21v61q0 20 21 21h217q20 0 20 -21
v-145h2q74 180 286 180z" />
    <glyph glyph-name="s" unicode="s" horiz-adv-x="968" 
d="M799 729q0 -20 -21 -20h-65q-20 0 -21 20v115q0 12 -10 16q-93 37 -205 37q-113 0 -173 -44t-60 -121t50 -117t171 -54l102 -12q287 -35 287 -270q0 -141 -98.5 -220t-283.5 -79t-333 81q-12 6 -12 25v188q0 20 20 21h66q20 0 20 -21v-124q0 -12 9 -19q106 -51 238 -51
t197.5 49t65.5 133t-48 126t-177 56l-102 13q-283 33 -283 271q0 122 92 195.5t259 73.5t298 -63q16 -8 17 -25v-180z" />
    <glyph glyph-name="t" unicode="t" horiz-adv-x="641" 
d="M330 1270v-281q0 -12 12 -12h184q20 0 21 -21v-61q0 -20 -21 -21h-184q-12 0 -12 -12v-596q0 -96 35.5 -131t123.5 -35h37q20 0 21 -20v-64q0 -20 -21 -20h-53q-137 0 -195.5 60.5t-58.5 203.5v602q0 12 -12 12h-103q-20 0 -20 21v61q0 20 20 21h103q12 0 12 12v281
q0 20 21 20h69q21 0 21 -20z" />
    <glyph glyph-name="u" unicode="u" horiz-adv-x="1165" 
d="M319 379q0 -293 241 -293q120 0 192.5 73.5t72.5 196.5v506q0 12 -12 12h-115q-20 0 -20 21v61q0 20 20 21h217q21 -1 21 -21v-841q0 -12 12 -13h115q20 0 20 -20v-62q0 -20 -20 -20h-217q-20 0 -21 20v115h-2q-37 -74 -110.5 -114.5t-169.5 -40.5q-160 0 -247 96
t-87 274v512q0 12 -12 12h-115q-20 0 -21 21v61q0 20 21 21h217q20 0 20 -21v-577z" />
    <glyph glyph-name="v" unicode="v" horiz-adv-x="1005" 
d="M981 956v-61q0 -20 -20 -21h-66q-12 0 -16 -12l-316 -842q-6 -20 -22 -20h-76q-16 0 -23 20l-317 842q-2 12 -14 12h-66q-20 0 -20 21v61q0 20 20 21h311q20 0 21 -21v-61q0 -20 -21 -21h-98q-13 0 -8 -14l256 -702h2l254 702q4 14 -10 14h-95q-20 0 -20 21v61
q0 20 20 21h304q20 -1 20 -21z" />
    <glyph glyph-name="w" unicode="w" horiz-adv-x="1538" 
d="M1516 956v-61q0 -20 -21 -21h-65q-12 0 -17 -12l-274 -842q-6 -20 -25 -20h-61q-18 0 -25 20l-256 777h-4l-258 -777q-6 -20 -25 -20h-61q-18 0 -25 20l-274 842q-2 12 -16 12h-66q-20 0 -20 21v61q0 20 20 21h313q20 0 21 -21v-61q0 -20 -21 -21h-104q-14 0 -10 -14
l217 -688h2l252 784q6 20 24 21h64q18 0 24 -21l258 -782h4l216 686q4 14 -11 14h-102q-20 0 -21 21v61q0 20 21 21h305q21 -1 21 -21z" />
    <glyph glyph-name="x" unicode="x" horiz-adv-x="964" 
d="M897 956v-61q0 -20 -20 -21h-93q-12 0 -20 -12l-221 -350l256 -399q8 -10 20 -11h92q20 0 21 -20v-62q0 -20 -21 -20h-149q-20 0 -33 20l-246 392h-2l-252 -396q-10 -16 -28 -16h-146q-20 0 -20 20v62q0 20 20 20h90q14 0 21 11l254 399l-221 352q-6 10 -19 10h-94
q-20 0 -20 21v61q0 20 20 21h150q18 0 28 -16l217 -349h2l217 346q12 18 29 19h148q20 -1 20 -21z" />
    <glyph glyph-name="y" unicode="y" horiz-adv-x="991" 
d="M977 956v-61q0 -20 -21 -21h-63q-12 0 -16 -12l-367 -958q-76 -205 -145.5 -239t-135.5 -34h-43q-20 0 -20 21v65q0 20 20 21h37q66 0 105 37t80 145l38 100l-327 842q-4 12 -17 12h-63q-20 0 -21 21v61q0 20 21 21h311q20 0 21 -21v-61q0 -20 -21 -21h-102q-14 0 -8 -16
l260 -692h4l258 692q6 16 -8 16h-101q-20 0 -20 21v61q0 20 20 21h303q21 -1 21 -21z" />
    <glyph glyph-name="z" unicode="z" horiz-adv-x="993" 
d="M860 956v-63q0 -10 -10 -27l-598 -762v-2h498q12 0 12 13v133q0 20 20 20h68q20 0 20 -20v-228q0 -20 -20 -20h-717q-20 0 -20 20v60q0 12 10 29l600 763v2h-465q-12 0 -12 -12v-131q0 -20 -21 -20h-65q-20 0 -21 20v225q0 20 21 21h680q20 -1 20 -21z" />
    <glyph glyph-name="braceleft" unicode="{" horiz-adv-x="651" 
d="M561 1495v-55q0 -20 -20 -21h-54q-51 0 -75.5 -26.5t-24.5 -87.5v-392q0 -113 -23.5 -163t-80.5 -72v-4q57 -23 80.5 -72t23.5 -164v-399q0 -61 24.5 -88t75.5 -27h54q20 0 20 -20v-56q0 -20 -20 -20h-70q-98 0 -143 51t-45 164v408q0 90 -30 128.5t-87 43.5
q-20 4 -21 20v66q0 16 21 20q57 4 87 43t30 129v399q0 113 45 164.5t143 51.5h70q20 -1 20 -21z" />
    <glyph glyph-name="bar" unicode="|" horiz-adv-x="503" 
d="M301 1495v-1647q0 -20 -20 -20h-58q-20 0 -20 20v1647q0 20 20 21h58q20 -1 20 -21z" />
    <glyph glyph-name="braceright" unicode="}" horiz-adv-x="651" 
d="M369 1300v-399q0 -90 29.5 -129t86.5 -43q20 -4 21 -20v-66q0 -16 -21 -20q-57 -4 -86.5 -43t-29.5 -129v-408q0 -113 -45 -164t-144 -51h-69q-20 0 -21 20v56q0 20 21 20h53q51 0 75.5 26.5t24.5 88.5v399q0 115 23.5 164t81.5 72v4q-57 23 -81 73t-24 162v392
q0 61 -24.5 87.5t-75.5 26.5h-53q-20 0 -21 21v55q0 20 21 21h69q99 0 144 -51.5t45 -164.5z" />
    <glyph glyph-name="asciitilde" unicode="~" 
d="M729 539q84 0 158 116q10 20 31 4l38 -24q18 -11 7 -29q-39 -76 -103 -120t-130 -44t-111.5 21t-118.5 73t-129 52q-57 0 -95 -26.5t-75 -90.5q-10 -16 -29 -4l-41 27q-13 10 -6 28q39 76 104 119t131 43t110 -20.5t94 -56.5t85 -52t80 -16z" />
    <glyph glyph-name="uni00A0" unicode="&#xa0;" horiz-adv-x="503" 
 />
    <glyph glyph-name="exclamdown" unicode="&#xa1;" horiz-adv-x="544" 
d="M231 -416q-20 0 -20 21l16 989q0 20 21 20h47q20 0 20 -20l17 -989q0 -20 -21 -21h-80zM344 956v-137q0 -20 -20 -20h-103q-20 0 -20 20v137q0 20 20 21h103q20 -1 20 -21z" />
    <glyph glyph-name="cent" unicode="&#xa2;" 
d="M311 707q-27 -79 -27 -221t27 -220q49 -150 211 -178v797q-162 -24 -211 -178zM600 1163v-166q179 -4 287 -73q12 -8 12 -25v-188q0 -20 -20 -21h-66q-20 0 -20 21v125q0 22 -68 37.5t-125 17.5v-807q119 0 184 39q8 6 9 14v121q0 20 20 21h66q20 0 20 -21v-184
q0 -16 -14 -25q-109 -68 -285 -69v-168q0 -20 -20 -21h-37q-20 0 -21 21v172q-246 25 -317 245q-33 94 -33 255t34 263t115.5 167t200.5 79v170q0 20 21 21h37q20 -1 20 -21z" />
    <glyph glyph-name="sterling" unicode="&#xa3;" 
d="M406 328q0 -147 -66 -219v-3h494q12 0 12 13v143q0 20 20 21h68q20 0 20 -21v-242q0 -20 -20 -20h-711q-20 0 -20 20v64q1 12 29 40q62 62 61 189v297q0 12 -12 13h-103q-20 0 -20 20v53q0 20 20 21h103q12 0 12 12v334q0 168 84 259t240 91t253 -74q14 -12 15 -26v-189
q0 -20 -21 -20h-67q-20 0 -21 20v123q0 16 -10 25q-58 37 -155 37t-151 -58.5t-54 -175.5v-346q0 -12 12 -12h278q20 0 21 -21v-53q0 -20 -21 -20h-278q-12 0 -12 -13v-282z" />
    <glyph glyph-name="currency" unicode="&#xa4;" horiz-adv-x="1083" 
d="M260 661.5q0 -81.5 37 -148.5t102.5 -105.5t147.5 -38.5q123 0 203.5 84t80.5 208.5t-80.5 208.5t-203.5 84q-82 0 -147.5 -38.5t-102.5 -105.5t-37 -148.5zM932 661.5q0 -135.5 -76 -237.5l131 -131q12 -16 0 -29l-41 -47q-16 -12 -28 0l-134 133q-104 -78 -238 -78
t-239 78l-131 -131q-14 -14 -29 0l-41 45q-14 14 0 29l130 129q-76 100 -76 238t78 241l-132 131q-14 14 0 29l41 45q14 14 29 0l133 -133q101 78 235 78t238 -78l133 133q17 17 29 0l41 -45q16 -17 0 -29l-131 -131q78 -104 78 -239.5z" />
    <glyph glyph-name="yen" unicode="&#xa5;" 
d="M1032 1372v-61q0 -20 -20 -21h-70q-12 0 -16 -12l-283 -594v-4h238q20 0 20 -21v-51q0 -20 -20 -20h-271q-12 0 -12 -13v-122q0 -12 12 -13h271q20 0 20 -20v-51q0 -20 -20 -21h-271q-12 0 -12 -12v-221q0 -12 12 -13h127q20 0 21 -20v-62q0 -20 -21 -20h-389
q-20 0 -20 20v62q0 20 20 20h127q12 0 12 13v221q0 12 -12 12h-270q-20 0 -21 21v51q0 20 21 20h270q12 0 12 13v122q0 12 -12 13h-270q-20 0 -21 20v51q0 20 21 21h235v4l-278 594q-6 12 -19 12h-67q-20 0 -21 21v61q0 20 21 21h332q20 0 20 -21v-61q0 -20 -20 -21h-117
q-8 0 -11.5 -5t1.5 -11l262 -569h4l266 569q4 16 -10 16h-125q-20 0 -21 21v61q0 20 21 21h334q20 -1 20 -21z" />
    <glyph glyph-name="brokenbar" unicode="&#xa6;" horiz-adv-x="503" 
d="M301 537v-689q0 -20 -20 -20h-58q-20 0 -20 20v689q0 20 20 20h58q20 0 20 -20zM301 1495v-680q0 -20 -20 -20h-58q-20 0 -20 20v680q0 20 20 21h58q20 -1 20 -21z" />
    <glyph glyph-name="section" unicode="&#xa7;" horiz-adv-x="1085" 
d="M295 517q0 -126 68.5 -194.5t179 -68.5t179.5 68.5t69 194.5t-68.5 194.5t-180.5 68.5t-179.5 -68.5t-67.5 -194.5zM864 -86q0 -141 -93 -222t-253 -81t-280 72q-14 8 -15 22v207q0 20 21 20h63q20 0 21 -20v-137q0 -16 10 -25q71 -39 185 -39t174.5 54.5t60.5 151.5
t-64.5 151.5t-218.5 85.5q-287 59 -287 364q0 121 56.5 212t167.5 122v2q-94 45 -136.5 106.5t-42.5 175.5t86.5 195.5t235.5 81.5t264 -76q14 -8 15 -24v-199q0 -20 -21 -20h-61q-20 0 -21 20v133q0 16 -10 25q-74 41 -171 41t-152.5 -50.5t-55.5 -144.5t59.5 -148.5
t208.5 -86.5q287 -63 287 -365q0 -123 -56.5 -212t-160.5 -122v-2q184 -75 184 -268z" />
    <glyph glyph-name="dieresis" unicode="&#xa8;" horiz-adv-x="862" 
d="M696 1372v-115q0 -20 -20 -20h-82q-20 0 -21 20v115q0 20 21 21h82q20 -1 20 -21zM289 1372v-115q0 -20 -21 -20h-82q-20 0 -20 20v115q0 20 20 21h82q21 -1 21 -21z" />
    <glyph glyph-name="copyright" unicode="&#xa9;" horiz-adv-x="1699" 
d="M872 1012q-248 0 -249 -215t21 -278t80 -100.5t147 -37.5t153 29q8 6 8 14v98q0 20 21 21h47q20 0 20 -21v-145q0 -18 -16 -29q-102 -53 -230 -53q-255 0 -321 203q-23 68 -23 196t28 211q28 84 110 138.5t211 54.5t225 -62q16 -10 16 -30v-140q0 -20 -20 -20h-47
q-20 0 -21 20v97q0 8 -8 14q-62 35 -152 35zM221 696q0 -178 82 -322.5t226.5 -226t320.5 -81.5t320.5 81.5t226.5 226t82 322.5t-82 322.5t-226.5 226.5t-320.5 82t-320.5 -82t-226.5 -226.5t-82 -322.5zM1567 696.5q0 -200.5 -94.5 -364.5t-258 -258t-364.5 -94t-364.5 94
t-258 258t-94.5 364.5t94.5 364.5t258 258t364.5 94t364.5 -94t258 -258t94.5 -364.5z" />
    <glyph glyph-name="ordfeminine" unicode="&#xaa;" horiz-adv-x="696" 
d="M184 975q0 -49 37 -76t107 -27t117 31t47 80v80q0 12 -13 12h-133q-162 0 -162 -100zM328 1323q-100 0 -103 -31v-63q0 -20 -20 -21h-51q-20 0 -21 21v108q0 14 12 23q78 47 204 47t180.5 -45t54.5 -154v-311q0 -12 12 -12h55q20 0 21 -21v-41q0 -20 -21 -20h-137
q-20 0 -20 20v41h-5q-52 -73 -188 -73q-92 0 -150.5 47t-58.5 129q0 186 246 186h141q12 0 13 12v41q0 63 -32 90t-132 27z" />
    <glyph glyph-name="guillemotleft" unicode="&#xab;" horiz-adv-x="1081" 
d="M918 920q8 0 8 -13v-92q0 -23 -15 -37l-227 -229q-8 -8 0 -17l227 -229q14 -14 15 -37v-92q0 -8 -7.5 -11t-13.5 3l-350 360q-6 6 -6 14.5t6 14.5l350 360q5 5 13 5zM504 920q8 0 8 -13v-92q0 -23 -14 -37l-228 -229q-8 -8 0 -17l228 -229q14 -14 14 -37v-92q0 -8 -7 -11
t-13 3l-351 360q-6 6 -6 14.5t6 14.5l351 360q4 5 12 5z" />
    <glyph glyph-name="logicalnot" unicode="&#xac;" 
d="M954 596v-336q0 -20 -20 -20h-66q-20 0 -20 20v242q0 12 -12 12h-680q-20 0 -21 21v61q0 20 21 20h778q20 0 20 -20z" />
    <glyph glyph-name="uni00AD" unicode="&#xad;" horiz-adv-x="763" 
d="M666 578v-64q0 -20 -21 -20h-524q-20 0 -21 20v64q0 20 21 20h524q21 0 21 -20z" />
    <glyph glyph-name="registered" unicode="&#xae;" horiz-adv-x="940" 
d="M403 1167v-116q0 -10 11 -11h102q80 0 80 69t-80 69h-102q-11 -1 -11 -11zM655 1115q0 -103 -90 -124l56 -135q6 -10 14 -10h24q18 0 19 -17v-22q0 -16 -19 -16h-63q-14 0 -21 14l-73 180h-88q-10 0 -11 -10v-119q0 -10 11 -10h28q18 0 19 -17v-22q0 -16 -19 -16h-137
q-16 0 -16 16v22q0 16 16 17h29q10 0 10 10v311q0 10 -10 11h-29q-16 0 -16 18v21q0 16 16 16h211q66 0 102.5 -34t36.5 -84zM137 1009q0 -95 43 -172t119 -120t170 -43t171 43t120 119t43 172t-43 172.5t-120 119.5t-171 43t-170 -43t-119 -119.5t-43 -171.5zM864 1009.5
q0 -110.5 -52 -200.5t-142 -142.5t-201 -52.5t-201 52.5t-141 142.5t-51 200.5t51 200.5t141 141.5t201 51.5t201 -51.5t142 -141.5t52 -200.5z" />
    <glyph glyph-name="macron" unicode="&#xaf;" horiz-adv-x="862" 
d="M696 1339v-53q0 -20 -20 -20h-492q-20 0 -20 20v53q0 20 20 21h492q20 -1 20 -21z" />
    <glyph glyph-name="degree" unicode="&#xb0;" horiz-adv-x="917" 
d="M250 1114q0 -92 58.5 -153.5t148.5 -61.5t149.5 61.5t59.5 153.5t-58.5 153.5t-149.5 61.5t-149.5 -61.5t-58.5 -153.5zM750 1115q0 -126 -83 -210t-209 -84t-209 84t-83 209t83 209t209 84t209 -83t83 -209z" />
    <glyph glyph-name="plusminus" unicode="&#xb1;" 
d="M954 82v-62q0 -20 -20 -20h-778q-20 0 -21 20v62q0 20 21 20h778q20 0 20 -20zM598 1024v-328q0 -12 12 -12h324q20 0 20 -20v-62q0 -20 -20 -20h-324q-12 0 -12 -13v-327q0 -20 -20 -21h-66q-20 0 -20 21v327q0 12 -13 13h-323q-20 0 -21 20v62q0 20 21 20h323
q12 0 13 12v328q0 20 20 20h66q20 0 20 -20z" />
    <glyph glyph-name="twosuperior" unicode="&#xb2;" horiz-adv-x="677" 
d="M211 969h364q20 0 21 -21v-47q0 -20 -21 -20h-466q-20 0 -21 20v47q0 14 12 29l320 371q70 80 70 147t-41 106q-41 37 -113 37t-123 -32q-10 -8 -10 -21v-88q0 -20 -21 -20h-49q-20 0 -20 20v133q0 20 16 33q86 63 206 63q119 0 184 -62t65 -162t-90 -210l-283 -321v-2z
" />
    <glyph glyph-name="threesuperior" unicode="&#xb3;" horiz-adv-x="677" 
d="M594 1096q0 -94 -70 -162t-195 -68t-206 62q-15 12 -17 33v126q0 20 21 21h49q20 0 21 -21v-79q0 -12 10 -21q47 -33 125 -33t123 44t45 112t-46 113t-120 45h-37q-20 0 -21 20v47q0 20 21 21h33q68 0 110 39t41 103q0 64 -40 102q-41 38 -113 38t-121 -32
q-10 -8 -10 -21v-80q0 -20 -21 -20h-49q-20 0 -21 20v123q0 41 109 79q55 19 121 19q110 0 175 -61t65 -170t-107 -176v-2q49 -19 87 -73t38 -148z" />
    <glyph glyph-name="acute" unicode="&#xb4;" horiz-adv-x="860" 
d="M354 1143h-51q-22 0 -12 20l158 250q12 20 34 21h78q10 0 13.5 -6.5t-3.5 -14.5l-180 -250q-18 -20 -37 -20z" />
    <glyph glyph-name="mu" unicode="&#xb5;" horiz-adv-x="1173" 
d="M944 956v-841q0 -12 12 -13h115q20 0 21 -20v-62q0 -20 -21 -20h-217q-20 0 -20 20v119h-3q-33 -75 -105 -117t-169 -42q-168 0 -235 104h-3v-432q0 -20 -20 -21h-70q-20 0 -20 21v1304q0 20 20 21h70q20 0 20 -21v-598q-1 -132 63 -202t184 -70t194 74t74 198v598
q0 20 20 21h70q20 -1 20 -21z" />
    <glyph glyph-name="paragraph" unicode="&#xb6;" horiz-adv-x="1226" 
d="M1139 1372v-61q0 -20 -21 -21h-121q-12 0 -12 -12v-1626q0 -20 -20 -21h-64q-20 0 -20 21v1626q0 12 -13 12h-196q-12 0 -13 -12v-1626q0 -20 -20 -21h-64q-20 0 -20 21v893q-182 10 -288.5 128t-106.5 296q0 121 52 217t153.5 151.5t244.5 55.5h508q21 -1 21 -21z" />
    <glyph glyph-name="periodcentered" unicode="&#xb7;" horiz-adv-x="448" 
d="M295 612v-137q0 -20 -21 -20h-100q-20 0 -20 20v137q0 20 20 21h100q21 -1 21 -21z" />
    <glyph glyph-name="cedilla" unicode="&#xb8;" horiz-adv-x="862" 
d="M346 -303q-19 0 -14 20l110 283q8 20 27 20h53q20 0 15 -20l-95 -283q-7 -20 -32 -20h-64z" />
    <glyph glyph-name="onesuperior" unicode="&#xb9;" horiz-adv-x="677" 
d="M162 1493q-12 0 -12 14v64q0 20 14 28l145 101q18 12 33 12h51q21 0 21 -20v-711q0 -12 12 -12h137q20 0 21 -21v-47q0 -20 -21 -20h-393q-20 0 -20 20v47q0 20 20 21h137q12 0 12 12v614h-2l-147 -100q-2 -2 -8 -2z" />
    <glyph glyph-name="ordmasculine" unicode="&#xba;" horiz-adv-x="708" 
d="M520 1097.5q0 220.5 -141 220.5t-174 -106q-16 -45 -16.5 -114.5t16.5 -114.5q33 -106 174 -106t141 220.5zM392 1407q226 0 226 -309.5t-263 -309.5t-264 197t20 258q55 164 281 164z" />
    <glyph glyph-name="guillemotright" unicode="&#xbb;" horiz-adv-x="1081" 
d="M578 162q-8 0 -9 12v92q0 23 15 37l227 229q8 8 0 17l-227 229q-14 14 -15 37v92q0 8 7.5 11.5t13.5 -3.5l350 -360q6 -6 6 -14.5t-6 -14.5l-350 -360q-4 -4 -12 -4zM164 162q-8 0 -8 12v92q0 23 14 37l227 229q8 8 0 17l-227 229q-14 14 -14 37v92q0 8 7 11.5t13 -3.5
l350 -360q6 -6 6 -14.5t-6 -14.5l-350 -360q-4 -4 -12 -4z" />
    <glyph glyph-name="onequarter" unicode="&#xbc;" horiz-adv-x="1562" 
d="M162 1174q-12 0 -12 14v63q0 20 14 29l145 100q18 12 33 13h51q21 -1 21 -21v-710q0 -12 12 -13h137q20 0 21 -20v-47q0 -20 -21 -21h-393q-20 0 -20 21v47q0 20 20 20h137q12 0 12 13v614h-2l-147 -100q-2 -2 -8 -2zM449 -20h-56q-22 0 -12 20l807 1393q10 20 29 20h55
q22 0 12 -20l-807 -1393q-10 -20 -28 -20zM1049 244h243q12 0 13 12v201q0 20 20 20h51q20 0 21 -20v-201q0 -12 12 -12h74q20 0 20 -21v-47q0 -20 -20 -20h-74q-12 0 -12 -13v-123q0 -20 -21 -20h-51q-20 0 -20 20v123q0 12 -13 13h-329q-20 0 -21 20v45q0 16 8 33l273 557
q8 20 26 20h60q22 0 12 -20l-272 -565v-2z" />
    <glyph glyph-name="onehalf" unicode="&#xbd;" horiz-adv-x="1665" 
d="M162 1174q-12 0 -12 14v63q0 20 14 29l145 100q18 12 33 13h51q21 -1 21 -21v-710q0 -12 12 -13h137q20 0 21 -20v-47q0 -20 -21 -21h-393q-20 0 -20 21v47q0 20 20 20h137q12 0 12 13v614h-2l-147 -100q-2 -2 -8 -2zM449 -20h-56q-22 0 -12 20l807 1393q10 20 29 20h55
q22 0 12 -20l-807 -1393q-10 -20 -28 -20zM1198 88h365q20 0 20 -20v-48q0 -20 -20 -20h-467q-20 0 -21 20v48q0 14 12 28l320 371q70 80 70 147q0 68 -41 106t-113 38t-123 -33q-10 -8 -10 -20v-89q0 -20 -21 -20h-49q-20 0 -20 20v134q0 42 109 77q56 18 118 19
q114 -1 179 -63t65 -163t-90 -208l-283 -322v-2z" />
    <glyph glyph-name="threequarters" unicode="&#xbe;" horiz-adv-x="1562" 
d="M594 776q0 -94 -70 -162t-196 -68t-205 62q-15 12 -17 33v127q0 20 21 20h49q20 0 21 -20v-80q0 -12 10 -20q47 -33 125 -33t123 44t45 112q0 69 -46 113t-120 44h-37q-20 0 -21 21v47q0 20 21 20h33q68 0 110 39t41 103q0 64 -40 103q-41 38 -113 38t-121 -33
q-10 -8 -10 -20v-80q0 -20 -21 -21h-49q-20 0 -21 21v123q0 39 109 79q55 19 121 19q110 0 175 -61t65 -170t-107 -177v-2q49 -20 87 -73q38 -54 38 -148zM449 -20h-56q-22 0 -12 20l807 1393q10 20 29 20h55q22 0 12 -20l-807 -1393q-10 -20 -28 -20zM1049 244h243
q12 0 13 12v201q0 20 20 20h51q20 0 21 -20v-201q0 -12 12 -12h74q20 0 20 -21v-47q0 -20 -20 -20h-74q-12 0 -12 -13v-123q0 -20 -21 -20h-51q-20 0 -20 20v123q0 12 -13 13h-329q-20 0 -21 20v45q0 16 8 33l273 557q8 20 26 20h60q22 0 12 -20l-272 -565v-2z" />
    <glyph glyph-name="questiondown" unicode="&#xbf;" horiz-adv-x="913" 
d="M518 600v-80q0 -63 -14.5 -107t-50.5 -94l-117 -151q-72 -96 -96.5 -149.5t-24.5 -116.5q0 -111 68.5 -171.5t187.5 -60.5t209 60q12 8 12 20v152q0 20 21 20h65q20 0 21 -20v-203q0 -18 -17 -31q-140 -104 -313 -104q-174 0 -270.5 94t-96.5 244q0 80 27 140t98 157
l113 149q41 53 53.5 87t12.5 93v72q0 20 20 21h72q20 -1 20 -21zM535 956v-137q0 -20 -21 -20h-102q-20 0 -21 20v137q0 20 21 21h102q21 -1 21 -21z" />
    <glyph glyph-name="Agrave" unicode="&#xc0;" horiz-adv-x="1265" 
d="M387 528h492l-242 691h-4zM1237 102q20 0 20 -20v-62q0 -20 -20 -20h-338q-20 0 -20 20v62q0 20 20 20h115q16 0 10 15l-106 301h-570l-106 -301q-6 -14 10 -15h115q20 0 20 -20v-62q0 -20 -20 -20h-338q-20 0 -21 20v62q0 20 21 20h73q12 0 17 13l450 1257q6 20 25 21
h84q18 -1 24 -21l447 -1257q4 -12 16 -13h72zM668 1565h-54q-21 0 -36 18l-197 215q-6 8 -3 14t11 7h82q23 -1 37 -21l168 -213q8 -8 5 -14t-13 -6z" />
    <glyph glyph-name="Aacute" unicode="&#xc1;" horiz-adv-x="1265" 
d="M387 528h492l-242 691h-4zM1237 102q20 0 20 -20v-62q0 -20 -20 -20h-338q-20 0 -20 20v62q0 20 20 20h115q16 0 10 15l-106 301h-570l-106 -301q-6 -14 10 -15h115q20 0 20 -20v-62q0 -20 -20 -20h-338q-20 0 -21 20v62q0 20 21 20h73q12 0 17 13l450 1257q6 20 25 21
h84q18 -1 24 -21l447 -1257q4 -12 16 -13h72zM653 1565h-53q-10 0 -13 6t5 14l168 213q14 20 37 21h82q22 -2 8 -21l-197 -215q-15 -18 -37 -18z" />
    <glyph glyph-name="Acircumflex" unicode="&#xc2;" horiz-adv-x="1265" 
d="M387 528h492l-242 691h-4zM1237 102q20 0 20 -20v-62q0 -20 -20 -20h-338q-20 0 -20 20v62q0 20 20 20h115q16 0 10 15l-106 301h-570l-106 -301q-6 -14 10 -15h115q20 0 20 -20v-62q0 -20 -20 -20h-338q-20 0 -21 20v62q0 20 21 20h73q12 0 17 13l450 1257q6 20 25 21
h84q18 -1 24 -21l447 -1257q4 -12 16 -13h72zM868 1544h-51q-17 0 -35 21l-145 174h-4l-144 -174q-18 -21 -34 -21h-52q-8 0 -11 6t3 15l185 252q12 18 32 18h47q17 0 31 -18l187 -252q6 -9 4 -15t-13 -6z" />
    <glyph glyph-name="Atilde" unicode="&#xc3;" horiz-adv-x="1265" 
d="M387 528h492l-242 691h-4zM1237 102q20 0 20 -20v-62q0 -20 -20 -20h-338q-20 0 -20 20v62q0 20 20 20h115q16 0 10 15l-106 301h-570l-106 -301q-6 -14 10 -15h115q20 0 20 -20v-62q0 -20 -20 -20h-338q-20 0 -21 20v62q0 20 21 20h73q12 0 17 13l450 1257q6 20 25 21
h84q18 -1 24 -21l447 -1257q4 -12 16 -13h72zM746 1696q63 0 124 67q6 6 12 4t5 -10v-61q0 -16 -15 -33q-61 -61 -120 -61t-124 40q-102 63 -164 23q-26 -16 -61 -51q-18 -14 -18 6v61q0 14 16 31q55 62 120 62t126 -39t99 -39z" />
    <glyph glyph-name="Adieresis" unicode="&#xc4;" horiz-adv-x="1265" 
d="M387 528h492l-242 691h-4zM1237 102q20 0 20 -20v-62q0 -20 -20 -20h-338q-20 0 -20 20v62q0 20 20 20h115q16 0 10 15l-106 301h-570l-106 -301q-6 -14 10 -15h115q20 0 20 -20v-62q0 -20 -20 -20h-338q-20 0 -21 20v62q0 20 21 20h73q12 0 17 13l450 1257q6 20 25 21
h84q18 -1 24 -21l447 -1257q4 -12 16 -13h72zM901 1745v-115q0 -20 -20 -20h-80q-20 0 -21 20v115q0 20 21 20h80q20 0 20 -20zM492 1745v-115q0 -20 -21 -20h-80q-20 0 -20 20v115q0 20 20 20h80q21 0 21 -20z" />
    <glyph glyph-name="Aring" unicode="&#xc5;" horiz-adv-x="1265" 
d="M387 528h492l-242 691h-4zM1237 102q20 0 20 -20v-62q0 -20 -20 -20h-338q-20 0 -20 20v62q0 20 20 20h115q16 0 10 15l-106 301h-570l-106 -301q-6 -14 10 -15h115q20 0 20 -20v-62q0 -20 -20 -20h-338q-20 0 -21 20v62q0 20 21 20h73q12 0 17 13l450 1257q6 20 25 21
h84q18 -1 24 -21l447 -1257q4 -12 16 -13h72zM526 1692q0 -49 30 -82t79 -33t79 33t29 82q0 49 -29 82q-30 33 -79 33t-79 -33t-30 -82zM815 1692q0 -78 -51 -129t-129 -51t-129 50q-51 52 -51 130t51 129t129 51t129 -51t51 -129z" />
    <glyph glyph-name="AE" unicode="&#xc6;" horiz-adv-x="1929" 
d="M969 494q12 0 12 12v774h-4l-496 -786h488zM1806 1372v-239q0 -20 -20 -21h-70q-20 0 -20 21v137q0 12 -13 12h-573q-12 0 -12 -12v-496q0 -12 12 -12h451q12 0 12 12v105q0 20 20 20h70q20 0 20 -20v-344q0 -20 -20 -21h-70q-20 0 -20 21v104q0 12 -12 12h-451
q-12 0 -12 -12v-516q0 -12 12 -12h573q12 0 13 12v143q0 20 20 21h70q20 0 20 -21v-246q0 -20 -20 -20h-785q-20 0 -20 20v351q0 12 -12 12h-557l-166 -266q-8 -14 6 -15h115q20 0 20 -20v-62q0 -20 -20 -20h-334q-20 0 -21 20v62q0 20 21 20h61q10 0 17 13l786 1259
q12 18 31 19h858q20 -1 20 -21z" />
    <glyph glyph-name="Ccedilla" unicode="&#xc7;" horiz-adv-x="1183" 
d="M1055 1268v-215q0 -20 -21 -21h-69q-20 0 -21 21v153q0 12 -10 21q-108 76 -285 76q-281 0 -360 -234q-37 -118 -37 -326q0 -209 14.5 -358.5t126 -222t280.5 -72.5t261 66q10 6 10 20v160q0 20 21 20h69q20 0 21 -20v-217q0 -20 -15 -33q-143 -102 -364 -106l-88 -263
q-7 -20 -33 -20h-63q-20 0 -15 20l105 267q-324 24 -412 301q-37 117 -37 348t33 505.5t477 274.5q251 0 395 -113q17 -14 17 -32z" />
    <glyph glyph-name="Egrave" unicode="&#xc8;" horiz-adv-x="1191" 
d="M1069 1372v-239q0 -20 -20 -21h-70q-20 0 -21 21v137q0 12 -12 12h-573q-12 0 -13 -12v-496q0 -12 13 -12h450q12 0 13 12v105q0 20 20 20h70q20 0 20 -20v-344q0 -20 -20 -21h-70q-20 0 -20 21v104q0 12 -13 12h-450q-12 0 -13 -12v-516q0 -12 13 -12h573q12 0 12 12
v143q0 20 21 21h70q20 0 20 -21v-246q0 -20 -20 -20h-940q-20 0 -21 20v62q0 20 21 20h122q12 0 13 13v1163q0 12 -13 12h-122q-20 0 -21 21v61q0 20 21 21h940q20 -1 20 -21zM702 1565h-53q-20 0 -37 18l-196 215q-6 8 -3 14t11 7h82q23 -1 37 -21l168 -213q8 -8 5 -14
t-14 -6z" />
    <glyph glyph-name="Eacute" unicode="&#xc9;" horiz-adv-x="1191" 
d="M1069 1372v-239q0 -20 -20 -21h-70q-20 0 -21 21v137q0 12 -12 12h-573q-12 0 -13 -12v-496q0 -12 13 -12h450q12 0 13 12v105q0 20 20 20h70q20 0 20 -20v-344q0 -20 -20 -21h-70q-20 0 -20 21v104q0 12 -13 12h-450q-12 0 -13 -12v-516q0 -12 13 -12h573q12 0 12 12
v143q0 20 21 21h70q20 0 20 -21v-246q0 -20 -20 -20h-940q-20 0 -21 20v62q0 20 21 20h122q12 0 13 13v1163q0 12 -13 12h-122q-20 0 -21 21v61q0 20 21 21h940q20 -1 20 -21zM602 1565h-53q-10 0 -13 6t5 14l168 213q14 20 36 21h82q23 -2 9 -21l-197 -215q-15 -18 -37 -18
z" />
    <glyph glyph-name="Ecircumflex" unicode="&#xca;" horiz-adv-x="1191" 
d="M1069 1372v-239q0 -20 -20 -21h-70q-20 0 -21 21v137q0 12 -12 12h-573q-12 0 -13 -12v-496q0 -12 13 -12h450q12 0 13 12v105q0 20 20 20h70q20 0 20 -20v-344q0 -20 -20 -21h-70q-20 0 -20 21v104q0 12 -13 12h-450q-12 0 -13 -12v-516q0 -12 13 -12h573q12 0 12 12
v143q0 20 21 21h70q20 0 20 -21v-246q0 -20 -20 -20h-940q-20 0 -21 20v62q0 20 21 20h122q12 0 13 13v1163q0 12 -13 12h-122q-20 0 -21 21v61q0 20 21 21h940q20 -1 20 -21zM815 1544q-17 0 -35 21l-145 174h-4l-144 -174q-18 -21 -34 -21h-52q-8 0 -11 6t3 15l185 252
q12 18 32 18h47q17 0 31 -18l186 -252q16 -21 -8 -21h-51z" />
    <glyph glyph-name="Edieresis" unicode="&#xcb;" horiz-adv-x="1191" 
d="M1069 1372v-239q0 -20 -20 -21h-70q-20 0 -21 21v137q0 12 -12 12h-573q-12 0 -13 -12v-496q0 -12 13 -12h450q12 0 13 12v105q0 20 20 20h70q20 0 20 -20v-344q0 -20 -20 -21h-70q-20 0 -20 21v104q0 12 -13 12h-450q-12 0 -13 -12v-516q0 -12 13 -12h573q12 0 12 12
v143q0 20 21 21h70q20 0 20 -21v-246q0 -20 -20 -20h-940q-20 0 -21 20v62q0 20 21 20h122q12 0 13 13v1163q0 12 -13 12h-122q-20 0 -21 21v61q0 20 21 21h940q20 -1 20 -21zM891 1745v-115q0 -20 -21 -20h-79q-20 0 -21 20v115q0 20 21 20h79q21 0 21 -20zM481 1745v-115
q0 -20 -20 -20h-80q-20 0 -21 20v115q0 20 21 20h80q20 0 20 -20z" />
    <glyph glyph-name="Igrave" unicode="&#xcc;" horiz-adv-x="604" 
d="M516 1372v-61q0 -20 -20 -21h-123q-12 0 -13 -12v-1163q0 -12 13 -13h123q20 0 20 -20v-62q0 -20 -20 -20h-387q-20 0 -21 20v62q0 20 21 20h122q12 0 13 13v1163q0 12 -13 12h-122q-20 0 -21 21v61q0 20 21 21h387q20 -1 20 -21zM340 1565h-53q-22 0 -37 18l-197 215
q-6 8 -3 14t11 7h82q23 -1 37 -21l168 -213q8 -8 5 -14t-13 -6z" />
    <glyph glyph-name="Iacute" unicode="&#xcd;" horiz-adv-x="604" 
d="M516 1372v-61q0 -20 -20 -21h-123q-12 0 -13 -12v-1163q0 -12 13 -13h123q20 0 20 -20v-62q0 -20 -20 -20h-387q-20 0 -21 20v62q0 20 21 20h122q12 0 13 13v1163q0 12 -13 12h-122q-20 0 -21 21v61q0 20 21 21h387q20 -1 20 -21zM319 1565h-53q-10 0 -13 6t5 14l168 213
q14 20 37 21h82q22 -2 8 -21l-197 -215q-15 -18 -37 -18z" />
    <glyph glyph-name="Icircumflex" unicode="&#xce;" horiz-adv-x="604" 
d="M516 1372v-61q0 -20 -20 -21h-123q-12 0 -13 -12v-1163q0 -12 13 -13h123q20 0 20 -20v-62q0 -20 -20 -20h-387q-20 0 -21 20v62q0 20 21 20h122q12 0 13 13v1163q0 12 -13 12h-122q-20 0 -21 21v61q0 20 21 21h387q20 -1 20 -21zM535 1544h-52q-18 0 -34 21l-146 174h-4
l-143 -174q-17 -21 -35 -21h-51q-8 0 -12 6q-3 6 3 15l185 252q12 18 33 18h47q16 0 30 -18l187 -252q6 -9 4 -15t-12 -6z" />
    <glyph glyph-name="Idieresis" unicode="&#xcf;" horiz-adv-x="604" 
d="M516 1372v-61q0 -20 -20 -21h-123q-12 0 -13 -12v-1163q0 -12 13 -13h123q20 0 20 -20v-62q0 -20 -20 -20h-387q-20 0 -21 20v62q0 20 21 20h122q12 0 13 13v1163q0 12 -13 12h-122q-20 0 -21 21v61q0 20 21 21h387q20 -1 20 -21zM567 1745v-115q0 -20 -20 -20h-80
q-20 0 -21 20v115q0 20 21 20h80q20 0 20 -20zM158 1745v-115q0 -20 -21 -20h-80q-20 0 -20 20v115q0 20 20 20h80q21 0 21 -20z" />
    <glyph glyph-name="Eth" unicode="&#xd0;" horiz-adv-x="1314" 
d="M360 1270v-500q0 -12 13 -12h266q20 0 20 -21v-61q0 -20 -20 -21h-266q-12 0 -13 -10v-522q0 -12 13 -12h291q277 0 350 208q31 92 32 319q1 226 -7 304q-19 211 -149 289q-87 51 -226 51h-291q-13 0 -13 -12zM1163 696q0 -182 -8 -266q-41 -430 -473 -430h-573
q-20 0 -21 20v62q0 20 21 20h122q12 0 13 13v530q0 10 -13 10h-81q-20 0 -21 21v61q0 20 21 21h81q12 0 13 12v508q0 12 -13 12h-122q-20 0 -21 21v61q0 20 21 21h573q352 0 444 -283q20 -63 28 -147q8 -85 9 -267z" />
    <glyph glyph-name="Ntilde" unicode="&#xd1;" horiz-adv-x="1423" 
d="M1335 1372v-61q0 -20 -20 -21h-123q-12 0 -12 -12v-1258q0 -20 -21 -20h-80q-23 0 -35 20l-677 1149h-7v-1054q0 -12 13 -13h123q20 0 20 -20v-62q0 -20 -20 -20h-387q-20 0 -21 20v62q0 20 21 20h122q12 0 13 13v1163q0 12 -13 12h-122q-20 0 -21 21v61q0 20 21 21h231
q25 0 35 -21l680 -1145h8v1051q0 12 -12 12h-123q-20 0 -21 21v61q0 20 21 21h387q20 -1 20 -21zM819 1696q64 0 125 67q14 14 17 -6v-61q0 -16 -15 -33q-61 -61 -120 -61t-124 40q-102 63 -164 23q-26 -16 -61 -51q-18 -14 -18 6v61q0 14 16 31q55 62 120 62t126 -39
t98 -39z" />
    <glyph glyph-name="Ograve" unicode="&#xd2;" horiz-adv-x="1247" 
d="M252 696q0 -266 35 -370q78 -236 337 -236t337 236q35 104 34 370q0 266 -34 371q-78 236 -337 236t-337 -236q-35 -105 -35 -371zM143 441q-10 87 -10 312t46 363t161 218q114 80 284 79q170 0 284 -80q163 -114 196 -382q10 -87 10 -313t-41 -345q-51 -154 -165 -234
q-114 -79 -284 -79t-284 80q-163 112 -197 381zM684 1565h-53q-22 0 -37 18l-197 215q-14 18 9 21h81q23 -1 37 -21l168 -213q8 -8 5 -14t-13 -6z" />
    <glyph glyph-name="Oacute" unicode="&#xd3;" horiz-adv-x="1247" 
d="M252 696q0 -266 35 -370q78 -236 337 -236t337 236q35 104 34 370q0 266 -34 371q-78 236 -337 236t-337 -236q-35 -105 -35 -371zM143 441q-10 87 -10 312t46 363t161 218q114 80 284 79q170 0 284 -80q163 -114 196 -382q10 -87 10 -313t-41 -345q-51 -154 -165 -234
q-114 -79 -284 -79t-284 80q-163 112 -197 381zM612 1565h-53q-10 0 -13 6t5 14l168 213q14 20 37 21h82q22 -2 8 -21l-197 -215q-15 -18 -37 -18z" />
    <glyph glyph-name="Ocircumflex" unicode="&#xd4;" horiz-adv-x="1247" 
d="M252 696q0 -266 35 -370q78 -236 337 -236t337 236q35 104 34 370q0 266 -34 371q-78 236 -337 236t-337 -236q-35 -105 -35 -371zM143 441q-10 87 -10 312t46 363t161 218q114 80 284 79q170 0 284 -80q163 -114 196 -382q10 -87 10 -313t-41 -345q-51 -154 -165 -234
q-114 -79 -284 -79t-284 80q-163 112 -197 381zM854 1544h-51q-19 0 -35 21l-145 174h-5l-143 -174q-18 -21 -35 -21h-51q-8 0 -11 6t3 15l184 252q12 18 33 18h47q17 0 31 -18l186 -252q6 -9 4 -15t-12 -6z" />
    <glyph glyph-name="Otilde" unicode="&#xd5;" horiz-adv-x="1247" 
d="M252 696q0 -266 35 -370q78 -236 337 -236t337 236q35 104 34 370q0 266 -34 371q-78 236 -337 236t-337 -236q-35 -105 -35 -371zM143 441q-10 87 -10 312t46 363t161 218q114 80 284 79q170 0 284 -80q163 -114 196 -382q10 -87 10 -313t-41 -345q-51 -154 -165 -234
q-114 -79 -284 -79t-284 80q-163 112 -197 381zM733 1696q64 0 125 67q6 6 11 4t5 -10v-61q0 -16 -14 -33q-61 -61 -120 -61t-124 40q-102 63 -164 23q-26 -16 -61 -51q-18 -14 -18 6v61q0 14 16 31q55 62 120 62t126 -39t98 -39z" />
    <glyph glyph-name="Odieresis" unicode="&#xd6;" horiz-adv-x="1247" 
d="M252 696q0 -266 35 -370q78 -236 337 -236t337 236q35 104 34 370q0 266 -34 371q-78 236 -337 236t-337 -236q-35 -105 -35 -371zM143 441q-10 87 -10 312t46 363t161 218q114 80 284 79q170 0 284 -80q163 -114 196 -382q10 -87 10 -313t-41 -345q-51 -154 -165 -234
q-114 -79 -284 -79t-284 80q-163 112 -197 381zM887 1745v-115q0 -20 -21 -20h-80q-20 0 -20 20v115q0 20 20 20h80q21 0 21 -20zM477 1745v-115q0 -20 -20 -20h-80q-20 0 -21 20v115q0 20 21 20h80q20 0 20 -20z" />
    <glyph glyph-name="multiply" unicode="&#xd7;" 
d="M891 848q0 -8 -6 -14l-260 -261q-8 -8 0 -16l260 -260q6 -6 6 -14.5t-6 -14.5l-41 -45q-6 -6 -14.5 -6t-14.5 6l-260 260q-8 8 -16 0l-263 -260q-6 -6 -14 -6t-14 6l-41 45q-6 6 -6 14.5t6 14.5l260 260q8 8 0 16l-260 261q-6 6 -6 14t6 14l41 45q6 6 14 6t14 -6
l263 -260q8 -8 16 0l260 260q6 6 14.5 6t14.5 -6l41 -45q6 -6 6 -14z" />
    <glyph glyph-name="Oslash" unicode="&#xd8;" horiz-adv-x="1247" 
d="M625 90q258 0 336 236q35 104 34.5 371t-27.5 345t-42 101l-551 -965q90 -88 250 -88zM287 1067q-35 -104 -35 -408t70 -411l550 964q-94 90 -247 91q-260 0 -338 -236zM217 -61h-49q-22 0 -12 20l100 176q-90 120 -106.5 256.5t-16.5 359t46 362.5q46 141 161 220.5
t293 79.5t299 -98l67 119q10 20 31 20h49q23 0 13 -20l-103 -179q92 -114 108.5 -252.5t16.5 -364.5t-41 -345q-104 -313 -448 -313q-188 0 -310 98l-67 -119q-10 -20 -31 -20z" />
    <glyph glyph-name="Ugrave" unicode="&#xd9;" horiz-adv-x="1361" 
d="M1300 1372v-61q0 -20 -20 -21h-119q-12 0 -12 -12v-797q0 -245 -123 -373t-345 -128t-345 128t-123 373v797q0 12 -12 12h-119q-20 0 -21 21v61q0 20 21 21h381q20 0 20 -21v-61q0 -20 -20 -21h-121q-12 0 -12 -12v-797q0 -193 91 -292t260 -99t260 99t91 292v797
q0 12 -12 12h-121q-20 0 -20 21v61q0 20 20 21h381q20 -1 20 -21zM739 1565h-53q-20 0 -37 18l-196 215q-6 8 -3 14t11 7h82q23 -1 37 -21l168 -213q8 -8 5 -14t-14 -6z" />
    <glyph glyph-name="Uacute" unicode="&#xda;" horiz-adv-x="1361" 
d="M1300 1372v-61q0 -20 -20 -21h-119q-12 0 -12 -12v-797q0 -245 -123 -373t-345 -128t-345 128t-123 373v797q0 12 -12 12h-119q-20 0 -21 21v61q0 20 21 21h381q20 0 20 -21v-61q0 -20 -20 -21h-121q-12 0 -12 -12v-797q0 -193 91 -292t260 -99t260 99t91 292v797
q0 12 -12 12h-121q-20 0 -20 21v61q0 20 20 21h381q20 -1 20 -21zM670 1565h-54q-10 0 -13 6t5 14l168 213q14 20 37 21h82q22 -2 8 -21l-196 -215q-15 -18 -37 -18z" />
    <glyph glyph-name="Ucircumflex" unicode="&#xdb;" horiz-adv-x="1361" 
d="M1300 1372v-61q0 -20 -20 -21h-119q-12 0 -12 -12v-797q0 -245 -123 -373t-345 -128t-345 128t-123 373v797q0 12 -12 12h-119q-20 0 -21 21v61q0 20 21 21h381q20 0 20 -21v-61q0 -20 -20 -21h-121q-12 0 -12 -12v-797q0 -193 91 -292t260 -99t260 99t91 292v797
q0 12 -12 12h-121q-20 0 -20 21v61q0 20 20 21h381q20 -1 20 -21zM911 1544h-51q-17 0 -35 21l-145 174h-4l-144 -174q-18 -21 -34 -21h-52q-8 0 -11 6t3 15l185 252q12 18 32 18h47q17 0 31 -18l187 -252q6 -9 4 -15t-13 -6z" />
    <glyph glyph-name="Udieresis" unicode="&#xdc;" horiz-adv-x="1361" 
d="M1300 1372v-61q0 -20 -20 -21h-119q-12 0 -12 -12v-797q0 -245 -123 -373t-345 -128t-345 128t-123 373v797q0 12 -12 12h-119q-20 0 -21 21v61q0 20 21 21h381q20 0 20 -21v-61q0 -20 -20 -21h-121q-12 0 -12 -12v-797q0 -193 91 -292t260 -99t260 99t91 292v797
q0 12 -12 12h-121q-20 0 -20 21v61q0 20 20 21h381q20 -1 20 -21zM944 1745v-115q0 -20 -20 -20h-80q-20 0 -21 20v115q0 20 21 20h80q20 0 20 -20zM535 1745v-115q0 -20 -21 -20h-80q-20 0 -20 20v115q0 20 20 20h80q21 0 21 -20z" />
    <glyph glyph-name="Yacute" unicode="&#xdd;" horiz-adv-x="1116" 
d="M1102 1372v-61q0 -20 -21 -21h-65q-10 0 -19 -12l-381 -707v-456q0 -12 13 -13h127q20 0 20 -20v-62q0 -20 -20 -20h-396q-20 0 -20 20v62q0 20 20 20h127q12 0 13 13v456l-383 705q-6 14 -19 14h-63q-20 0 -21 21v61q0 20 21 21h344q20 0 20 -21v-61q0 -20 -20 -21h-119
q-8 0 -11 -5t1 -11l309 -576h4l309 578q5 14 -10 14h-125q-20 0 -20 21v61q0 20 20 21h344q21 -1 21 -21zM565 1565h-53q-10 0 -13 6t5 14l168 213q14 20 37 21h82q22 -2 8 -21l-197 -215q-15 -18 -37 -18z" />
    <glyph glyph-name="Thorn" unicode="&#xde;" horiz-adv-x="1226" 
d="M360 979v-539q0 -12 13 -12h338q154 0 235.5 72.5t81.5 208t-82 209t-235 73.5h-338q-13 0 -13 -12zM516 1372v-61q0 -20 -20 -21h-123q-12 0 -13 -12v-166q0 -10 13 -10h342q199 0 314.5 -105.5t115.5 -288t-116 -287t-314 -104.5h-342q-12 0 -13 -12v-190q0 -12 13 -13
h123q20 0 20 -20v-62q0 -20 -20 -20h-387q-20 0 -21 20v62q0 20 21 20h122q12 0 13 13v1163q0 12 -13 12h-122q-20 0 -21 21v61q0 20 21 21h387q20 -1 20 -21z" />
    <glyph glyph-name="germandbls" unicode="&#xdf;" horiz-adv-x="1144" 
d="M860 1111q0 198 -268 198q-138 0 -202 -67.5t-64 -225.5v-901q0 -12 12 -13h106q20 0 21 -20v-62q0 -20 -21 -20h-356q-20 0 -20 20v62q0 20 20 20h115q12 0 12 13v901q0 199 89.5 298t283.5 99t288.5 -80t94.5 -221q0 -176 -148 -238v-4q104 -39 146 -151
q22 -75 22 -263q-1 -188 -29 -278q-57 -180 -327 -180h-31q-20 0 -20 20v62q0 20 20 20h27q96 0 161.5 36.5t77 127t11.5 220.5t-22 201t-79 100.5t-153 31.5h-23q-20 0 -20 21v65q0 20 20 21h31q117 0 171 45t54 142z" />
    <glyph glyph-name="agrave" unicode="&#xe0;" horiz-adv-x="1060" 
d="M496 463q-277 1 -277 -191t247 -192q122 0 197 60t74 161v150q0 12 -12 12h-229zM846 674v-559q0 -12 12 -13h115q20 0 20 -20v-62q0 -20 -20 -20h-213q-20 0 -21 20v103h-2q-67 -143 -317 -143q-134 0 -222 74t-87 216q0 141 95 214t275 73h244q12 0 12 12v99
q0 125 -53 177t-180 52t-207 -37q-10 -4 -10 -14v-121q0 -20 -21 -20h-67q-20 0 -21 20v176q0 18 15 27q119 70 305 70t267 -73t81 -251zM606 1143h-51q-23 0 -37 20l-180 250q-4 8 -4 10q0 10 14 11h78q21 -1 33 -21l157 -250l5 -10q0 -10 -15 -10z" />
    <glyph glyph-name="aacute" unicode="&#xe1;" horiz-adv-x="1060" 
d="M496 463q-277 1 -277 -191t247 -192q122 0 197 60t74 161v150q0 12 -12 12h-229zM846 674v-559q0 -12 12 -13h115q20 0 20 -20v-62q0 -20 -20 -20h-213q-20 0 -21 20v103h-2q-67 -143 -317 -143q-134 0 -222 74t-87 216q0 141 95 214t275 73h244q12 0 12 12v99
q0 125 -53 177t-180 52t-207 -37q-10 -4 -10 -14v-121q0 -20 -21 -20h-67q-20 0 -21 20v176q0 18 15 27q119 70 305 70t267 -73t81 -251zM510 1143h-51q-23 0 -13 20l158 250q12 20 35 21h78q24 -2 10 -21l-180 -250q-18 -20 -37 -20z" />
    <glyph glyph-name="acircumflex" unicode="&#xe2;" horiz-adv-x="1060" 
d="M496 463q-277 1 -277 -191t247 -192q122 0 197 60t74 161v150q0 12 -12 12h-229zM846 674v-559q0 -12 12 -13h115q20 0 20 -20v-62q0 -20 -20 -20h-213q-20 0 -21 20v103h-2q-67 -143 -317 -143q-134 0 -222 74t-87 216q0 141 95 214t275 73h244q12 0 12 12v99
q0 125 -53 177t-180 52t-207 -37q-10 -4 -10 -14v-121q0 -20 -21 -20h-67q-20 0 -21 20v176q0 18 15 27q119 70 305 70t267 -73t81 -251zM686 1143q-17 0 -35 20l-145 174h-4l-144 -174q-17 -20 -34 -20h-52q-8 0 -11 6t3 14l185 252q12 18 32 19h47q17 0 31 -19l186 -252
q15 -20 -8 -20h-51z" />
    <glyph glyph-name="atilde" unicode="&#xe3;" horiz-adv-x="1060" 
d="M496 463q-277 1 -277 -191t247 -192q122 0 197 60t74 161v150q0 12 -12 12h-229zM846 674v-559q0 -12 12 -13h115q20 0 20 -20v-62q0 -20 -20 -20h-213q-20 0 -21 20v103h-2q-67 -143 -317 -143q-134 0 -222 74t-87 216q0 141 95 214t275 73h244q12 0 12 12v99
q0 125 -53 177t-180 52t-207 -37q-10 -4 -10 -14v-121q0 -20 -21 -20h-67q-20 0 -21 20v176q0 18 15 27q119 70 305 70t267 -73t81 -251zM612 1315q64 0 125 67q5 6 11 4t6 -10v-61q0 -16 -15 -33q-61 -61 -120 -61t-124 40q-102 63 -164 23q-26 -16 -61 -51q-18 -14 -18 6
v61q0 14 16 31q55 61 120 61t126 -38q61 -39 98 -39z" />
    <glyph glyph-name="adieresis" unicode="&#xe4;" horiz-adv-x="1060" 
d="M496 463q-277 1 -277 -191t247 -192q122 0 197 60t74 161v150q0 12 -12 12h-229zM846 674v-559q0 -12 12 -13h115q20 0 20 -20v-62q0 -20 -20 -20h-213q-20 0 -21 20v103h-2q-67 -143 -317 -143q-134 0 -222 74t-87 216q0 141 95 214t275 73h244q12 0 12 12v99
q0 125 -53 177t-180 52t-207 -37q-10 -4 -10 -14v-121q0 -20 -21 -20h-67q-20 0 -21 20v176q0 18 15 27q119 70 305 70t267 -73t81 -251zM768 1372v-115q0 -20 -20 -20h-82q-20 0 -21 20v115q0 20 21 21h82q20 -1 20 -21zM360 1372v-115q0 -20 -20 -20h-82q-20 0 -20 20v115
q0 20 20 21h82q20 -1 20 -21z" />
    <glyph glyph-name="aring" unicode="&#xe5;" horiz-adv-x="1060" 
d="M496 463q-277 1 -277 -191t247 -192q122 0 197 60t74 161v150q0 12 -12 12h-229zM846 674v-559q0 -12 12 -13h115q20 0 20 -20v-62q0 -20 -20 -20h-213q-20 0 -21 20v103h-2q-67 -143 -317 -143q-134 0 -222 74t-87 216q0 141 95 214t275 73h244q12 0 12 12v99
q0 125 -53 177t-180 52t-207 -37q-10 -4 -10 -14v-121q0 -20 -21 -20h-67q-20 0 -21 20v176q0 18 15 27q119 70 305 70t267 -73t81 -251zM397 1288q0 -49 30 -82q30 -32 79 -32t79 32t29 82q0 49 -29 82q-30 33 -79 33t-79 -33t-30 -82zM686 1288q0 -78 -51 -129t-129 -51
t-129 51t-51 129t51 129t129 51t129 -51t51 -129z" />
    <glyph glyph-name="ae" unicode="&#xe6;" horiz-adv-x="1638" 
d="M219 274q0 -192 242 -192q127 0 203.5 59.5t76.5 159.5v150q0 12 -12 12h-233q-144 0 -210.5 -46.5t-66.5 -142.5zM850 569q0 -12 12 -12h535q12 0 12 12q0 200 -91 263t-187.5 63t-165 -47t-97.5 -137q-18 -49 -18 -142zM1522 483q0 -20 -23 -20h-637q-12 0 -12 -14
q0 -111 26 -190t97 -126t174 -47q172 0 272 125q12 16 29 4l47 -43q14 -12 2 -29q-122 -163 -356 -163q-125 0 -211 51t-131 139h-2q-80 -190 -359 -190q-152 0 -239.5 74.5t-87.5 215.5t95 214t275 73h248q12 0 12 12v97q0 125 -54 178t-178 53t-212 -37q-10 -4 -10 -14
v-121q0 -20 -21 -20h-67q-20 0 -21 20v178q0 18 15 25q128 69 305 69q270 0 319 -163h2q93 163 311 163q134 0 248.5 -79t129 -207.5t14.5 -227.5z" />
    <glyph glyph-name="ccedilla" unicode="&#xe7;" horiz-adv-x="970" 
d="M842 899v-188q0 -20 -21 -21h-67q-20 0 -21 21v125q0 24 -70.5 39.5t-154.5 15.5t-153.5 -47t-97.5 -131q-28 -85 -28 -227t27 -220q59 -180 274 -180q129 0 195 37q8 6 8 14v121q0 20 21 21h67q20 0 21 -21v-184q0 -16 -17 -25q-106 -63 -264 -69l-86 -263
q-7 -20 -33 -20h-63q-22 0 -14 20l104 267q-250 25 -322 245q-31 98 -31 255q0 156 36 268q34 112 132.5 178.5t218.5 66.5q212 0 324 -73q15 -15 15 -25z" />
    <glyph glyph-name="egrave" unicode="&#xe8;" horiz-adv-x="1015" 
d="M242 557h534q12 0 12 12q0 200 -115 279q-69 47 -165 47t-164 -47q-68 -46 -91 -120t-24 -159q0 -12 13 -12zM901 483q0 -20 -22 -20h-637q-12 0 -13 -14q0 -111 27 -189q28 -78 98 -126t172 -48q172 0 273 125q12 16 28 4l47 -43q14 -12 3 -29q-118 -163 -370 -163
q-130 0 -225 66t-137 192q-29 84 -29 248t34 272t130 174t229 66q134 0 229 -66q132 -92 157 -293q6 -57 6 -156zM567 1143h-51q-23 0 -37 20l-180 250q-4 8 -4 10q0 10 14 11h78q21 -1 33 -21l158 -250l4 -10q0 -10 -15 -10z" />
    <glyph glyph-name="eacute" unicode="&#xe9;" horiz-adv-x="1015" 
d="M242 557h534q12 0 12 12q0 200 -115 279q-69 47 -165 47t-164 -47q-68 -46 -91 -120t-24 -159q0 -12 13 -12zM901 483q0 -20 -22 -20h-637q-12 0 -13 -14q0 -111 27 -189q28 -78 98 -126t172 -48q172 0 273 125q12 16 28 4l47 -43q14 -12 3 -29q-118 -163 -370 -163
q-130 0 -225 66t-137 192q-29 84 -29 248t34 272t130 174t229 66q134 0 229 -66q132 -92 157 -293q6 -57 6 -156zM506 1143h-51q-23 0 -13 20l158 250q12 20 35 21h78q24 -2 10 -21l-180 -250q-18 -20 -37 -20z" />
    <glyph glyph-name="ecircumflex" unicode="&#xea;" horiz-adv-x="1015" 
d="M242 557h534q12 0 12 12q0 200 -115 279q-69 47 -165 47t-164 -47q-68 -46 -91 -120t-24 -159q0 -12 13 -12zM901 483q0 -20 -22 -20h-637q-12 0 -13 -14q0 -111 27 -189q28 -78 98 -126t172 -48q172 0 273 125q12 16 28 4l47 -43q14 -12 3 -29q-118 -163 -370 -163
q-130 0 -225 66t-137 192q-29 84 -29 248t34 272t130 174t229 66q134 0 229 -66q132 -92 157 -293q6 -57 6 -156zM688 1143q-17 0 -35 20l-145 174h-4l-144 -174q-17 -20 -34 -20h-52q-8 0 -11 6t3 14l185 252q12 18 32 19h47q17 0 31 -19l187 -252q15 -20 -9 -20h-51z" />
    <glyph glyph-name="edieresis" unicode="&#xeb;" horiz-adv-x="1015" 
d="M242 557h534q12 0 12 12q0 200 -115 279q-69 47 -165 47t-164 -47q-68 -46 -91 -120t-24 -159q0 -12 13 -12zM901 483q0 -20 -22 -20h-637q-12 0 -13 -14q0 -111 27 -189q28 -78 98 -126t172 -48q172 0 273 125q12 16 28 4l47 -43q14 -12 3 -29q-118 -163 -370 -163
q-130 0 -225 66t-137 192q-29 84 -29 248t34 272t130 174t229 66q134 0 229 -66q132 -92 157 -293q6 -57 6 -156zM772 1372v-115q0 -20 -20 -20h-82q-20 0 -21 20v115q0 20 21 21h82q20 -1 20 -21zM365 1372v-115q0 -20 -21 -20h-82q-20 0 -20 20v115q0 20 20 21h82
q21 -1 21 -21z" />
    <glyph glyph-name="igrave" unicode="&#xec;" horiz-adv-x="575" 
d="M346 956v-841q0 -12 12 -13h115q20 0 21 -20v-62q0 -20 -21 -20h-364q-20 0 -21 20v62q0 20 21 20h114q12 0 13 13v747q0 12 -13 12h-114q-20 0 -21 21v61q0 20 21 21h217q20 -1 20 -21zM328 1143h-52q-23 0 -36 20l-181 250q-4 8 -4 10q0 10 15 11h77q21 -1 33 -21
l158 -250l4 -10q0 -10 -14 -10z" />
    <glyph glyph-name="iacute" unicode="&#xed;" horiz-adv-x="575" 
d="M346 956v-841q0 -12 12 -13h115q20 0 21 -20v-62q0 -20 -21 -20h-364q-20 0 -21 20v62q0 20 21 20h114q12 0 13 13v747q0 12 -13 12h-114q-20 0 -21 21v61q0 20 21 21h217q20 -1 20 -21zM303 1143h-51q-22 0 -12 20l157 250q12 20 35 21h78q24 -2 10 -21l-180 -250
q-18 -20 -37 -20z" />
    <glyph glyph-name="icircumflex" unicode="&#xee;" horiz-adv-x="575" 
d="M346 956v-841q0 -12 12 -13h115q20 0 21 -20v-62q0 -20 -21 -20h-364q-20 0 -21 20v62q0 20 21 20h114q12 0 13 13v747q0 12 -13 12h-114q-20 0 -21 21v61q0 20 21 21h217q20 -1 20 -21zM459 1143q-18 0 -35 20l-145 174h-5l-143 -174q-17 -20 -35 -20h-51q-8 0 -11 6
t3 14l184 252q12 18 33 19h47q15 0 31 -19l186 -252q15 -20 -8 -20h-51z" />
    <glyph glyph-name="idieresis" unicode="&#xef;" horiz-adv-x="575" 
d="M346 956v-841q0 -12 12 -13h115q20 0 21 -20v-62q0 -20 -21 -20h-364q-20 0 -21 20v62q0 20 21 20h114q12 0 13 13v747q0 12 -13 12h-114q-20 0 -21 21v61q0 20 21 21h217q20 -1 20 -21zM543 1372v-115q0 -20 -21 -20h-82q-20 0 -20 20v115q0 20 20 21h82q21 -1 21 -21z
M135 1372v-115q0 -20 -20 -20h-82q-20 0 -21 20v115q0 20 21 21h82q20 -1 20 -21z" />
    <glyph glyph-name="eth" unicode="&#xf0;" horiz-adv-x="1030" 
d="M229 477q0 -133 28 -216t95.5 -130t162.5 -47t190.5 66.5t95.5 324.5t-96.5 326.5t-190.5 68.5t-161.5 -47t-95.5 -130t-28 -216zM474 975q109 0 194 -57h4l-183 223l-194 -60l-8 -2q-14 0 -19 17l-14 49v6q0 12 16 18l162 48l-125 155q-4 8 -4 10q0 10 14 11h84
q21 -1 37 -21l99 -121l192 58l8 2q14 0 19 -15l14 -51v-6q0 -12 -14 -18l-158 -47l74 -91q131 -162 186 -292.5t55 -294.5q1 -164 -35 -274t-132.5 -176t-231.5 -66t-229.5 66.5t-130.5 175.5t-37 260q1 150 35 256t123.5 171.5t198.5 65.5z" />
    <glyph glyph-name="ntilde" unicode="&#xf1;" horiz-adv-x="1189" 
d="M969 625v-510q0 -12 12 -13h113q20 0 20 -20v-62q0 -20 -20 -20h-363q-20 0 -20 20v62q0 20 20 20h115q12 0 12 13v483q0 293 -252 293q-112 0 -186 -74t-74 -199v-503q0 -12 12 -13h115q20 0 21 -20v-62q0 -20 -21 -20h-364q-20 0 -21 20v62q0 20 21 20h114q12 0 13 13
v747q0 12 -13 12h-114q-20 0 -21 21v61q0 20 21 21h217q20 0 20 -21v-116h2q37 74 110 116t173 41q162 0 250 -97t88 -275zM704 1315q63 0 125 67q5 6 11 4t6 -10v-61q0 -16 -15 -33q-61 -61 -120 -61t-124 40q-102 63 -164 23q-26 -16 -61 -51q-18 -14 -18 6v61q0 14 16 31
q55 61 120 61t126 -38q60 -39 98 -39z" />
    <glyph glyph-name="ograve" unicode="&#xf2;" horiz-adv-x="1030" 
d="M229 488q0 -140 28 -224q27 -84 95 -131t163 -47t163 47t96 131t27 224q0 140 -28 224t-95 132q-68 47 -163 47t-163 -47t-96 -131q-28 -85 -27 -225zM117 488q0 152 36 264t132 179t230 67t230 -67q97 -67 133 -179t36 -264t-36 -264t-132 -178t-231 -66q-134 0 -230 66
t-132 179q-36 112 -36 263zM567 1143h-51q-23 0 -37 20l-180 250q-4 8 -4 10q0 10 14 11h78q21 -1 33 -21l158 -250l4 -10q0 -10 -15 -10z" />
    <glyph glyph-name="oacute" unicode="&#xf3;" horiz-adv-x="1030" 
d="M229 488q0 -140 28 -224q27 -84 95 -131t163 -47t163 47t96 131t27 224q0 140 -28 224t-95 132q-68 47 -163 47t-163 -47t-96 -131q-28 -85 -27 -225zM117 488q0 152 36 264t132 179t230 67t230 -67q97 -67 133 -179t36 -264t-36 -264t-132 -178t-231 -66q-134 0 -230 66
t-132 179q-36 112 -36 263zM512 1143h-51q-10 0 -14 6q-3 6 2 14l157 250q12 20 35 21h78q24 -2 10 -21l-180 -250q-18 -20 -37 -20z" />
    <glyph glyph-name="ocircumflex" unicode="&#xf4;" horiz-adv-x="1030" 
d="M229 488q0 -140 28 -224q27 -84 95 -131t163 -47t163 47t96 131t27 224q0 140 -28 224t-95 132q-68 47 -163 47t-163 -47t-96 -131q-28 -85 -27 -225zM117 488q0 152 36 264t132 179t230 67t230 -67q97 -67 133 -179t36 -264t-36 -264t-132 -178t-231 -66q-134 0 -230 66
t-132 179q-36 112 -36 263zM694 1143q-17 0 -35 20l-145 174h-4l-143 -174q-17 -20 -35 -20h-51q-8 0 -12 6q-3 6 3 14l185 252q12 18 32 19h48q16 0 30 -19l187 -252q15 -20 -9 -20h-51z" />
    <glyph glyph-name="otilde" unicode="&#xf5;" horiz-adv-x="1030" 
d="M229 488q0 -140 28 -224q27 -84 95 -131t163 -47t163 47t96 131t27 224q0 140 -28 224t-95 132q-68 47 -163 47t-163 -47t-96 -131q-28 -85 -27 -225zM117 488q0 152 36 264t132 179t230 67t230 -67q97 -67 133 -179t36 -264t-36 -264t-132 -178t-231 -66q-134 0 -230 66
t-132 179q-36 112 -36 263zM724 1357q40 42 40 19v-61q0 -16 -14 -33q-61 -61 -121 -61t-124 40q-102 63 -164 23q-26 -16 -60 -51q-19 -14 -19 6v61q0 14 17 31q55 61 119 61t126 -38q61 -39 111 -39q49 0 89 42z" />
    <glyph glyph-name="odieresis" unicode="&#xf6;" horiz-adv-x="1030" 
d="M229 488q0 -140 28 -224q27 -84 95 -131t163 -47t163 47t96 131t27 224q0 140 -28 224t-95 132q-68 47 -163 47t-163 -47t-96 -131q-28 -85 -27 -225zM117 488q0 152 36 264t132 179t230 67t230 -67q97 -67 133 -179t36 -264t-36 -264t-132 -178t-231 -66q-134 0 -230 66
t-132 179q-36 112 -36 263zM778 1372v-115q0 -20 -20 -20h-82q-20 0 -21 20v115q0 20 21 21h82q20 -1 20 -21zM371 1372v-115q0 -20 -21 -20h-82q-20 0 -20 20v115q0 20 20 21h82q21 -1 21 -21z" />
    <glyph glyph-name="divide" unicode="&#xf7;" 
d="M633 264q0 -37 -25.5 -62.5t-62.5 -25.5t-62.5 25.5t-25.5 62.5t25.5 62.5t62.5 25.5t62.5 -25.5t25.5 -62.5zM954 596v-61q0 -20 -20 -21h-778q-20 0 -21 21v61q0 20 21 20h778q20 0 20 -20zM633 866q0 -37 -25.5 -62.5t-62.5 -25.5t-62.5 25.5t-25.5 62.5t25.5 62.5
t62.5 25.5t62.5 -25.5t25.5 -62.5z" />
    <glyph glyph-name="oslash" unicode="&#xf8;" horiz-adv-x="1030" 
d="M506 86q209 0 268 182q27 80 27 247t-56 257l-415 -620q72 -66 176 -66zM229 488q-1 -140 19 -198t37 -85l415 620q-72 66 -176 66t-171.5 -47t-95.5 -131q-28 -85 -28 -225zM508 -20q-141 0 -240 79l-67 -100q-14 -20 -35 -20h-35q-8 0 -11 6t1 14l96 147
q-100 127 -100 383q0 151 36 263t132 178.5t235 66.5t242 -79l67 100q14 20 35 20h35q8 0 11 -6t-1 -14l-98 -150q104 -118 102 -379q1 -153 -35 -265t-132.5 -178t-237.5 -66z" />
    <glyph glyph-name="ugrave" unicode="&#xf9;" horiz-adv-x="1165" 
d="M319 379q0 -293 248 -293q113 0 186 74t72 196v506q0 12 -12 12h-115q-20 0 -20 21v61q0 20 20 21h217q21 -1 21 -21v-841q0 -12 12 -13h115q20 0 20 -20v-62q0 -20 -20 -20h-217q-20 0 -21 20v115h-2q-37 -74 -111 -115t-169 -40q-160 0 -247 96t-87 274v512
q0 12 -12 12h-115q-20 0 -21 21v61q0 20 21 21h217q20 0 20 -21v-577zM621 1143h-52q-23 0 -37 20l-180 250q-4 8 -4 10q0 10 14 11h78q21 -1 33 -21l158 -250l4 -10q0 -10 -14 -10z" />
    <glyph glyph-name="uacute" unicode="&#xfa;" horiz-adv-x="1165" 
d="M319 379q0 -293 248 -293q113 0 186 74t72 196v506q0 12 -12 12h-115q-20 0 -20 21v61q0 20 20 21h217q21 -1 21 -21v-841q0 -12 12 -13h115q20 0 20 -20v-62q0 -20 -20 -20h-217q-20 0 -21 20v115h-2q-37 -74 -111 -115t-169 -40q-160 0 -247 96t-87 274v512
q0 12 -12 12h-115q-20 0 -21 21v61q0 20 21 21h217q20 0 20 -21v-577zM555 1143h-51q-10 0 -14 6q-3 6 2 14l157 250q12 20 35 21h78q24 -2 10 -21l-180 -250q-18 -20 -37 -20z" />
    <glyph glyph-name="ucircumflex" unicode="&#xfb;" horiz-adv-x="1165" 
d="M319 379q0 -293 248 -293q113 0 186 74t72 196v506q0 12 -12 12h-115q-20 0 -20 21v61q0 20 20 21h217q21 -1 21 -21v-841q0 -12 12 -13h115q20 0 20 -20v-62q0 -20 -20 -20h-217q-20 0 -21 20v115h-2q-37 -74 -111 -115t-169 -40q-160 0 -247 96t-87 274v512
q0 12 -12 12h-115q-20 0 -21 21v61q0 20 21 21h217q20 0 20 -21v-577zM793 1143h-52q-17 0 -34 20l-146 174h-4l-143 -174q-17 -20 -35 -20h-51q-8 0 -12 6q-3 6 3 14l185 252q12 18 33 19h47q16 0 30 -19l187 -252q15 -20 -8 -20z" />
    <glyph glyph-name="udieresis" unicode="&#xfc;" horiz-adv-x="1165" 
d="M319 379q0 -293 248 -293q113 0 186 74t72 196v506q0 12 -12 12h-115q-20 0 -20 21v61q0 20 20 21h217q21 -1 21 -21v-841q0 -12 12 -13h115q20 0 20 -20v-62q0 -20 -20 -20h-217q-20 0 -21 20v115h-2q-37 -74 -111 -115t-169 -40q-160 0 -247 96t-87 274v512
q0 12 -12 12h-115q-20 0 -21 21v61q0 20 21 21h217q20 0 20 -21v-577zM825 1372v-115q0 -20 -20 -20h-82q-20 0 -21 20v115q0 20 21 21h82q20 -1 20 -21zM418 1372v-115q0 -20 -21 -20h-82q-20 0 -20 20v115q0 20 20 21h82q21 -1 21 -21z" />
    <glyph glyph-name="yacute" unicode="&#xfd;" horiz-adv-x="991" 
d="M977 956v-61q0 -20 -21 -21h-63q-12 0 -16 -12l-367 -958q-75 -203 -169 -250q-46 -23 -112 -23h-43q-20 0 -20 21v65q0 20 20 21h37q66 0 105 37t80 145l38 100l-327 842q-4 12 -17 12h-63q-20 0 -21 21v61q0 20 21 21h311q20 0 21 -21v-61q0 -20 -21 -21h-102
q-14 0 -8 -16l260 -692h4l258 692q6 16 -8 16h-101q-20 0 -20 21v61q0 20 20 21h303q21 -1 21 -21zM500 1143h-51q-23 0 -13 20l158 250q12 20 35 21h78q24 -2 10 -21l-180 -250q-18 -20 -37 -20z" />
    <glyph glyph-name="thorn" unicode="&#xfe;" horiz-adv-x="1128" 
d="M346 488q0 -154 27 -234t91 -124t160 -44q191 0 248 172q27 80 27 230t-28 233q-58 170 -248 170q-95 0 -160 -44t-91 -125t-26 -234zM346 1372v-534h2q84 160 295 159q256 0 334 -233q35 -113 35 -276t-35 -275q-78 -233 -334 -233q-213 0 -295 159h-2v-393
q0 -12 12 -12h115q20 0 21 -21v-61q0 -20 -21 -21h-364q-20 0 -21 21v61q0 20 21 21h114q12 0 13 12v1532q0 12 -13 12h-114q-20 0 -21 21v61q0 20 21 21h217q20 -1 20 -21z" />
    <glyph glyph-name="ydieresis" unicode="&#xff;" horiz-adv-x="991" 
d="M977 956v-61q0 -20 -21 -21h-63q-12 0 -16 -12l-367 -958q-75 -203 -169 -250q-46 -23 -112 -23h-43q-20 0 -20 21v65q0 20 20 21h37q66 0 105 37t80 145l38 100l-327 842q-4 12 -17 12h-63q-20 0 -21 21v61q0 20 21 21h311q20 0 21 -21v-61q0 -20 -21 -21h-102
q-14 0 -8 -16l260 -692h4l258 692q6 16 -8 16h-101q-20 0 -20 21v61q0 20 20 21h303q21 -1 21 -21zM764 1372v-115q0 -20 -21 -20h-81q-20 0 -21 20v115q0 20 21 21h81q21 -1 21 -21zM356 1372v-115q0 -20 -20 -20h-82q-20 0 -21 20v115q0 20 21 21h82q20 -1 20 -21z" />
    <glyph glyph-name="Amacron" unicode="&#x100;" horiz-adv-x="1265" 
d="M387 528h492l-242 691h-4zM1237 102q20 0 20 -20v-62q0 -20 -20 -20h-338q-20 0 -20 20v62q0 20 20 20h115q16 0 10 15l-106 301h-570l-106 -301q-6 -14 10 -15h115q20 0 20 -20v-62q0 -20 -20 -20h-338q-20 0 -21 20v62q0 20 21 20h73q12 0 17 13l450 1257q6 20 25 21
h84q18 -1 24 -21l447 -1257q4 -12 16 -13h72zM901 1712v-53q0 -20 -20 -21h-492q-20 0 -20 21v53q0 20 20 21h492q20 -1 20 -21z" />
    <glyph glyph-name="amacron" unicode="&#x101;" horiz-adv-x="1060" 
d="M496 463q-277 1 -277 -191t247 -192q122 0 197 60t74 161v150q0 12 -12 12h-229zM846 674v-559q0 -12 12 -13h115q20 0 20 -20v-62q0 -20 -20 -20h-213q-20 0 -21 20v103h-2q-67 -143 -317 -143q-134 0 -222 74t-87 216q0 141 95 214t275 73h244q12 0 12 12v99
q0 125 -53 177t-180 52t-207 -37q-10 -4 -10 -14v-121q0 -20 -21 -20h-67q-20 0 -21 20v176q0 18 15 27q119 70 305 70t267 -73t81 -251zM770 1339v-53q0 -20 -20 -20h-492q-20 0 -20 20v53q0 20 20 21h492q20 -1 20 -21z" />
    <glyph glyph-name="Abreve" unicode="&#x102;" horiz-adv-x="1265" 
d="M387 528h492l-242 691h-4zM1237 102q20 0 20 -20v-62q0 -20 -20 -20h-338q-20 0 -20 20v62q0 20 20 20h115q16 0 10 15l-106 301h-570l-106 -301q-6 -14 10 -15h115q20 0 20 -20v-62q0 -20 -20 -20h-338q-20 0 -21 20v62q0 20 21 20h73q12 0 17 13l450 1257q6 20 25 21
h84q18 -1 24 -21l447 -1257q4 -12 16 -13h72zM635 1573q-104 0 -173 58t-81 153v4q0 16 18 16h39q18 0 25 -20q35 -121 173 -121t175 121q7 20 23 20h38q24 0 19 -20q-14 -94 -83 -152t-173 -59z" />
    <glyph glyph-name="abreve" unicode="&#x103;" horiz-adv-x="1060" 
d="M496 463q-277 1 -277 -191t247 -192q122 0 197 60t74 161v150q0 12 -12 12h-229zM846 674v-559q0 -12 12 -13h115q20 0 20 -20v-62q0 -20 -20 -20h-213q-20 0 -21 20v103h-2q-67 -143 -317 -143q-134 0 -222 74t-87 216q0 141 95 214t275 73h244q12 0 12 12v99
q0 125 -53 177t-180 52t-207 -37q-10 -4 -10 -14v-121q0 -20 -21 -20h-67q-20 0 -21 20v176q0 18 15 27q119 70 305 70t267 -73t81 -251zM246 1384q0 16 18 17h39q18 0 25 -21q33 -123 172 -123t176 123q6 20 22 21h39q24 0 19 -21q-14 -96 -83 -154t-172 -58t-173 58
q-70 60 -82 154v4z" />
    <glyph glyph-name="Aogonek" unicode="&#x104;" horiz-adv-x="1265" 
d="M387 528h492l-242 691h-4zM805 -199q0 -57 59 -57q26 0 46 11t26 11t12 -10l23 -43l2 -8q0 -8 -15 -21t-47.5 -24.5t-80.5 -11.5t-86.5 36.5t-38.5 102.5q0 115 174 229v66q0 20 20 20h115q16 0 10 15l-106 301h-570l-106 -301q-6 -14 10 -15h115q20 0 20 -20v-62
q0 -20 -20 -20h-338q-20 0 -21 20v62q0 20 21 20h73q12 0 17 13l450 1257q6 20 25 21h84q18 -1 24 -21l447 -1257q4 -12 16 -13h72q20 0 20 -20v-62q0 -20 -20 -20h-262q-100 -72 -135 -117t-35 -82z" />
    <glyph glyph-name="aogonek" unicode="&#x105;" horiz-adv-x="1060" 
d="M219 274q0 -194 247 -194q122 0 196.5 60.5t74.5 160.5v150q0 12 -12 12h-229q-144 0 -210.5 -46.5t-66.5 -142.5zM737 123q-67 -143 -317 -143q-134 0 -221.5 74.5t-87.5 215.5t95 214t275 73h244q12 0 12 12v99q0 125 -53 177t-180 52t-207 -37q-10 -4 -10 -14v-121
q0 -20 -21 -20h-67q-20 0 -21 20v176q0 18 15 27q119 69 305 69t267 -72.5t81 -250.5v-559q0 -12 12 -13h115q20 0 20 -20v-62q0 -20 -20 -20h-131q-100 -72 -135 -117t-35 -82q0 -57 59 -57q27 0 46 11t25 11t13 -10l23 -43l2 -8q0 -8 -16 -21t-47.5 -24.5t-79.5 -11.5
t-87 37t-39 97t36 111.5t132 120.5v109h-2z" />
    <glyph glyph-name="Cacute" unicode="&#x106;" horiz-adv-x="1183" 
d="M1055 1268v-215q0 -20 -21 -21h-69q-20 0 -21 21v153q0 12 -10 21q-108 76 -285 76q-281 0 -360 -234q-37 -118 -37 -326q0 -209 8 -291q21 -218 154 -304q90 -58 210 -58q218 0 310 66q10 6 10 20v160q0 20 21 20h69q20 0 21 -20v-217q0 -20 -15 -33
q-150 -108 -393 -106q-377 0 -477 305q-37 117 -37 348t10 318q31 272 201 383q119 79 299 79q246 0 395 -113q17 -14 17 -32zM618 1565h-53q-10 0 -13 6t5 14l168 213q14 20 37 21h82q22 -2 8 -21l-197 -215q-15 -18 -37 -18z" />
    <glyph glyph-name="cacute" unicode="&#x107;" horiz-adv-x="970" 
d="M842 899v-188q0 -20 -21 -21h-67q-20 0 -21 21v125q-1 23 -71 39t-154 16t-154 -47t-98 -131q-28 -85 -27 -227q0 -142 27 -220q59 -180 274 -180q129 0 195 37q8 6 8 14v121q0 20 21 21h67q20 0 21 -21v-184q0 -16 -17 -25q-117 -70 -297 -69q-299 0 -381 249
q-31 98 -31 255q0 156 36 268q34 112 132 179t267 67q168 0 276 -74q15 -15 15 -25zM500 1143h-51q-23 0 -13 20l158 250q12 20 35 21h78q24 -2 10 -21l-180 -250q-18 -20 -37 -20z" />
    <glyph glyph-name="Ccircumflex" unicode="&#x108;" horiz-adv-x="1183" 
d="M1055 1268v-215q0 -20 -21 -21h-69q-20 0 -21 21v153q0 12 -10 21q-108 76 -285 76q-281 0 -360 -234q-37 -118 -37 -326q0 -209 8 -291q21 -218 154 -304q90 -58 210 -58q218 0 310 66q10 6 10 20v160q0 20 21 20h69q20 0 21 -20v-217q0 -20 -15 -33
q-150 -108 -393 -106q-377 0 -477 305q-37 117 -37 348t10 318q31 272 201 383q119 79 299 79q246 0 395 -113q17 -14 17 -32zM877 1544h-52q-18 0 -34 21l-146 174h-4l-143 -174q-17 -21 -35 -21h-51q-8 0 -12 6q-3 6 3 15l185 252q12 18 33 18h47q16 0 30 -18l187 -252
q6 -9 4 -15t-12 -6z" />
    <glyph glyph-name="ccircumflex" unicode="&#x109;" horiz-adv-x="970" 
d="M842 899v-188q0 -20 -21 -21h-67q-20 0 -21 21v125q-1 23 -71 39t-154 16t-154 -47t-98 -131q-28 -85 -27 -227q0 -142 27 -220q59 -180 274 -180q129 0 195 37q8 6 8 14v121q0 20 21 21h67q20 0 21 -21v-184q0 -16 -17 -25q-117 -70 -297 -69q-299 0 -381 249
q-31 98 -31 255q0 156 36 268q34 112 132 179t267 67q168 0 276 -74q15 -15 15 -25zM700 1143q-17 0 -34 20l-146 174h-4l-143 -174q-17 -20 -35 -20h-51q-8 0 -12 6q-3 6 4 14l184 252q12 18 33 19h47q16 0 30 -19l187 -252q15 -20 -8 -20h-52z" />
    <glyph glyph-name="Cdotaccent" unicode="&#x10a;" horiz-adv-x="1183" 
d="M1055 1268v-215q0 -20 -21 -21h-69q-20 0 -21 21v153q0 12 -10 21q-108 76 -285 76q-281 0 -360 -234q-37 -118 -37 -326q0 -209 8 -291q21 -218 154 -304q90 -58 210 -58q218 0 310 66q10 6 10 20v160q0 20 21 20h69q20 0 21 -20v-217q0 -20 -15 -33
q-150 -108 -393 -106q-377 0 -477 305q-37 117 -37 348t10 318q31 272 201 383q119 79 299 79q246 0 395 -113q17 -14 17 -32zM709 1745v-115q0 -20 -21 -20h-90q-20 0 -20 20v115q0 20 20 20h90q21 0 21 -20z" />
    <glyph glyph-name="cdotaccent" unicode="&#x10b;" horiz-adv-x="970" 
d="M842 899v-188q0 -20 -21 -21h-67q-20 0 -21 21v125q-1 23 -71 39t-154 16t-154 -47t-98 -131q-28 -85 -27 -227q0 -142 27 -220q59 -180 274 -180q129 0 195 37q8 6 8 14v121q0 20 21 21h67q20 0 21 -21v-184q0 -16 -17 -25q-117 -70 -297 -69q-299 0 -381 249
q-31 98 -31 255q0 156 36 268q34 112 132 179t267 67q168 0 276 -74q15 -15 15 -25zM582 1372v-115q0 -20 -21 -20h-90q-20 0 -20 20v115q0 20 20 21h90q21 -1 21 -21z" />
    <glyph glyph-name="Ccaron" unicode="&#x10c;" horiz-adv-x="1183" 
d="M1055 1268v-215q0 -20 -21 -21h-69q-20 0 -21 21v153q0 12 -10 21q-108 76 -285 76q-281 0 -360 -234q-37 -118 -37 -326q0 -209 8 -291q21 -218 154 -304q90 -58 210 -58q218 0 310 66q10 6 10 20v160q0 20 21 20h69q20 0 21 -20v-217q0 -20 -15 -33
q-150 -108 -393 -106q-377 0 -477 305q-37 117 -37 348t10 318q31 272 201 383q119 79 299 79q246 0 395 -113q17 -14 17 -32zM668 1544h-47q-20 0 -33 19l-185 249q-6 8 -3 14t12 7h51q17 0 35 -21l143 -174h4l146 174q18 21 34 21h52q22 0 8 -21l-187 -249
q-15 -19 -30 -19z" />
    <glyph glyph-name="ccaron" unicode="&#x10d;" horiz-adv-x="970" 
d="M842 899v-188q0 -20 -21 -21h-67q-20 0 -21 21v125q-1 23 -71 39t-154 16t-154 -47t-98 -131q-28 -85 -27 -227q0 -142 27 -220q59 -180 274 -180q129 0 195 37q8 6 8 14v121q0 20 21 21h67q20 0 21 -21v-184q0 -16 -17 -25q-117 -70 -297 -69q-299 0 -381 249
q-31 98 -31 255q0 156 36 268q34 112 132 179t267 67q168 0 276 -74q15 -15 15 -25zM541 1143h-47q-20 0 -33 18l-185 250q-14 18 9 21h51q16 0 35 -21l143 -174h4l146 174q16 20 34 21h52q22 -2 8 -21l-187 -250q-14 -18 -30 -18z" />
    <glyph glyph-name="Dcaron" unicode="&#x10e;" horiz-adv-x="1314" 
d="M360 1270v-1147q0 -12 13 -12h291q277 0 350 208q31 92 32 319q1 226 -7 304q-19 211 -149 289q-87 51 -226 51h-291q-13 0 -13 -12zM1163 696q0 -182 -8 -266q-41 -430 -473 -430h-573q-20 0 -21 20v62q0 20 21 20h122q12 0 13 13v1163q0 12 -13 12h-122q-20 0 -21 21
v61q0 20 21 21h573q352 0 444 -283q20 -63 28 -147q8 -85 9 -267zM666 1544h-48q-20 0 -32 19l-185 249q-6 8 -3 14t12 7h51q17 0 35 -21l143 -174h4l145 174q18 21 35 21h51q23 0 9 -21l-187 -249q-15 -19 -30 -19z" />
    <glyph glyph-name="dcaron" unicode="&#x10f;" horiz-adv-x="1128" 
d="M506 891q-191 0 -249 -170q-28 -82 -28 -233q0 -150 28 -232q58 -170 249 -170q94 0 159 44t91 125t26 233t-26 234q-26 81 -91 125t-159 44zM893 1372v-1257q0 -12 12 -13h115q20 0 20 -20v-62q0 -20 -20 -20h-217q-20 0 -21 20v119h-2q-82 -160 -295 -159
q-256 0 -333 233q-35 104 -35 275t35 276q76 233 329 233q219 0 299 -159h2v440q0 12 -12 12h-115q-20 0 -20 21v61q0 20 20 21h217q21 -1 21 -21zM1100 1372v-98q0 -23 -10 -43l-66 -117q-8 -18 -24 -18t-17 20v256q0 20 21 21h75q21 -1 21 -21z" />
    <glyph glyph-name="Dcroat" unicode="&#x110;" horiz-adv-x="1314" 
d="M360 1270v-500q0 -12 13 -12h266q20 0 20 -21v-61q0 -20 -20 -21h-266q-12 0 -13 -10v-522q0 -12 13 -12h291q277 0 350 208q33 97 33 321t-14 369t-122 209t-247 64h-291q-13 0 -13 -12zM1163 696.5q0 -182.5 -24.5 -439.5t-456.5 -257h-573q-20 0 -21 20v62q0 20 21 20
h122q12 0 13 13v530q0 10 -13 10h-81q-20 0 -21 21v61q0 20 21 21h81q12 0 13 12v508q0 12 -13 12h-122q-20 0 -21 21v61q0 20 21 21h573q352 0 444 -283q20 -63 28.5 -147t8.5 -266.5z" />
    <glyph glyph-name="dcroat" unicode="&#x111;" horiz-adv-x="1128" 
d="M229 488q0 -150 28 -232q58 -170 251 -170t248 172q26 78 26 230t-26 234q-26 81 -91 125t-159 44t-157.5 -44t-91.5 -126t-28 -233zM893 1372v-172q0 -12 12 -12h70q20 0 20 -21v-53q0 -20 -20 -20h-70q-12 0 -12 -13v-966q0 -12 12 -13h115q20 0 20 -20v-62
q0 -20 -20 -20h-217q-20 0 -21 20v119h-2q-82 -160 -295 -159q-256 0 -333 233q-35 104 -35 275t35 276q76 233 329 233q219 0 299 -159h2v243q0 12 -12 13h-268q-20 0 -21 20v53q0 20 21 21h268q12 0 12 12v78q0 12 -12 12h-115q-20 0 -20 21v61q0 20 20 21h217
q21 -1 21 -21z" />
    <glyph glyph-name="Emacron" unicode="&#x112;" horiz-adv-x="1191" 
d="M1069 1372v-239q0 -20 -20 -21h-70q-20 0 -21 21v137q0 12 -12 12h-573q-12 0 -13 -12v-496q0 -12 13 -12h450q12 0 13 12v105q0 20 20 20h70q20 0 20 -20v-344q0 -20 -20 -21h-70q-20 0 -20 21v104q0 12 -13 12h-450q-12 0 -13 -12v-516q0 -12 13 -12h573q12 0 12 12
v143q0 20 21 21h70q20 0 20 -21v-246q0 -20 -20 -20h-940q-20 0 -21 20v62q0 20 21 20h122q12 0 13 13v1163q0 12 -13 12h-122q-20 0 -21 21v61q0 20 21 21h940q20 -1 20 -21zM891 1712v-53q0 -20 -21 -21h-491q-20 0 -21 21v53q0 20 21 21h491q21 -1 21 -21z" />
    <glyph glyph-name="emacron" unicode="&#x113;" horiz-adv-x="1015" 
d="M242 557h534q12 0 12 12q0 200 -115 279q-69 47 -165 47t-164 -47q-68 -46 -91 -120t-24 -159q0 -12 13 -12zM901 483q0 -20 -22 -20h-637q-12 0 -13 -14q0 -111 27 -189q28 -78 98 -126t172 -48q172 0 273 125q12 16 28 4l47 -43q14 -12 3 -29q-118 -163 -370 -163
q-130 0 -225 66t-137 192q-29 84 -29 248t34 272t130 174t229 66q134 0 229 -66q132 -92 157 -293q6 -57 6 -156zM772 1339v-53q0 -20 -20 -20h-492q-20 0 -20 20v53q0 20 20 21h492q20 -1 20 -21z" />
    <glyph glyph-name="Ebreve" unicode="&#x114;" horiz-adv-x="1191" 
d="M1069 1372v-239q0 -20 -20 -21h-70q-20 0 -21 21v137q0 12 -12 12h-573q-12 0 -13 -12v-496q0 -12 13 -12h450q12 0 13 12v105q0 20 20 20h70q20 0 20 -20v-344q0 -20 -20 -21h-70q-20 0 -20 21v104q0 12 -13 12h-450q-12 0 -13 -12v-516q0 -12 13 -12h573q12 0 12 12
v143q0 20 21 21h70q20 0 20 -21v-246q0 -20 -20 -20h-940q-20 0 -21 20v62q0 20 21 20h122q12 0 13 13v1163q0 12 -13 12h-122q-20 0 -21 21v61q0 20 21 21h940q20 -1 20 -21zM627 1573q-104 0 -173 58t-81 153v4q0 16 18 16h39q18 0 25 -20q35 -121 173 -121t175 121
q7 20 22 20h39q24 0 19 -20q-14 -94 -83 -152t-173 -59z" />
    <glyph glyph-name="ebreve" unicode="&#x115;" horiz-adv-x="1015" 
d="M242 557h534q12 0 12 12q0 200 -115 279q-69 47 -165 47t-164 -47q-68 -46 -91 -120t-24 -159q0 -12 13 -12zM901 483q0 -20 -22 -20h-637q-12 0 -13 -14q0 -111 27 -189q28 -78 98 -126t172 -48q172 0 273 125q12 16 28 4l47 -43q14 -12 3 -29q-118 -163 -370 -163
q-130 0 -225 66t-137 192q-29 84 -29 248t34 272t130 174t229 66q134 0 229 -66q132 -92 157 -293q6 -57 6 -156zM252 1384q0 16 18 17h39q18 0 25 -21q33 -123 172 -123t176 123q6 20 23 21h38q24 0 19 -21q-14 -96 -83 -154t-172 -58t-173 58q-70 60 -82 154v4z" />
    <glyph glyph-name="Edotaccent" unicode="&#x116;" horiz-adv-x="1191" 
d="M1069 1372v-239q0 -20 -20 -21h-70q-20 0 -21 21v137q0 12 -12 12h-573q-12 0 -13 -12v-496q0 -12 13 -12h450q12 0 13 12v105q0 20 20 20h70q20 0 20 -20v-344q0 -20 -20 -21h-70q-20 0 -20 21v104q0 12 -13 12h-450q-12 0 -13 -12v-516q0 -12 13 -12h573q12 0 12 12
v143q0 20 21 21h70q20 0 20 -21v-246q0 -20 -20 -20h-940q-20 0 -21 20v62q0 20 21 20h122q12 0 13 13v1163q0 12 -13 12h-122q-20 0 -21 21v61q0 20 21 21h940q20 -1 20 -21zM700 1745v-115q0 -20 -20 -20h-90q-20 0 -21 20v115q0 20 21 20h90q20 0 20 -20z" />
    <glyph glyph-name="edotaccent" unicode="&#x117;" horiz-adv-x="1015" 
d="M242 557h534q12 0 12 12q0 200 -115 279q-69 47 -165 47t-164 -47q-68 -46 -91 -120t-24 -159q0 -12 13 -12zM901 483q0 -20 -22 -20h-637q-12 0 -13 -14q0 -111 27 -189q28 -78 98 -126t172 -48q172 0 273 125q12 16 28 4l47 -43q14 -12 3 -29q-118 -163 -370 -163
q-130 0 -225 66t-137 192q-29 84 -29 248t34 272t130 174t229 66q134 0 229 -66q132 -92 157 -293q6 -57 6 -156zM571 1372v-115q0 -20 -20 -20h-90q-20 0 -21 20v115q0 20 21 21h90q20 -1 20 -21z" />
    <glyph glyph-name="Eogonek" unicode="&#x118;" horiz-adv-x="1191" 
d="M848 -199q0 -57 59 -57q27 0 47 11t25 11q6 0 12 -10l23 -43l2 -8q0 -8 -15 -21t-47 -24.5t-80 -11.5t-87 36t-39 96t32.5 109.5t114.5 110.5h-786q-20 0 -21 20v62q0 20 21 20h122q12 0 13 13v1163q0 12 -13 12h-122q-20 0 -21 21v61q0 20 21 21h940q20 -1 20 -21v-239
q0 -20 -20 -21h-70q-20 0 -21 21v137q0 12 -12 12h-573q-12 0 -13 -12v-496q0 -12 13 -12h450q12 0 13 12v105q0 20 20 20h70q20 0 20 -20v-344q0 -20 -20 -21h-70q-20 0 -20 21v104q0 12 -13 12h-450q-12 0 -13 -12v-516q0 -12 13 -12h573q12 0 12 12v143q0 20 21 21h70
q20 0 20 -21v-246q0 -20 -20 -20h-31q-100 -72 -135 -117t-35 -82z" />
    <glyph glyph-name="eogonek" unicode="&#x119;" horiz-adv-x="1015" 
d="M242 557h534q12 0 12 12q0 199 -91 262.5t-188 63.5t-165 -46.5t-91 -120.5t-24 -159q0 -12 13 -12zM631 -199q0 -57 59 -57q26 0 46 11t26 11t12 -10l23 -43l2 -8q1 -8 -15 -21q-43 -36 -110 -36q-66 0 -105 37t-39 93t25 103t78 111q-51 -12 -113 -12q-292 0 -375 258
q-29 92 -29 252t34 268t129.5 173.5t228.5 65.5t248.5 -78t130 -207.5t14.5 -228.5q0 -20 -22 -20h-637q-12 0 -13 -14q0 -109 27 -189t97.5 -127t172.5 -47q172 0 273 125q12 16 28 4l47 -43q14 -12 3 -29q-27 -35 -70 -71q-109 -115 -142.5 -171.5t-33.5 -99.5z" />
    <glyph glyph-name="Ecaron" unicode="&#x11a;" horiz-adv-x="1191" 
d="M1069 1372v-239q0 -20 -20 -21h-70q-20 0 -21 21v137q0 12 -12 12h-573q-12 0 -13 -12v-496q0 -12 13 -12h450q12 0 13 12v105q0 20 20 20h70q20 0 20 -20v-344q0 -20 -20 -21h-70q-20 0 -20 21v104q0 12 -13 12h-450q-12 0 -13 -12v-516q0 -12 13 -12h573q12 0 12 12
v143q0 20 21 21h70q20 0 20 -21v-246q0 -20 -20 -20h-940q-20 0 -21 20v62q0 20 21 20h122q12 0 13 13v1163q0 12 -13 12h-122q-20 0 -21 21v61q0 20 21 21h940q20 -1 20 -21zM657 1544h-47q-20 0 -32 19l-185 249q-6 8 -3 14t11 7h52q18 0 34 -21l144 -174h4l145 174
q18 21 35 21h51q24 0 8 -21l-186 -249q-15 -19 -31 -19z" />
    <glyph glyph-name="ecaron" unicode="&#x11b;" horiz-adv-x="1015" 
d="M242 557h534q12 0 12 12q0 200 -115 279q-69 47 -165 47t-164 -47q-68 -46 -91 -120t-24 -159q0 -12 13 -12zM901 483q0 -20 -22 -20h-637q-12 0 -13 -14q0 -111 27 -189q28 -78 98 -126t172 -48q172 0 273 125q12 16 28 4l47 -43q14 -12 3 -29q-118 -163 -370 -163
q-130 0 -225 66t-137 192q-29 84 -29 248t34 272t130 174t229 66q134 0 229 -66q132 -92 157 -293q6 -57 6 -156zM530 1143h-47q-20 0 -32 18l-185 250q-6 8 -3 14t11 7h52q16 0 34 -21l144 -174h4l145 174q16 19 35 21h51q23 -2 9 -21l-187 -250q-14 -18 -31 -18z" />
    <glyph glyph-name="Gcircumflex" unicode="&#x11c;" horiz-adv-x="1259" 
d="M1083 1255v-198q0 -20 -20 -21h-70q-20 0 -20 21v139q0 14 -10 23q-49 39 -130 61t-169 23q-293 0 -375 -240q-37 -107 -37 -319t8 -292t25 -128q80 -233 368 -234q192 0 310 74q12 8 12 22v402q0 12 -12 12h-297q-20 0 -21 21v67q0 20 21 21h403q20 0 21 -21v-557
q0 -20 -15 -31q-71 -53 -181 -87t-241 -33q-382 0 -483 309q-37 117 -37 343t10 314q53 467 523 467q121 0 227 -34t176 -91q14 -12 14 -33zM881 1544h-52q-18 0 -34 21l-146 174h-4l-143 -174q-18 -21 -35 -21h-51q-8 0 -12 6q-3 6 4 15l184 252q12 18 33 18h47
q16 0 30 -18l187 -252q6 -9 4 -15t-12 -6z" />
    <glyph glyph-name="gcircumflex" unicode="&#x11d;" horiz-adv-x="1107" 
d="M501 891q-183 0 -243 -168q-29 -82 -29 -223t29 -228q59 -172 241 -172t242 172q25 74 25 224t-25 223q-57 172 -240 172zM475 997q212 0 289 -161h2v120q0 20 20 21h218q20 0 20 -21v-61q0 -20 -20 -21h-115q-12 0 -12 -12v-844q-1 -201 -103 -304t-289 -103
q-104 0 -192 40t-131 101q-4 8 -4 15t8 14l49 43q6 6 15 6t16 -8q90 -104 241 -105q279 0 279 297v142h-2q-76 -160 -289 -160q-123 0 -206 60t-117 166t-35 274q0 166 35 272t118 168q84 61 205 61zM741 1143h-51q-17 0 -35 20l-145 174h-4l-144 -174q-17 -20 -34 -20h-52
q-8 0 -11 6t3 14l185 252q12 18 32 19h47q17 0 31 -19l187 -252q15 -20 -9 -20z" />
    <glyph glyph-name="Gbreve" unicode="&#x11e;" horiz-adv-x="1259" 
d="M1083 1255v-198q0 -20 -20 -21h-70q-20 0 -20 21v139q0 14 -10 23q-49 39 -130 61t-169 23q-293 0 -375 -240q-37 -107 -37 -319t8 -292t25 -128q80 -233 368 -234q192 0 310 74q12 8 12 22v402q0 12 -12 12h-297q-20 0 -21 21v67q0 20 21 21h403q20 0 21 -21v-557
q0 -20 -15 -31q-71 -53 -181 -87t-241 -33q-382 0 -483 309q-37 117 -37 343t10 314q53 467 523 467q121 0 227 -34t176 -91q14 -12 14 -33zM647 1573q-104 0 -173 58t-81 153v4q0 16 19 16h39q18 0 24 -20q35 -121 173 -121t175 121q7 20 23 20h39q23 0 18 -20
q-14 -94 -83 -152t-173 -59z" />
    <glyph glyph-name="gbreve" unicode="&#x11f;" horiz-adv-x="1107" 
d="M501 891q-183 0 -243 -168q-29 -82 -29 -223t29 -228q59 -172 241 -172t242 172q25 74 25 224t-25 223q-57 172 -240 172zM475 997q212 0 289 -161h2v120q0 20 20 21h218q20 0 20 -21v-61q0 -20 -20 -21h-115q-12 0 -12 -12v-844q-1 -201 -103 -304t-289 -103
q-104 0 -192 40t-131 101q-4 8 -4 15t8 14l49 43q6 6 15 6t16 -8q90 -104 241 -105q279 0 279 297v142h-2q-76 -160 -289 -160q-123 0 -206 60t-117 166t-35 274q0 166 35 272t118 168q84 61 205 61zM258 1384q0 16 18 17h39q18 0 25 -21q33 -123 172 -123t176 123
q6 20 23 21h39q23 0 18 -21q-14 -96 -83 -154t-172 -58t-173 58q-70 60 -82 154v4z" />
    <glyph glyph-name="Gdotaccent" unicode="&#x120;" horiz-adv-x="1259" 
d="M1083 1255v-198q0 -20 -20 -21h-70q-20 0 -20 21v139q0 14 -10 23q-49 39 -130 61t-169 23q-293 0 -375 -240q-37 -107 -37 -319t8 -292t25 -128q80 -233 368 -234q192 0 310 74q12 8 12 22v402q0 12 -12 12h-297q-20 0 -21 21v67q0 20 21 21h403q20 0 21 -21v-557
q0 -20 -15 -31q-71 -53 -181 -87t-241 -33q-382 0 -483 309q-37 117 -37 343t10 314q53 467 523 467q121 0 227 -34t176 -91q14 -12 14 -33zM713 1745v-115q0 -20 -21 -20h-90q-20 0 -20 20v115q0 20 20 20h90q21 0 21 -20z" />
    <glyph glyph-name="gdotaccent" unicode="&#x121;" horiz-adv-x="1107" 
d="M501 891q-183 0 -243 -168q-29 -82 -29 -223t29 -228q59 -172 241 -172t242 172q25 74 25 224t-25 223q-57 172 -240 172zM475 997q212 0 289 -161h2v120q0 20 20 21h218q20 0 20 -21v-61q0 -20 -20 -21h-115q-12 0 -12 -12v-844q-1 -201 -103 -304t-289 -103
q-104 0 -192 40t-131 101q-4 8 -4 15t8 14l49 43q6 6 15 6t16 -8q90 -104 241 -105q279 0 279 297v142h-2q-76 -160 -289 -160q-123 0 -206 60t-117 166t-35 274q0 166 35 272t118 168q84 61 205 61zM580 1372v-115q0 -20 -21 -20h-90q-20 0 -20 20v115q0 20 20 21h90
q21 -1 21 -21z" />
    <glyph glyph-name="Gcommaaccent" unicode="&#x122;" horiz-adv-x="1259" 
d="M1083 1255v-198q0 -20 -20 -21h-70q-20 0 -20 21v139q0 14 -10 23q-49 39 -130 61t-169 23q-293 0 -375 -240q-37 -107 -37 -319t8 -292t25 -128q80 -233 368 -234q192 0 310 74q12 8 12 22v402q0 12 -12 12h-297q-20 0 -21 21v67q0 20 21 21h403q20 0 21 -21v-557
q0 -20 -15 -31q-71 -53 -181 -87t-241 -33q-382 0 -483 309q-37 117 -37 343t10 314q53 467 523 467q121 0 227 -34t176 -91q14 -12 14 -33zM709 -135v-86q0 -25 -11 -45l-65 -117q-9 -16 -25 -16t-16 18v246q0 20 20 20h76q21 0 21 -20z" />
    <glyph glyph-name="gcommaaccent" unicode="&#x123;" horiz-adv-x="1107" 
d="M501 891q-183 0 -243 -168q-29 -82 -29 -223t29 -228q59 -172 241 -172t242 172q25 74 25 224t-25 223q-57 172 -240 172zM475 997q212 0 289 -161h2v120q0 20 20 21h218q20 0 20 -21v-61q0 -20 -20 -21h-115q-12 0 -12 -12v-844q-1 -201 -103 -304t-289 -103
q-104 0 -192 40t-131 101q-4 8 -4 15t8 14l49 43q6 6 15 6t16 -8q90 -104 241 -105q279 0 279 297v142h-2q-76 -160 -289 -160q-123 0 -206 60t-117 166t-35 274q0 166 35 272t118 168q84 61 205 61zM561 1446v-254q0 -20 -20 -21h-76q-20 0 -21 21v94q0 25 11 45l65 117
q8 16 24 16t17 -18z" />
    <glyph glyph-name="Hcircumflex" unicode="&#x124;" horiz-adv-x="1417" 
d="M1329 1372v-61q0 -20 -20 -21h-123q-12 0 -12 -12v-1163q0 -12 12 -13h123q20 0 20 -20v-62q0 -20 -20 -20h-387q-20 0 -21 20v62q0 20 21 20h122q12 0 13 13v524q0 12 -13 12h-671q-12 0 -13 -12v-524q0 -12 13 -13h123q20 0 20 -20v-62q0 -20 -20 -20h-387
q-20 0 -21 20v62q0 20 21 20h122q12 0 13 13v1163q0 12 -13 12h-122q-20 0 -21 21v61q0 20 21 21h387q20 0 20 -21v-61q0 -20 -20 -21h-123q-12 0 -13 -12v-504q0 -12 13 -12h671q12 0 13 12v504q0 12 -13 12h-122q-20 0 -21 21v61q0 20 21 21h387q20 -1 20 -21zM940 1544
h-51q-19 0 -35 21l-145 174h-4l-144 -174q-18 -21 -35 -21h-51q-8 0 -11 6t3 15l184 252q12 18 33 18h47q17 0 31 -18l186 -252q6 -9 4 -15t-12 -6z" />
    <glyph glyph-name="hcircumflex" unicode="&#x125;" horiz-adv-x="1189" 
d="M346 1372v-532h2q37 74 110 116t173 41q162 0 250 -97t88 -275v-510q0 -12 12 -13h113q20 0 20 -20v-62q0 -20 -20 -20h-363q-20 0 -20 20v62q0 20 20 20h115q12 0 12 13v483q0 293 -252 293q-112 0 -186 -74t-74 -199v-503q0 -12 12 -13h115q20 0 21 -20v-62
q0 -20 -21 -20h-364q-20 0 -21 20v62q0 20 21 20h114q12 0 13 13v1163q0 12 -13 12h-114q-20 0 -21 21v61q0 20 21 21h217q20 -1 20 -21zM840 1544h-52q-18 0 -34 21l-146 174h-4l-143 -174q-18 -21 -35 -21h-51q-8 0 -11 6t3 15l184 252q12 18 33 18h47q15 0 31 -18
l186 -252q6 -9 4 -15t-12 -6z" />
    <glyph glyph-name="Hbar" unicode="&#x126;" horiz-adv-x="1417" 
d="M360 981v-207q0 -12 13 -12h671q12 0 13 12v207q0 12 -13 12h-671q-13 0 -13 -12zM1329 1372v-61q0 -20 -20 -21h-123q-12 0 -12 -12v-174q0 -12 12 -12h82q20 0 20 -21v-57q0 -20 -20 -21h-82q-12 0 -12 -12v-866q0 -12 12 -13h123q20 0 20 -20v-62q0 -20 -20 -20h-387
q-20 0 -21 20v62q0 20 21 20h122q12 0 13 13v524q0 12 -13 12h-671q-12 0 -13 -12v-524q0 -12 13 -13h123q20 0 20 -20v-62q0 -20 -20 -20h-387q-20 0 -21 20v62q0 20 21 20h122q12 0 13 13v866q0 12 -13 12h-81q-20 0 -21 21v57q0 20 21 21h81q12 0 13 12v174q0 12 -13 12
h-122q-20 0 -21 21v61q0 20 21 21h387q20 0 20 -21v-61q0 -20 -20 -21h-123q-12 0 -13 -12v-174q0 -12 13 -12h671q12 0 13 12v174q0 12 -13 12h-122q-20 0 -21 21v61q0 20 21 21h387q20 -1 20 -21z" />
    <glyph glyph-name="hbar" unicode="&#x127;" horiz-adv-x="1189" 
d="M346 1372v-172q0 -12 12 -12h269q20 0 20 -21v-53q0 -20 -20 -20h-269q-12 0 -12 -13v-241h2q37 74 109.5 115.5t173.5 41.5q162 0 250 -97t88 -275v-510q0 -12 12 -13h113q20 0 20 -20v-62q0 -20 -20 -20h-363q-20 0 -20 20v62q0 20 20 20h115q12 0 12 13v483
q0 293 -252 293q-113 0 -186.5 -74t-73.5 -199v-503q0 -12 12 -13h115q20 0 21 -20v-62q0 -20 -21 -20h-364q-20 0 -21 20v62q0 20 21 20h114q12 0 13 13v966q0 12 -13 13h-69q-20 0 -21 20v53q0 20 21 21h69q12 0 13 12v78q0 12 -13 12h-114q-20 0 -21 21v61q0 20 21 21
h217q20 -1 20 -21z" />
    <glyph glyph-name="Itilde" unicode="&#x128;" horiz-adv-x="604" 
d="M516 1372v-61q0 -20 -20 -21h-123q-12 0 -13 -12v-1163q0 -12 13 -13h123q20 0 20 -20v-62q0 -20 -20 -20h-387q-20 0 -21 20v62q0 20 21 20h122q12 0 13 13v1163q0 12 -13 12h-122q-20 0 -21 21v61q0 20 21 21h387q20 -1 20 -21zM513 1738q40 42 40 19v-61
q0 -16 -14 -33q-61 -61 -121 -61t-124 40q-102 63 -164 23q-26 -16 -60 -51q-19 -14 -19 6v61q0 14 17 31q56 62 120 62t125 -39t111 -39q49 0 89 42z" />
    <glyph glyph-name="itilde" unicode="&#x129;" horiz-adv-x="575" 
d="M346 956v-841q0 -12 12 -13h115q20 0 21 -20v-62q0 -20 -21 -20h-364q-20 0 -21 20v62q0 20 21 20h114q12 0 13 13v747q0 12 -13 12h-114q-20 0 -21 21v61q0 20 21 21h217q20 -1 20 -21zM387 1315q64 0 125 67q6 6 11 4t5 -10v-61q0 -16 -14 -33q-61 -61 -120 -61
t-124 40q-65 39 -102 39t-63 -16t-60 -51q-18 -14 -18 6v61q0 14 16 31q55 61 120 61t126 -38q61 -39 98 -39z" />
    <glyph glyph-name="Imacron" unicode="&#x12a;" horiz-adv-x="604" 
d="M516 1372v-61q0 -20 -20 -21h-123q-12 0 -13 -12v-1163q0 -12 13 -13h123q20 0 20 -20v-62q0 -20 -20 -20h-387q-20 0 -21 20v62q0 20 21 20h122q12 0 13 13v1163q0 12 -13 12h-122q-20 0 -21 21v61q0 20 21 21h387q20 -1 20 -21zM567 1712v-53q0 -20 -20 -21h-492
q-20 0 -20 21v53q0 20 20 21h492q20 -1 20 -21z" />
    <glyph glyph-name="imacron" unicode="&#x12b;" horiz-adv-x="575" 
d="M346 956v-841q0 -12 12 -13h115q20 0 21 -20v-62q0 -20 -21 -20h-364q-20 0 -21 20v62q0 20 21 20h114q12 0 13 13v747q0 12 -13 12h-114q-20 0 -21 21v61q0 20 21 21h217q20 -1 20 -21zM545 1339v-53q0 -20 -21 -20h-491q-20 0 -21 20v53q0 20 21 21h491q21 -1 21 -21z
" />
    <glyph glyph-name="Ibreve" unicode="&#x12c;" horiz-adv-x="604" 
d="M516 1372v-61q0 -20 -20 -21h-123q-12 0 -13 -12v-1163q0 -12 13 -13h123q20 0 20 -20v-62q0 -20 -20 -20h-387q-20 0 -21 20v62q0 20 21 20h122q12 0 13 13v1163q0 12 -13 12h-122q-20 0 -21 21v61q0 20 21 21h387q20 -1 20 -21zM301 1573q-104 0 -173 58t-81 153v4
q0 16 19 16h38q18 0 25 -20q35 -121 173 -121t175 121q7 20 23 20h39q23 0 18 -20q-14 -94 -83 -152t-173 -59z" />
    <glyph glyph-name="ibreve" unicode="&#x12d;" horiz-adv-x="575" 
d="M346 956v-841q0 -12 12 -13h115q20 0 21 -20v-62q0 -20 -21 -20h-364q-20 0 -21 20v62q0 20 21 20h114q12 0 13 13v747q0 12 -13 12h-114q-20 0 -21 21v61q0 20 21 21h217q20 -1 20 -21zM23 1384q0 16 18 17h39q18 0 24 -21q33 -123 172 -123t177 123q6 20 22 21h39
q23 0 18 -21q-14 -96 -82 -154t-172 -58t-174 58q-70 60 -81 154v4z" />
    <glyph glyph-name="Iogonek" unicode="&#x12e;" horiz-adv-x="604" 
d="M236 -199q0 -57 59 -57q27 0 46 11t25 11t13 -10l20 -39q4 -8 4 -16t-14 -19t-47 -22.5t-81 -11.5t-87 36t-39 94t24.5 105t88.5 117h-139q-20 0 -21 20v62q0 20 21 20h122q12 0 13 13v1163q0 12 -13 12h-122q-20 0 -21 21v61q0 20 21 21h387q20 -1 20 -21v-61
q0 -20 -20 -21h-123q-12 0 -13 -12v-1163q0 -12 13 -13h123q20 0 20 -20v-62q0 -20 -20 -20h-138q-76 -80 -99 -121t-23 -78z" />
    <glyph glyph-name="iogonek" unicode="&#x12f;" horiz-adv-x="575" 
d="M221 -199q0 -57 60 -57q27 0 46 11t25 11t13 -10l22 -43l2 -8q0 -8 -15 -21t-47.5 -24.5t-80.5 -11.5t-86.5 37t-38.5 93t24.5 104t87.5 118h-124q-20 0 -21 20v62q0 20 21 20h114q12 0 13 13v747q0 12 -13 12h-114q-20 0 -21 21v61q0 20 21 21h217q20 -1 20 -21v-841
q0 -12 12 -13h115q20 0 21 -20v-62q0 -20 -21 -20h-129q-76 -78 -99.5 -120t-23.5 -79zM356 1372v-115q0 -20 -20 -20h-90q-20 0 -21 20v115q0 20 21 21h90q20 -1 20 -21z" />
    <glyph glyph-name="Idotaccent" unicode="&#x130;" horiz-adv-x="604" 
d="M516 1372v-61q0 -20 -20 -21h-123q-12 0 -13 -12v-1163q0 -12 13 -13h123q20 0 20 -20v-62q0 -20 -20 -20h-387q-20 0 -21 20v62q0 20 21 20h122q12 0 13 13v1163q0 12 -13 12h-122q-20 0 -21 21v61q0 20 21 21h387q20 -1 20 -21zM367 1745v-115q0 -20 -21 -20h-90
q-20 0 -20 20v115q0 20 20 20h90q21 0 21 -20z" />
    <glyph glyph-name="dotlessi" unicode="&#x131;" horiz-adv-x="575" 
d="M346 956v-841q0 -12 12 -13h115q20 0 21 -20v-62q0 -20 -21 -20h-364q-20 0 -21 20v62q0 20 21 20h114q12 0 13 13v747q0 12 -13 12h-114q-20 0 -21 21v61q0 20 21 21h217q20 -1 20 -21z" />
    <glyph glyph-name="IJ" unicode="&#x132;" horiz-adv-x="1628" 
d="M516 1372v-61q0 -20 -20 -21h-123q-12 0 -13 -12v-1163q0 -12 13 -13h123q20 0 20 -20v-62q0 -20 -20 -20h-387q-20 0 -21 20v62q0 20 21 20h122q12 0 13 13v1163q0 12 -13 12h-122q-20 0 -21 21v61q0 20 21 21h387q20 -1 20 -21zM1546 1372v-61q0 -20 -20 -21h-119
q-12 0 -12 -12v-862q0 -217 -108 -327t-294 -109q-80 0 -162 22t-135 57q-12 10 -12 23v244q0 20 21 20h69q20 0 21 -20v-170q0 -14 10 -21q79 -45 201 -45t197 80t75 248v860q0 12 -12 12h-129q-20 0 -21 21v61q0 20 21 21h389q20 -1 20 -21z" />
    <glyph glyph-name="ij" unicode="&#x133;" horiz-adv-x="1140" 
d="M346 956v-841q0 -12 12 -13h115q20 0 21 -20v-62q0 -20 -21 -20h-364q-20 0 -21 20v62q0 20 21 20h114q12 0 13 13v747q0 12 -13 12h-114q-20 0 -21 21v61q0 20 21 21h217q20 -1 20 -21zM356 1372v-115q0 -20 -20 -20h-90q-20 0 -21 20v115q0 20 21 21h90q20 -1 20 -21z
M922 956v-1069q0 -141 -58 -198t-194 -58h-23q-20 0 -20 21v61q0 20 20 21h19q84 0 114 30t31 121v977q0 12 -12 12h-115q-20 0 -20 21v61q0 20 20 21h217q21 -1 21 -21zM932 1372v-115q0 -20 -21 -20h-90q-20 0 -20 20v115q0 20 20 21h90q21 -1 21 -21z" />
    <glyph glyph-name="Jcircumflex" unicode="&#x134;" horiz-adv-x="1024" 
d="M942 1372v-61q0 -20 -20 -21h-119q-12 0 -12 -12v-862q0 -217 -108 -327t-294 -109q-80 0 -162 22t-135 57q-12 10 -12 23v244q0 20 20 20h70q20 0 20 -20v-170q0 -14 11 -21q79 -45 201 -45t197 80t75 248v860q0 12 -12 12h-130q-20 0 -20 21v61q0 20 20 21h390
q20 -1 20 -21zM961 1544h-52q-17 0 -35 21l-145 174h-4l-143 -174q-18 -21 -35 -21h-51q-8 0 -12 6q-3 6 3 15l185 252q12 18 33 18h47q16 0 30 -18l187 -252q6 -9 4 -15t-12 -6z" />
    <glyph glyph-name="jcircumflex" unicode="&#x135;" horiz-adv-x="565" 
d="M346 956v-1069q0 -141 -57 -198t-195 -58h-22q-20 0 -21 21v61q0 20 21 21h18q84 0 115 30t31 121v977q0 12 -13 12h-114q-20 0 -21 21v61q0 20 21 21h217q20 -1 20 -21zM440 1143q-17 0 -34 20l-146 174h-4l-143 -174q-17 -20 -35 -20h-51q-8 0 -12 6q-3 6 3 14l185 252
q12 18 33 19h47q16 0 30 -19l187 -252q15 -20 -8 -20h-52z" />
    <glyph glyph-name="Kcommaaccent" unicode="&#x136;" horiz-adv-x="1306" 
d="M1239 1372v-61q0 -20 -20 -21h-103q-12 0 -22 -12l-373 -428l387 -735q8 -12 18 -13h136q20 0 20 -20v-62q0 -20 -20 -20h-207q-18 0 -27 16l-389 740l-279 -320v-321q0 -12 13 -13h123q20 0 20 -20v-62q0 -20 -20 -20h-387q-20 0 -21 20v62q0 20 21 20h122q12 0 13 13
v1163q0 12 -13 12h-122q-20 0 -21 21v61q0 20 21 21h387q20 0 20 -21v-61q0 -20 -20 -21h-123q-12 0 -13 -12v-678l596 678q4 4 2 8t-8 4h-94q-20 0 -20 21v61q0 20 20 21h363q20 -1 20 -21zM715 -135v-86q0 -25 -10 -45l-66 -117q-9 -16 -25 -16t-16 18v246q0 20 20 20h76
q21 0 21 -20z" />
    <glyph glyph-name="kcommaaccent" unicode="&#x137;" horiz-adv-x="1099" 
d="M346 1372v-930l438 516q16 18 35 19h156q20 0 20 -21v-61q0 -20 -20 -21h-119q-12 0 -22 -12l-207 -246l299 -501q8 -12 22 -13h107q20 0 20 -20v-62q0 -20 -20 -20h-166q-20 0 -35 20l-301 510l-207 -243v-172q0 -12 12 -13h115q20 0 21 -20v-62q0 -20 -21 -20h-364
q-20 0 -21 20v62q0 20 21 20h114q12 0 13 13v1163q0 12 -13 12h-114q-20 0 -21 21v61q0 20 21 21h217q20 -1 20 -21zM612 -135v-86q0 -25 -10 -45l-65 -117q-9 -16 -25 -16t-16 18v246q0 20 20 20h76q20 0 20 -20z" />
    <glyph glyph-name="kgreenlandic" unicode="&#x138;" horiz-adv-x="1099" 
d="M995 956v-61q0 -20 -20 -21h-119q-12 0 -22 -12l-207 -246l299 -501q8 -12 22 -13h107q20 0 20 -20v-62q0 -20 -20 -20h-166q-20 0 -35 20l-301 510l-207 -243v-172q0 -12 12 -13h115q20 0 21 -20v-62q0 -20 -21 -20h-364q-20 0 -21 20v62q0 20 21 20h114q12 0 13 13v747
q0 12 -13 12h-114q-20 0 -21 21v61q0 20 21 21h217q20 0 20 -21v-514l438 516q16 18 35 19h156q20 -1 20 -21z" />
    <glyph glyph-name="Lacute" unicode="&#x139;" horiz-adv-x="1124" 
d="M516 1372v-61q0 -20 -20 -21h-123q-12 0 -13 -12v-1155q0 -12 13 -12h567q12 0 12 12v143q0 20 21 21h69q20 0 21 -21v-246q0 -20 -21 -20h-933q-20 0 -21 20v62q0 20 21 20h122q12 0 13 13v1163q0 12 -13 12h-122q-20 0 -21 21v61q0 20 21 21h387q20 -1 20 -21z
M324 1565h-54q-10 0 -13 6t5 14l168 213q14 20 37 21h82q22 -2 8 -21l-197 -215q-15 -18 -36 -18z" />
    <glyph glyph-name="lacute" unicode="&#x13a;" horiz-adv-x="563" 
d="M315 1372v-1145q0 -71 24 -99t81 -28h35q20 0 20 -20v-64q0 -20 -20 -20h-47q-109 0 -156 54t-47 175v1053q0 12 -12 12h-115q-20 0 -21 21v61q0 20 21 21h217q20 -1 20 -21zM293 1565h-53q-10 0 -14 6q-3 6 5 14l168 213q14 20 37 21h82q22 -2 8 -21l-196 -215
q-15 -18 -37 -18z" />
    <glyph glyph-name="Lcommaaccent" unicode="&#x13b;" horiz-adv-x="1124" 
d="M516 1372v-61q0 -20 -20 -21h-123q-12 0 -13 -12v-1155q0 -12 13 -12h567q12 0 12 12v143q0 20 21 21h69q20 0 21 -21v-246q0 -20 -21 -20h-933q-20 0 -21 20v62q0 20 21 20h122q12 0 13 13v1163q0 12 -13 12h-122q-20 0 -21 21v61q0 20 21 21h387q20 -1 20 -21z
M686 -135v-86q0 -25 -10 -45l-66 -117q-8 -16 -24 -16t-17 18v246q0 20 21 20h76q20 0 20 -20z" />
    <glyph glyph-name="lcommaaccent" unicode="&#x13c;" horiz-adv-x="563" 
d="M315 1372v-1145q0 -71 24 -99t81 -28h35q20 0 20 -20v-64q0 -20 -20 -20h-47q-109 0 -156 54t-47 175v1053q0 12 -12 12h-115q-20 0 -21 21v61q0 20 21 21h217q20 -1 20 -21zM395 -135v-86q0 -25 -10 -45l-66 -117q-8 -16 -24 -16t-16 18v246q0 20 20 20h76q20 0 20 -20z
" />
    <glyph glyph-name="Lcaron" unicode="&#x13d;" horiz-adv-x="1124" 
d="M516 1372v-61q0 -20 -20 -21h-123q-12 0 -13 -12v-1155q0 -12 13 -12h567q12 0 12 12v143q0 20 21 21h69q20 0 21 -21v-246q0 -20 -21 -20h-933q-20 0 -21 20v62q0 20 21 20h122q12 0 13 13v1163q0 12 -13 12h-122q-20 0 -21 21v61q0 20 21 21h387q20 -1 20 -21z
M719 1372v-98q0 -23 -10 -43l-66 -117q-8 -18 -24 -18t-17 20v256q0 20 21 21h75q21 -1 21 -21z" />
    <glyph glyph-name="lcaron" unicode="&#x13e;" horiz-adv-x="563" 
d="M315 1372v-1145q0 -71 24 -99t81 -28h35q20 0 20 -20v-64q0 -20 -20 -20h-47q-109 0 -156 54t-47 175v1053q0 12 -12 12h-115q-20 0 -21 21v61q0 20 21 21h217q20 -1 20 -21zM518 1372v-98q0 -23 -10 -43l-66 -117q-8 -18 -24 -18t-17 20v256q0 20 21 21h76q20 -1 20 -21
z" />
    <glyph glyph-name="Ldot" unicode="&#x13f;" horiz-adv-x="1124" 
d="M516 1372v-61q0 -20 -20 -21h-123q-12 0 -13 -12v-1155q0 -12 13 -12h567q12 0 12 12v143q0 20 21 21h69q20 0 21 -21v-246q0 -20 -21 -20h-933q-20 0 -21 20v62q0 20 21 20h122q12 0 13 13v1163q0 12 -13 12h-122q-20 0 -21 21v61q0 20 21 21h387q20 -1 20 -21zM934 737
v-137q0 -20 -21 -20h-100q-20 0 -20 20v137q0 20 20 21h100q21 -1 21 -21z" />
    <glyph glyph-name="ldot" unicode="&#x140;" horiz-adv-x="563" 
d="M315 1372v-1145q0 -71 24 -99t81 -28h35q20 0 20 -20v-64q0 -20 -20 -20h-47q-109 0 -156 54t-47 175v1053q0 12 -12 12h-115q-20 0 -21 21v61q0 20 21 21h217q20 -1 20 -21zM643 743v-137q0 -20 -20 -20h-101q-20 0 -20 20v137q0 20 20 21h101q20 -1 20 -21z" />
    <glyph glyph-name="Lslash" unicode="&#x141;" horiz-adv-x="1124" 
d="M516 1372v-61q0 -20 -20 -21h-123q-12 0 -13 -12v-510l324 168l8 2q12 0 13 -14v-74q0 -18 -21 -29l-324 -168v-530q0 -12 13 -12h567q12 0 12 12v143q0 20 21 21h69q20 0 21 -21v-246q0 -20 -21 -20h-933q-20 0 -21 20v62q0 20 21 20h122q12 0 13 13v481l-117 -59l-8 -2
q-12 0 -13 14v74q0 18 21 28l117 60v567q0 12 -13 12h-122q-20 0 -21 21v61q0 20 21 21h387q20 -1 20 -21z" />
    <glyph glyph-name="lslash" unicode="&#x142;" horiz-adv-x="563" 
d="M315 1372v-553l140 74l8 2q12 0 12 -14v-68q0 -18 -20 -29l-140 -73v-484q0 -72 23.5 -99.5t81.5 -27.5h35q20 0 20 -20v-64q0 -20 -20 -20h-47q-109 0 -156 54t-47 175v434l-80 -41l-8 -2q-12 0 -13 15v67q0 18 21 29l80 41v510q0 12 -12 12h-115q-20 0 -21 21v61
q0 20 21 21h217q20 -1 20 -21z" />
    <glyph glyph-name="Nacute" unicode="&#x143;" horiz-adv-x="1423" 
d="M1335 1372v-61q0 -20 -20 -21h-123q-12 0 -12 -12v-1258q0 -20 -21 -20h-80q-23 0 -35 20l-677 1149h-7v-1054q0 -12 13 -13h123q20 0 20 -20v-62q0 -20 -20 -20h-387q-20 0 -21 20v62q0 20 21 20h122q12 0 13 13v1163q0 12 -13 12h-122q-20 0 -21 21v61q0 20 21 21h231
q25 0 35 -21l680 -1145h8v1051q0 12 -12 12h-123q-20 0 -21 21v61q0 20 21 21h387q20 -1 20 -21zM678 1565h-53q-10 0 -14 6q-3 6 5 14l168 213q14 20 37 21h82q22 -2 8 -21l-196 -215q-15 -18 -37 -18z" />
    <glyph glyph-name="nacute" unicode="&#x144;" horiz-adv-x="1189" 
d="M969 625v-510q0 -12 12 -13h113q20 0 20 -20v-62q0 -20 -20 -20h-363q-20 0 -20 20v62q0 20 20 20h115q12 0 12 13v483q0 293 -252 293q-112 0 -186 -74t-74 -199v-503q0 -12 12 -13h115q20 0 21 -20v-62q0 -20 -21 -20h-364q-20 0 -21 20v62q0 20 21 20h114q12 0 13 13
v747q0 12 -13 12h-114q-20 0 -21 21v61q0 20 21 21h217q20 0 20 -21v-116h2q37 74 110 116t173 41q162 0 250 -97t88 -275zM557 1143h-51q-22 0 -12 20l157 250q12 20 35 21h78q24 -2 10 -21l-180 -250q-18 -20 -37 -20z" />
    <glyph glyph-name="Ncommaaccent" unicode="&#x145;" horiz-adv-x="1423" 
d="M1335 1372v-61q0 -20 -20 -21h-123q-12 0 -12 -12v-1258q0 -20 -21 -20h-80q-23 0 -35 20l-677 1149h-7v-1054q0 -12 13 -13h123q20 0 20 -20v-62q0 -20 -20 -20h-387q-20 0 -21 20v62q0 20 21 20h122q12 0 13 13v1163q0 12 -13 12h-122q-20 0 -21 21v61q0 20 21 21h231
q25 0 35 -21l680 -1145h8v1051q0 12 -12 12h-123q-20 0 -21 21v61q0 20 21 21h387q20 -1 20 -21zM776 -135v-86q0 -25 -10 -45l-66 -117q-8 -16 -24 -16t-17 18v246q0 20 21 20h76q20 0 20 -20z" />
    <glyph glyph-name="ncommaaccent" unicode="&#x146;" horiz-adv-x="1189" 
d="M969 625v-510q0 -12 12 -13h113q20 0 20 -20v-62q0 -20 -20 -20h-363q-20 0 -20 20v62q0 20 20 20h115q12 0 12 13v483q0 293 -252 293q-112 0 -186 -74t-74 -199v-503q0 -12 12 -13h115q20 0 21 -20v-62q0 -20 -21 -20h-364q-20 0 -21 20v62q0 20 21 20h114q12 0 13 13
v747q0 12 -13 12h-114q-20 0 -21 21v61q0 20 21 21h217q20 0 20 -21v-116h2q37 74 110 116t173 41q162 0 250 -97t88 -275zM653 -135v-86q0 -25 -10 -45l-65 -117q-8 -16 -24 -16t-17 18v246q0 20 20 20h76q20 0 20 -20z" />
    <glyph glyph-name="Ncaron" unicode="&#x147;" horiz-adv-x="1423" 
d="M1335 1372v-61q0 -20 -20 -21h-123q-12 0 -12 -12v-1258q0 -20 -21 -20h-80q-23 0 -35 20l-677 1149h-7v-1054q0 -12 13 -13h123q20 0 20 -20v-62q0 -20 -20 -20h-387q-20 0 -21 20v62q0 20 21 20h122q12 0 13 13v1163q0 12 -13 12h-122q-20 0 -21 21v61q0 20 21 21h231
q25 0 35 -21l680 -1145h8v1051q0 12 -12 12h-123q-20 0 -21 21v61q0 20 21 21h387q20 -1 20 -21zM733 1544h-47q-20 0 -33 19l-184 249q-6 8 -3 14t11 7h51q19 0 35 -21l144 -174h4l145 174q18 21 35 21h51q22 0 8 -21l-186 -249q-15 -19 -31 -19z" />
    <glyph glyph-name="ncaron" unicode="&#x148;" horiz-adv-x="1189" 
d="M969 625v-510q0 -12 12 -13h113q20 0 20 -20v-62q0 -20 -20 -20h-363q-20 0 -20 20v62q0 20 20 20h115q12 0 12 13v483q0 293 -252 293q-112 0 -186 -74t-74 -199v-503q0 -12 12 -13h115q20 0 21 -20v-62q0 -20 -21 -20h-364q-20 0 -21 20v62q0 20 21 20h114q12 0 13 13
v747q0 12 -13 12h-114q-20 0 -21 21v61q0 20 21 21h217q20 0 20 -21v-116h2q37 74 110 116t173 41q162 0 250 -97t88 -275zM621 1143h-48q-20 0 -32 18l-185 250q-14 18 9 21h51q16 0 35 -21l143 -174h4l145 174q16 19 35 21h51q23 -2 9 -21l-187 -250q-14 -18 -30 -18z" />
    <glyph glyph-name="napostrophe" unicode="&#x149;" horiz-adv-x="1189" 
d="M969 625v-510q0 -12 12 -13h113q20 0 20 -20v-62q0 -20 -20 -20h-363q-20 0 -20 20v62q0 20 20 20h115q12 0 12 13v483q0 293 -252 293q-112 0 -186 -74t-74 -199v-503q0 -12 12 -13h115q20 0 21 -20v-62q0 -20 -21 -20h-364q-20 0 -21 20v62q0 20 21 20h114q12 0 13 13
v747q0 12 -13 12h-114q-20 0 -21 21v61q0 20 21 21h217q20 0 20 -21v-116h2q37 74 110 116t173 41q162 0 250 -97t88 -275zM176 1372v-98q0 -23 -10 -43l-66 -117q-8 -18 -24 -18t-17 20v256q0 20 21 21h76q20 -1 20 -21z" />
    <glyph glyph-name="Eng" unicode="&#x14a;" horiz-adv-x="1423" 
d="M1335 1372v-61q0 -20 -20 -21h-123q-12 0 -12 -12v-1337q0 -162 -73 -236t-226 -74h-27q-20 0 -20 21v65q0 20 20 21h27q96 0 139 44t43 146v72l-696 1171h-7v-1056q0 -12 13 -13h123q20 0 20 -20v-62q0 -20 -20 -20h-387q-20 0 -21 20v62q0 20 21 20h122q12 0 13 13
v1163q0 12 -13 12h-122q-20 0 -21 21v61q0 20 21 21h231q25 0 35 -21l680 -1136h8v1042q0 12 -12 12h-123q-20 0 -21 21v61q0 20 21 21h387q20 -1 20 -21z" />
    <glyph glyph-name="eng" unicode="&#x14b;" horiz-adv-x="1171" 
d="M973 625v-738q0 -141 -57.5 -198.5t-194.5 -57.5h-25q-20 0 -20 21v61q0 20 20 21h21q84 0 114.5 29.5t30.5 119.5v715q0 293 -254 293q-113 0 -186.5 -74t-73.5 -199v-503q0 -12 12 -13h115q20 0 21 -20v-62q0 -20 -21 -20h-364q-20 0 -21 20v62q0 20 21 20h114
q12 0 13 13v747q0 12 -13 12h-114q-20 0 -21 21v61q0 20 21 21h217q20 0 20 -21v-116h2q37 74 111 115.5t174 41.5q162 0 250 -97t88 -275z" />
    <glyph glyph-name="Omacron" unicode="&#x14c;" horiz-adv-x="1247" 
d="M252 696q0 -266 35 -370q78 -236 337 -236t337 236q35 104 34 370q0 266 -34 371q-78 236 -337 236t-337 -236q-35 -105 -35 -371zM143 441q-10 87 -10 312t46 363t161 218q114 80 284 79q170 0 284 -80q163 -114 196 -382q10 -87 10 -313t-41 -345q-51 -154 -165 -234
q-114 -79 -284 -79t-284 80q-163 112 -197 381zM887 1712v-53q0 -20 -21 -21h-491q-20 0 -21 21v53q0 20 21 21h491q21 -1 21 -21z" />
    <glyph glyph-name="omacron" unicode="&#x14d;" horiz-adv-x="1030" 
d="M229 488q0 -140 28 -224q27 -84 95 -131t163 -47t163 47t96 131t27 224q0 140 -28 224t-95 132q-68 47 -163 47t-163 -47t-96 -131q-28 -85 -27 -225zM117 488q0 152 36 264t132 179t230 67t230 -67q97 -67 133 -179t36 -264t-36 -264t-132 -178t-231 -66q-134 0 -230 66
t-132 179q-36 112 -36 263zM780 1339v-53q0 -20 -20 -20h-492q-20 0 -20 20v53q0 20 20 21h492q20 -1 20 -21z" />
    <glyph glyph-name="Obreve" unicode="&#x14e;" horiz-adv-x="1247" 
d="M252 696q0 -266 35 -370q78 -236 337 -236t337 236q35 104 34 370q0 266 -34 371q-78 236 -337 236t-337 -236q-35 -105 -35 -371zM143 441q-10 87 -10 312t46 363t161 218q114 80 284 79q170 0 284 -80q163 -114 196 -382q10 -87 10 -313t-41 -345q-51 -154 -165 -234
q-114 -79 -284 -79t-284 80q-163 112 -197 381zM621 1573q-104 0 -174 58q-69 58 -80 153v4q0 16 18 16h39q18 0 25 -20q35 -121 173 -121t175 121q7 20 22 20h39q22 0 19 -20q-14 -94 -83 -152t-173 -59z" />
    <glyph glyph-name="obreve" unicode="&#x14f;" horiz-adv-x="1030" 
d="M229 488q0 -140 28 -224q27 -84 95 -131t163 -47t163 47t96 131t27 224q0 140 -28 224t-95 132q-68 47 -163 47t-163 -47t-96 -131q-28 -85 -27 -225zM117 488q0 152 36 264t132 179t230 67t230 -67q97 -67 133 -179t36 -264t-36 -264t-132 -178t-231 -66q-134 0 -230 66
t-132 179q-36 112 -36 263zM258 1384q0 16 18 17h39q18 0 25 -21q33 -123 172 -123t176 123q6 20 23 21h39q23 0 18 -21q-14 -96 -83 -154t-172 -58t-173 58q-70 60 -82 154v4z" />
    <glyph glyph-name="Ohungarumlaut" unicode="&#x150;" horiz-adv-x="1247" 
d="M252 696q0 -266 35 -370q78 -236 337 -236t337 236q35 104 34 370q0 266 -34 371q-78 236 -337 236t-337 -236q-35 -105 -35 -371zM143 441q-10 87 -10 312t46 363t161 218q114 80 284 79q170 0 284 -80q163 -114 196 -382q10 -87 10 -313t-41 -345q-51 -154 -165 -234
q-114 -79 -284 -79t-284 80q-163 112 -197 381zM770 1565h-51q-8 0 -11 6t3 14l137 215q14 21 33 21h69q24 0 8 -21l-155 -215q-13 -20 -33 -20zM516 1565h-51q-8 0 -11 6t3 14l137 215q12 20 33 21h67q24 0 8 -21l-153 -215q-14 -20 -33 -20z" />
    <glyph glyph-name="ohungarumlaut" unicode="&#x151;" horiz-adv-x="1030" 
d="M229 488q0 -140 28 -224q27 -84 95 -131t163 -47t163 47t96 131t27 224q0 140 -28 224t-95 132q-68 47 -163 47t-163 -47t-96 -131q-28 -85 -27 -225zM117 488q0 152 36 264t132 179t230 67t230 -67q97 -67 133 -179t36 -264t-36 -264t-132 -178t-231 -66q-134 0 -230 66
t-132 179q-36 112 -36 263zM666 1143h-50q-8 0 -11 6t1 14l137 250q12 20 33 21h66q19 -2 10 -21l-156 -252q-11 -18 -30 -18zM412 1143h-50q-22 0 -12 20l137 250q12 20 33 21h68q19 -2 10 -21l-156 -252q-11 -18 -30 -18z" />
    <glyph glyph-name="OE" unicode="&#x152;" horiz-adv-x="1943" 
d="M623 90q258 0 338 234q34 104 34 372.5t-34 372.5q-80 233 -337 233t-337 -233q-35 -107 -35 -375.5t37 -376.5t121 -167.5t213 -59.5zM623 1413q267 0 370 -201h2v160q0 20 21 21h784q20 0 21 -21v-239q0 -20 -21 -21h-69q-20 0 -21 21v137q0 12 -12 12h-574
q-12 0 -12 -12v-496q0 -12 12 -12h451q12 0 12 12v105q0 20 21 20h69q20 0 21 -20v-344q0 -20 -21 -21h-69q-20 0 -21 21v104q0 12 -12 12h-451q-12 0 -12 -12v-516q0 -12 12 -12h574q12 0 12 12v143q0 20 21 21h69q20 0 21 -21v-246q0 -20 -21 -20h-784q-20 0 -21 20v160
h-2q-104 -200 -370 -200q-345 0 -449 313q-41 125 -41 347t21.5 401t160 275.5t308.5 96.5z" />
    <glyph glyph-name="oe" unicode="&#x153;" horiz-adv-x="1699" 
d="M229 488q0 -140 28 -224t95.5 -131t162.5 -47t162.5 47t95.5 131t28 224t-28 224t-95.5 131.5t-162.5 47.5t-162.5 -47t-95.5 -131q-28 -85 -28 -225zM924 557h534q12 0 12 12q0 197 -91 261.5t-187 64.5t-187 -63.5t-94 -262.5q0 -12 13 -12zM856 793q92 204 344 204
q125 0 239.5 -78.5t129 -207.5t14.5 -228q0 -20 -22 -20h-637q-12 0 -13 -14q2 -111 23 -173q63 -190 274 -190q168 0 275 125q10 10 17 10t16 -8l40 -41q14 -14 3 -29q-55 -76 -147.5 -119.5t-209.5 -43.5q-252 0 -344 204h-4q-92 -204 -340 -204q-135 0 -230.5 66.5
t-131.5 174.5t-35 267q0 160 36 268t131 174.5t222 66.5q254 0 348 -204h2z" />
    <glyph glyph-name="Racute" unicode="&#x154;" horiz-adv-x="1298" 
d="M360 1270v-516q0 -12 13 -13h342q151 0 231 72t80 201q0 128 -81 198t-230 70h-342q-13 0 -13 -12zM1143 1012q0 -138 -75 -234t-212 -129l225 -536q6 -10 17 -11h114q20 0 21 -20v-62q0 -20 -21 -20h-198q-18 0 -27 18l-254 613h-360q-12 0 -13 -13v-503q0 -12 13 -13
h123q20 0 20 -20v-62q0 -20 -20 -20h-387q-20 0 -21 20v62q0 20 21 20h122q12 0 13 13v1163q0 12 -13 12h-122q-20 0 -21 21v61q0 20 21 21h608q202 -1 314 -101t112 -280zM604 1565h-53q-10 0 -13 6t5 14l168 213q14 20 37 21h81q23 -2 9 -21l-197 -215q-15 -18 -37 -18z
" />
    <glyph glyph-name="racute" unicode="&#x155;" horiz-adv-x="815" 
d="M634 991q115 0 118 -37v-67q0 -25 -23 -19q-68 14 -123 15q-116 0 -188 -85t-72 -249v-434q0 -12 12 -13h131q20 0 21 -20v-62q0 -20 -21 -20h-380q-20 0 -21 20v62q0 20 21 20h114q12 0 13 13v747q0 12 -13 12h-114q-20 0 -21 21v61q0 20 21 21h217q20 0 20 -21v-145h2
q74 180 286 180zM426 1143h-51q-23 0 -13 20l158 250q12 20 35 21h78q24 -2 10 -21l-180 -250q-18 -20 -37 -20z" />
    <glyph glyph-name="Rcommaaccent" unicode="&#x156;" horiz-adv-x="1298" 
d="M360 1270v-516q0 -12 13 -13h342q151 0 231 72t80 201q0 128 -81 198t-230 70h-342q-13 0 -13 -12zM1143 1012q0 -138 -75 -234t-212 -129l225 -536q6 -10 17 -11h114q20 0 21 -20v-62q0 -20 -21 -20h-198q-18 0 -27 18l-254 613h-360q-12 0 -13 -13v-503q0 -12 13 -13
h123q20 0 20 -20v-62q0 -20 -20 -20h-387q-20 0 -21 20v62q0 20 21 20h122q12 0 13 13v1163q0 12 -13 12h-122q-20 0 -21 21v61q0 20 21 21h608q202 -1 314 -101t112 -280zM713 -135v-86q0 -25 -11 -45l-65 -117q-9 -16 -25 -16t-16 18v246q0 20 20 20h76q21 0 21 -20z" />
    <glyph glyph-name="rcommaaccent" unicode="&#x157;" horiz-adv-x="815" 
d="M634 991q115 0 118 -37v-67q0 -25 -23 -19q-68 14 -123 15q-116 0 -188 -85t-72 -249v-434q0 -12 12 -13h131q20 0 21 -20v-62q0 -20 -21 -20h-380q-20 0 -21 20v62q0 20 21 20h114q12 0 13 13v747q0 12 -13 12h-114q-20 0 -21 21v61q0 20 21 21h217q20 0 20 -21v-145h2
q74 180 286 180zM344 -135v-86q0 -25 -10 -45l-66 -117q-8 -16 -24 -16t-17 18v246q0 20 21 20h76q20 0 20 -20z" />
    <glyph glyph-name="Rcaron" unicode="&#x158;" horiz-adv-x="1298" 
d="M360 1270v-516q0 -12 13 -13h342q151 0 231 72t80 201q0 128 -81 198t-230 70h-342q-13 0 -13 -12zM1143 1012q0 -138 -75 -234t-212 -129l225 -536q6 -10 17 -11h114q20 0 21 -20v-62q0 -20 -21 -20h-198q-18 0 -27 18l-254 613h-360q-12 0 -13 -13v-503q0 -12 13 -13
h123q20 0 20 -20v-62q0 -20 -20 -20h-387q-20 0 -21 20v62q0 20 21 20h122q12 0 13 13v1163q0 12 -13 12h-122q-20 0 -21 21v61q0 20 21 21h608q202 -1 314 -101t112 -280zM641 1544h-47q-20 0 -33 19l-184 249q-6 8 -3 14t11 7h51q19 0 35 -21l143 -174h4l146 174
q18 21 35 21h51q22 0 8 -21l-186 -249q-15 -19 -31 -19z" />
    <glyph glyph-name="rcaron" unicode="&#x159;" horiz-adv-x="815" 
d="M634 991q115 0 118 -37v-67q0 -25 -23 -19q-68 14 -123 15q-116 0 -188 -85t-72 -249v-434q0 -12 12 -13h131q20 0 21 -20v-62q0 -20 -21 -20h-380q-20 0 -21 20v62q0 20 21 20h114q12 0 13 13v747q0 12 -13 12h-114q-20 0 -21 21v61q0 20 21 21h217q20 0 20 -21v-145h2
q74 180 286 180zM496 1143h-47q-20 0 -33 18l-185 250q-14 18 9 21h51q16 0 35 -21l143 -174h4l145 174q16 19 35 21h52q22 -2 8 -21l-187 -250q-14 -18 -30 -18z" />
    <glyph glyph-name="Sacute" unicode="&#x15a;" horiz-adv-x="1202" 
d="M995 1300v-217q0 -20 -20 -20h-70q-20 0 -20 20v144q0 17 -13 20q-118 55 -272 55t-236 -69q-82 -70 -81 -188q-1 -118 69 -181t244 -90l82 -12q203 -31 298 -125t95 -268t-124 -282q-124 -107 -363 -107t-422 114q-10 6 -10 21v221q0 20 20 20h70q20 0 20 -20v-150
q0 -12 10 -18q150 -78 322 -78t265 74t93 199t-70 193t-251 95l-72 11q-205 28 -300 120t-95 262t118 270t330 100q212 1 369 -91q14 -8 14 -23zM586 1565h-54q-10 0 -13 6t5 14l168 213q14 20 37 21h82q22 -2 8 -21l-196 -215q-15 -18 -37 -18z" />
    <glyph glyph-name="sacute" unicode="&#x15b;" horiz-adv-x="968" 
d="M799 729q0 -20 -21 -20h-65q-20 0 -21 20v115q0 12 -10 16q-93 37 -205 37q-113 0 -173 -44t-60 -121t50 -117t171 -54l102 -12q287 -35 287 -270q0 -141 -98 -221t-284 -78q-186 0 -333 81q-12 6 -12 25v188q0 20 20 21h66q20 0 20 -21v-124q0 -12 9 -19
q106 -51 238 -51t198 49t66 133t-49 126q-48 42 -177 56l-102 13q-283 33 -283 271q0 122 92 196t259 74t298 -64q16 -8 17 -25v-180zM457 1143h-51q-23 0 -13 20l158 250q12 20 35 21h78q24 -2 10 -21l-180 -250q-18 -20 -37 -20z" />
    <glyph glyph-name="Scircumflex" unicode="&#x15c;" horiz-adv-x="1202" 
d="M995 1300v-217q0 -20 -20 -20h-70q-20 0 -20 20v144q0 17 -13 20q-118 55 -272 55t-236 -69q-82 -70 -81 -188q-1 -118 69 -181t244 -90l82 -12q203 -31 298 -125t95 -268t-124 -282q-124 -107 -363 -107t-422 114q-10 6 -10 21v221q0 20 20 20h70q20 0 20 -20v-150
q0 -12 10 -18q150 -78 322 -78t265 74t93 199t-70 193t-251 95l-72 11q-205 28 -300 120t-95 262t118 270t330 100q212 1 369 -91q14 -8 14 -23zM829 1544h-51q-17 0 -35 21l-145 174h-4l-143 -174q-18 -21 -35 -21h-51q-8 0 -12 6q-3 6 3 15l185 252q12 18 32 18h48
q16 0 30 -18l187 -252q6 -9 4 -15t-13 -6z" />
    <glyph glyph-name="scircumflex" unicode="&#x15d;" horiz-adv-x="968" 
d="M799 729q0 -20 -21 -20h-65q-20 0 -21 20v115q0 12 -10 16q-93 37 -205 37q-113 0 -173 -44t-60 -121t50 -117t171 -54l102 -12q287 -35 287 -270q0 -141 -98 -221t-284 -78q-186 0 -333 81q-12 6 -12 25v188q0 20 20 21h66q20 0 20 -21v-124q0 -12 9 -19
q106 -51 238 -51t198 49t66 133t-49 126q-48 42 -177 56l-102 13q-283 33 -283 271q0 122 92 196t259 74t298 -64q16 -8 17 -25v-180zM649 1143q-17 0 -35 20l-145 174h-4l-143 -174q-17 -20 -35 -20h-51q-8 0 -12 6q-3 6 3 14l185 252q12 18 32 19h48q16 0 30 -19l187 -252
q15 -20 -9 -20h-51z" />
    <glyph glyph-name="Scedilla" unicode="&#x15e;" horiz-adv-x="1202" 
d="M995 1300v-217q0 -20 -20 -20h-70q-20 0 -20 20v144q0 17 -13 20q-118 55 -272 55t-235.5 -69.5t-81.5 -187.5t69.5 -181t243.5 -90l82 -12q203 -31 298 -125t95 -261t-106.5 -272.5t-309.5 -119.5l-88 -267q-7 -20 -32 -20h-64q-19 0 -14 20l102 263q-225 4 -397 114
q-10 6 -10 21v221q0 20 20 20h70q20 0 20 -20v-150q0 -12 10 -18q150 -78 322 -78t265 74t93 199t-70.5 193.5t-250.5 94.5l-72 11q-205 29 -300 120.5t-95 261.5t117.5 269.5t331.5 99.5t368 -90q14 -8 14 -23z" />
    <glyph glyph-name="scedilla" unicode="&#x15f;" horiz-adv-x="968" 
d="M799 729q0 -20 -21 -20h-65q-20 0 -21 20v115q0 12 -10 16q-93 37 -205 37q-113 0 -173 -44t-60 -121t50 -117t171 -54l102 -12q287 -35 287 -270q0 -129 -82 -206t-233 -89l-88 -267q-7 -20 -33 -20h-64q-19 0 -14 20l102 263q-168 6 -303 81q-12 6 -12 25v188
q0 20 20 21h66q20 0 20 -21v-124q0 -12 9 -19q106 -51 238 -51t197.5 49t65.5 133t-48 126t-177 56l-102 13q-283 33 -283 271q0 122 92 195.5t259 73.5t298 -63q16 -8 17 -25v-180z" />
    <glyph glyph-name="Scaron" unicode="&#x160;" horiz-adv-x="1202" 
d="M995 1300v-217q0 -20 -20 -20h-70q-20 0 -20 20v144q0 17 -13 20q-118 55 -272 55t-236 -69q-82 -70 -81 -188q-1 -118 69 -181t244 -90l82 -12q203 -31 298 -125t95 -268t-124 -282q-124 -107 -363 -107t-422 114q-10 6 -10 21v221q0 20 20 20h70q20 0 20 -20v-150
q0 -12 10 -18q150 -78 322 -78t265 74t93 199t-70 193t-251 95l-72 11q-205 28 -300 120t-95 262t118 270t330 100q212 1 369 -91q14 -8 14 -23zM621 1544h-48q-20 0 -32 19l-185 249q-6 8 -3 14t12 7h51q17 0 35 -21l143 -174h4l145 174q18 21 35 21h51q23 0 9 -21
l-187 -249q-15 -19 -30 -19z" />
    <glyph glyph-name="scaron" unicode="&#x161;" horiz-adv-x="968" 
d="M799 729q0 -20 -21 -20h-65q-20 0 -21 20v115q0 12 -10 16q-93 37 -205 37q-113 0 -173 -44t-60 -121t50 -117t171 -54l102 -12q287 -35 287 -270q0 -141 -98 -221t-284 -78q-186 0 -333 81q-12 6 -12 25v188q0 20 20 21h66q20 0 20 -21v-124q0 -12 9 -19
q106 -51 238 -51t198 49t66 133t-49 126q-48 42 -177 56l-102 13q-283 33 -283 271q0 122 92 196t259 74t298 -64q16 -8 17 -25v-180zM489 1143h-47q-20 0 -32 18l-185 250q-6 8 -3 14t11 7h52q16 0 34 -21l144 -174h4l145 174q16 19 35 21h51q23 -2 9 -21l-187 -250
q-14 -18 -31 -18z" />
    <glyph glyph-name="uni0162" unicode="&#x162;" horiz-adv-x="1173" 
d="M1122 1372v-242q0 -20 -20 -20h-70q-20 0 -20 20v142q0 12 -13 12h-342q-12 0 -12 -12v-1157q0 -12 12 -13h129q20 0 21 -20v-62q0 -20 -21 -20h-399q-20 0 -20 20v62q0 20 20 20h129q12 0 12 13v1157q0 12 -12 12h-342q-12 0 -12 -12v-142q0 -20 -21 -20h-69
q-20 0 -21 20v242q0 20 21 21h1030q20 -1 20 -21zM645 -135v-86q0 -25 -10 -45l-66 -117q-8 -16 -24 -16t-17 18v246q0 20 21 20h76q20 0 20 -20z" />
    <glyph glyph-name="uni0163" unicode="&#x163;" horiz-adv-x="641" 
d="M330 1270v-281q0 -12 12 -12h184q20 0 21 -21v-61q0 -20 -21 -21h-184q-12 0 -12 -12v-596q0 -96 36 -131t123 -35h37q20 0 21 -20v-64q0 -20 -21 -20h-53q-137 0 -195 60t-59 204v602q0 12 -12 12h-103q-20 0 -20 21v61q0 20 20 21h103q12 0 12 12v281q0 20 21 20h69
q21 0 21 -20zM428 -135v-86q0 -25 -10 -45l-66 -117q-8 -16 -24 -16t-17 18v246q0 20 21 20h76q20 0 20 -20z" />
    <glyph glyph-name="Tcaron" unicode="&#x164;" horiz-adv-x="1173" 
d="M1122 1372v-242q0 -20 -20 -20h-70q-20 0 -20 20v142q0 12 -13 12h-342q-12 0 -12 -12v-1157q0 -12 12 -13h129q20 0 21 -20v-62q0 -20 -21 -20h-399q-20 0 -20 20v62q0 20 20 20h129q12 0 12 13v1157q0 12 -12 12h-342q-12 0 -12 -12v-142q0 -20 -21 -20h-69
q-20 0 -21 20v242q0 20 21 21h1030q20 -1 20 -21zM608 1544h-47q-20 0 -33 19l-184 249q-6 8 -3 14t11 7h51q19 0 35 -21l144 -174h4l145 174q18 21 35 21h51q22 0 8 -21l-186 -249q-15 -19 -31 -19z" />
    <glyph glyph-name="tcaron" unicode="&#x165;" horiz-adv-x="641" 
d="M330 1270v-281q0 -12 12 -12h184q20 0 21 -21v-61q0 -20 -21 -21h-184q-12 0 -12 -12v-596q0 -96 36 -131t123 -35h37q20 0 21 -20v-64q0 -20 -21 -20h-53q-137 0 -195 60t-59 204v602q0 12 -12 12h-103q-20 0 -20 21v61q0 20 20 21h103q12 0 12 12v281q0 20 21 20h69
q21 0 21 -20zM588 1372v-98q0 -23 -10 -43l-66 -117q-8 -18 -24 -18t-17 20v256q0 20 21 21h75q21 -1 21 -21z" />
    <glyph glyph-name="Tbar" unicode="&#x166;" horiz-adv-x="1173" 
d="M1122 1372v-242q0 -20 -20 -20h-70q-20 0 -20 20v142q0 12 -13 12h-342q-12 0 -12 -12v-400q0 -12 12 -12h215q20 0 21 -20v-62q0 -20 -21 -20h-215q-12 0 -12 -13v-630q0 -12 12 -13h129q20 0 21 -20v-62q0 -20 -21 -20h-399q-20 0 -20 20v62q0 20 20 20h129q12 0 12 13
v630q0 12 -12 13h-215q-20 0 -20 20v62q0 20 20 20h215q12 0 12 12v400q0 12 -12 12h-342q-12 0 -12 -12v-142q0 -20 -21 -20h-69q-20 0 -21 20v242q0 20 21 21h1030q20 -1 20 -21z" />
    <glyph glyph-name="tbar" unicode="&#x167;" horiz-adv-x="641" 
d="M330 1270v-281q0 -12 12 -12h184q20 0 21 -21v-61q0 -20 -21 -21h-184q-12 0 -12 -12v-145q0 -12 12 -12h158q20 0 20 -21v-53q0 -20 -20 -21h-158q-12 0 -12 -12v-330q0 -96 34.5 -132t122.5 -36h39q20 0 21 -20v-64q0 -20 -21 -20h-55q-137 0 -194.5 60.5t-57.5 203.5
v338q0 12 -12 12h-82q-20 0 -21 21v53q0 20 21 21h82q12 0 12 12v145q0 12 -12 12h-103q-20 0 -20 21v61q0 20 20 21h103q12 0 12 12v281q0 20 21 20h69q21 0 21 -20z" />
    <glyph glyph-name="Utilde" unicode="&#x168;" horiz-adv-x="1361" 
d="M1300 1372v-61q0 -20 -20 -21h-119q-12 0 -12 -12v-797q0 -245 -123 -373t-345 -128t-345 128t-123 373v797q0 12 -12 12h-119q-20 0 -21 21v61q0 20 21 21h381q20 0 20 -21v-61q0 -20 -20 -21h-121q-12 0 -12 -12v-797q0 -193 91 -292t260 -99t260 99t91 292v797
q0 12 -12 12h-121q-20 0 -20 21v61q0 20 20 21h381q20 -1 20 -21zM788 1696q63 0 125 67q5 6 11 4t6 -10v-61q0 -16 -15 -33q-61 -61 -120 -61t-124 40q-102 63 -164 23q-26 -16 -61 -51q-18 -14 -18 6v61q0 14 16 31q55 62 120 62t126 -39q60 -39 98 -39z" />
    <glyph glyph-name="utilde" unicode="&#x169;" horiz-adv-x="1165" 
d="M319 379q0 -293 248 -293q113 0 186 74t72 196v506q0 12 -12 12h-115q-20 0 -20 21v61q0 20 20 21h217q21 -1 21 -21v-841q0 -12 12 -13h115q20 0 20 -20v-62q0 -20 -20 -20h-217q-20 0 -21 20v115h-2q-37 -74 -111 -115t-169 -40q-160 0 -247 96t-87 274v512
q0 12 -12 12h-115q-20 0 -21 21v61q0 20 21 21h217q20 0 20 -21v-577zM771 1357q40 42 40 19v-61q0 -16 -14 -33q-61 -61 -121 -61t-124 40q-102 63 -164 23q-26 -16 -60 -51q-19 -14 -19 6v61q0 14 17 31q56 61 120 61t125 -38q61 -39 111 -39q49 0 89 42z" />
    <glyph glyph-name="Umacron" unicode="&#x16a;" horiz-adv-x="1361" 
d="M1300 1372v-61q0 -20 -20 -21h-119q-12 0 -12 -12v-797q0 -245 -123 -373t-345 -128t-345 128t-123 373v797q0 12 -12 12h-119q-20 0 -21 21v61q0 20 21 21h381q20 0 20 -21v-61q0 -20 -20 -21h-121q-12 0 -12 -12v-797q0 -193 91 -292t260 -99t260 99t91 292v797
q0 12 -12 12h-121q-20 0 -20 21v61q0 20 20 21h381q20 -1 20 -21zM946 1712v-53q0 -20 -20 -21h-492q-20 0 -20 21v53q0 20 20 21h492q20 -1 20 -21z" />
    <glyph glyph-name="umacron" unicode="&#x16b;" horiz-adv-x="1165" 
d="M319 379q0 -293 248 -293q113 0 186 74t72 196v506q0 12 -12 12h-115q-20 0 -20 21v61q0 20 20 21h217q21 -1 21 -21v-841q0 -12 12 -13h115q20 0 20 -20v-62q0 -20 -20 -20h-217q-20 0 -21 20v115h-2q-37 -74 -111 -115t-169 -40q-160 0 -247 96t-87 274v512
q0 12 -12 12h-115q-20 0 -21 21v61q0 20 21 21h217q20 0 20 -21v-577zM825 1339v-53q0 -20 -20 -20h-492q-20 0 -20 20v53q0 20 20 21h492q20 -1 20 -21z" />
    <glyph glyph-name="Ubreve" unicode="&#x16c;" horiz-adv-x="1361" 
d="M1300 1372v-61q0 -20 -20 -21h-119q-12 0 -12 -12v-797q0 -245 -123 -373t-345 -128t-345 128t-123 373v797q0 12 -12 12h-119q-20 0 -21 21v61q0 20 21 21h381q20 0 20 -21v-61q0 -20 -20 -21h-121q-12 0 -12 -12v-797q0 -193 91 -292t260 -99t260 99t91 292v797
q0 12 -12 12h-121q-20 0 -20 21v61q0 20 20 21h381q20 -1 20 -21zM678 1573q-104 0 -173 58t-81 153v4q0 16 18 16h39q18 0 25 -20q35 -121 173 -121t175 121q7 20 23 20h38q24 0 19 -20q-14 -94 -83 -152t-173 -59z" />
    <glyph glyph-name="ubreve" unicode="&#x16d;" horiz-adv-x="1165" 
d="M319 379q0 -293 248 -293q113 0 186 74t72 196v506q0 12 -12 12h-115q-20 0 -20 21v61q0 20 20 21h217q21 -1 21 -21v-841q0 -12 12 -13h115q20 0 20 -20v-62q0 -20 -20 -20h-217q-20 0 -21 20v115h-2q-37 -74 -111 -115t-169 -40q-160 0 -247 96t-87 274v512
q0 12 -12 12h-115q-20 0 -21 21v61q0 20 21 21h217q20 0 20 -21v-577zM305 1384q0 16 19 17h38q18 0 25 -21q33 -123 172 -123t176 123q6 20 23 21h39q23 0 18 -21q-14 -96 -83 -154t-172 -58t-173 58q-70 60 -82 154v4z" />
    <glyph glyph-name="Uring" unicode="&#x16e;" horiz-adv-x="1361" 
d="M1300 1372v-61q0 -20 -20 -21h-119q-12 0 -12 -12v-797q0 -245 -123 -373t-345 -128t-345 128t-123 373v797q0 12 -12 12h-119q-20 0 -21 21v61q0 20 21 21h381q20 0 20 -21v-61q0 -20 -20 -21h-121q-12 0 -12 -12v-797q0 -193 91 -292t260 -99t260 99t91 292v797
q0 12 -12 12h-121q-20 0 -20 21v61q0 20 20 21h381q20 -1 20 -21zM569 1692q0 -49 30 -82t79 -33t79 33t29 82q0 49 -29 82q-30 33 -79 33t-79 -33t-30 -82zM858 1692q0 -78 -51 -129t-129 -51t-129 50q-51 52 -51 130t51 129t129 51t129 -51t51 -129z" />
    <glyph glyph-name="uring" unicode="&#x16f;" horiz-adv-x="1165" 
d="M319 379q0 -293 248 -293q113 0 186 74t72 196v506q0 12 -12 12h-115q-20 0 -20 21v61q0 20 20 21h217q21 -1 21 -21v-841q0 -12 12 -13h115q20 0 20 -20v-62q0 -20 -20 -20h-217q-20 0 -21 20v115h-2q-37 -74 -111 -115t-169 -40q-160 0 -247 96t-87 274v512
q0 12 -12 12h-115q-20 0 -21 21v61q0 20 21 21h217q20 0 20 -21v-577zM668 1288q0 49 -30 82t-79 33t-79 -33t-30 -82t30 -82q30 -32 79 -32t79 32t30 82zM739 1288q0 -78 -51 -129t-129 -51t-129 51t-51 129t51 129t129 51t129 -51t51 -129z" />
    <glyph glyph-name="Uhungarumlaut" unicode="&#x170;" horiz-adv-x="1361" 
d="M1300 1372v-61q0 -20 -20 -21h-119q-12 0 -12 -12v-797q0 -245 -123 -373t-345 -128t-345 128t-123 373v797q0 12 -12 12h-119q-20 0 -21 21v61q0 20 21 21h381q20 0 20 -21v-61q0 -20 -20 -21h-121q-12 0 -12 -12v-797q0 -193 91 -292t260 -99t260 99t91 292v797
q0 12 -12 12h-121q-20 0 -20 21v61q0 20 20 21h381q20 -1 20 -21zM819 1565h-51q-8 0 -11 6t3 14l137 215q14 21 33 21h69q23 0 9 -21l-156 -215q-13 -20 -33 -20zM565 1565h-51q-8 0 -11 6t3 14l137 215q12 20 33 21h67q23 0 9 -21l-154 -215q-14 -20 -33 -20z" />
    <glyph glyph-name="uhungarumlaut" unicode="&#x171;" horiz-adv-x="1165" 
d="M319 379q0 -293 248 -293q113 0 186 74t72 196v506q0 12 -12 12h-115q-20 0 -20 21v61q0 20 20 21h217q21 -1 21 -21v-841q0 -12 12 -13h115q20 0 20 -20v-62q0 -20 -20 -20h-217q-20 0 -21 20v115h-2q-37 -74 -111 -115t-169 -40q-160 0 -247 96t-87 274v512
q0 12 -12 12h-115q-20 0 -21 21v61q0 20 21 21h217q20 0 20 -21v-577zM690 1143h-49q-8 0 -11 6t1 14l137 250q12 20 33 21h65q20 -2 11 -21l-156 -252q-11 -18 -31 -18zM436 1143h-49q-22 0 -12 20l137 250q12 20 33 21h67q20 -2 11 -21l-156 -252q-11 -18 -31 -18z" />
    <glyph glyph-name="Uogonek" unicode="&#x172;" horiz-adv-x="1361" 
d="M545 -206q0 73 98 188q-205 10 -317.5 137t-112.5 362v797q0 12 -12 12h-119q-20 0 -21 21v61q0 20 21 21h381q20 0 20 -21v-61q0 -20 -20 -21h-121q-12 0 -12 -12v-797q0 -193 91 -292t260 -99t260 99.5t91 291.5v797q0 12 -12 12h-121q-20 0 -20 21v61q0 20 20 21h381
q20 -1 20 -21v-61q0 -20 -20 -21h-119q-12 0 -12 -12v-797q0 -223 -103.5 -350t-289.5 -147q-68 -68 -89.5 -108t-21.5 -75q0 -57 60 -57q31 0 48 11t23 11t12 -10l21 -39q4 -8 4 -16t-14 -19t-47.5 -22.5t-81.5 -11.5t-86.5 36.5t-38.5 109.5z" />
    <glyph glyph-name="uogonek" unicode="&#x173;" horiz-adv-x="1165" 
d="M319 379q0 -293 241 -293q120 0 192.5 73.5t72.5 196.5v506q0 12 -12 12h-115q-20 0 -20 21v61q0 20 20 21h217q21 -1 21 -21v-841q0 -12 12 -13h115q20 0 20 -20v-62q0 -20 -20 -20h-133q-100 -72 -135 -117t-35 -82q0 -57 59 -57q27 0 47 11t25 11q6 0 12 -10l23 -43
l2 -8q0 -8 -15 -21t-47 -24.5t-80 -11.5t-87.5 36t-39.5 100t42 117.5t124 110.5v123h-2q-37 -74 -110.5 -114.5t-169.5 -40.5q-160 0 -247 96t-87 274v512q0 12 -12 12h-115q-20 0 -21 21v61q0 20 21 21h217q20 0 20 -21v-577z" />
    <glyph glyph-name="Wcircumflex" unicode="&#x174;" horiz-adv-x="1767" 
d="M1745 1372v-61q0 -20 -21 -21h-67q-12 0 -17 -12l-307 -1258q-5 -20 -24 -20h-72q-16 0 -23 20l-327 1149h-4l-330 -1149q-6 -20 -23 -20h-71q-18 0 -25 20l-309 1260q-4 10 -16 10h-66q-20 0 -20 21v61q0 20 20 21h342q20 0 21 -21v-61q0 -20 -21 -21h-125
q-16 0 -12 -16l252 -1055h4l319 1153q6 20 25 21h72q18 0 24 -21l326 -1149h4l252 1053q4 14 -10 14h-136q-20 0 -20 21v61q0 20 20 21h344q21 -1 21 -21zM1114 1544h-51q-19 0 -35 21l-145 174h-4l-144 -174q-18 -21 -35 -21h-51q-8 0 -11 6t3 15l184 252q12 18 33 18h47
q17 0 31 -18l186 -252q6 -9 4 -15t-12 -6z" />
    <glyph glyph-name="wcircumflex" unicode="&#x175;" horiz-adv-x="1538" 
d="M1516 956v-61q0 -20 -21 -21h-65q-12 0 -17 -12l-274 -842q-6 -20 -25 -20h-61q-18 0 -25 20l-256 777h-4l-258 -777q-6 -20 -25 -20h-61q-18 0 -25 20l-274 842q-2 12 -16 12h-66q-20 0 -20 21v61q0 20 20 21h313q20 0 21 -21v-61q0 -20 -21 -21h-104q-14 0 -10 -14
l217 -688h2l252 784q6 20 24 21h64q18 0 24 -21l258 -782h4l216 686q4 14 -11 14h-102q-20 0 -21 21v61q0 20 21 21h305q21 -1 21 -21zM1001 1143h-51q-17 0 -35 20l-145 174h-4l-143 -174q-17 -20 -35 -20h-51q-8 0 -12 6q-3 6 3 14l185 252q12 18 32 19h48q16 0 30 -19
l187 -252q15 -20 -9 -20z" />
    <glyph glyph-name="Ycircumflex" unicode="&#x176;" horiz-adv-x="1116" 
d="M1102 1372v-61q0 -20 -21 -21h-65q-10 0 -19 -12l-381 -707v-456q0 -12 13 -13h127q20 0 20 -20v-62q0 -20 -20 -20h-396q-20 0 -20 20v62q0 20 20 20h127q12 0 13 13v456l-383 705q-6 14 -19 14h-63q-20 0 -21 21v61q0 20 21 21h344q20 0 20 -21v-61q0 -20 -20 -21h-119
q-8 0 -11 -5t1 -11l309 -576h4l309 578q5 14 -10 14h-125q-20 0 -20 21v61q0 20 20 21h344q21 -1 21 -21zM788 1544h-51q-17 0 -35 21l-145 174h-4l-143 -174q-18 -21 -35 -21h-51q-8 0 -12 6q-3 6 3 15l185 252q12 18 32 18h48q16 0 30 -18l187 -252q6 -9 4 -15t-13 -6z
" />
    <glyph glyph-name="ycircumflex" unicode="&#x177;" horiz-adv-x="991" 
d="M977 956v-61q0 -20 -21 -21h-63q-12 0 -16 -12l-367 -958q-75 -203 -169 -250q-46 -23 -112 -23h-43q-20 0 -20 21v65q0 20 20 21h37q66 0 105 37t80 145l38 100l-327 842q-4 12 -17 12h-63q-20 0 -21 21v61q0 20 21 21h311q20 0 21 -21v-61q0 -20 -21 -21h-102
q-14 0 -8 -16l260 -692h4l258 692q6 16 -8 16h-101q-20 0 -20 21v61q0 20 20 21h303q21 -1 21 -21zM680 1143q-17 0 -35 20l-145 174h-4l-144 -174q-17 -20 -35 -20h-51q-8 0 -11 6t3 14l184 252q12 18 33 19h47q17 0 31 -19l186 -252q15 -20 -8 -20h-51z" />
    <glyph glyph-name="Ydieresis" unicode="&#x178;" horiz-adv-x="1116" 
d="M1102 1372v-61q0 -20 -21 -21h-65q-10 0 -19 -12l-381 -707v-456q0 -12 13 -13h127q20 0 20 -20v-62q0 -20 -20 -20h-396q-20 0 -20 20v62q0 20 20 20h127q12 0 13 13v456l-383 705q-6 14 -19 14h-63q-20 0 -21 21v61q0 20 21 21h344q20 0 20 -21v-61q0 -20 -20 -21h-119
q-8 0 -11 -5t1 -11l309 -576h4l309 578q5 14 -10 14h-125q-20 0 -20 21v61q0 20 20 21h344q21 -1 21 -21zM821 1745v-115q0 -20 -20 -20h-80q-20 0 -21 20v115q0 20 21 20h80q20 0 20 -20zM412 1745v-115q0 -20 -21 -20h-80q-20 0 -20 20v115q0 20 20 20h80q21 0 21 -20z
" />
    <glyph glyph-name="Zacute" unicode="&#x179;" horiz-adv-x="1105" 
d="M1010 1372v-69q0 -12 -9 -27l-772 -1163v-2h658q12 0 12 12v143q0 20 21 21h69q20 0 21 -21v-246q0 -20 -21 -20h-876q-20 0 -21 20v70q0 16 10 29l770 1161v2h-628q-12 0 -13 -12v-140q0 -20 -20 -20h-70q-20 0 -20 20v242q0 20 20 21h848q21 -1 21 -21zM539 1565h-54
q-10 0 -13 6t5 14l168 213q14 20 37 21h82q22 -2 8 -21l-197 -215q-15 -18 -36 -18z" />
    <glyph glyph-name="zacute" unicode="&#x17a;" horiz-adv-x="993" 
d="M860 956v-63q0 -10 -10 -27l-598 -762v-2h498q12 0 12 13v133q0 20 20 20h68q20 0 20 -20v-228q0 -20 -20 -20h-717q-20 0 -20 20v60q0 12 10 29l600 763v2h-465q-12 0 -12 -12v-131q0 -20 -21 -20h-65q-20 0 -21 20v225q0 20 21 21h680q20 -1 20 -21zM481 1143h-51
q-22 0 -12 20l157 250q12 20 35 21h78q24 -2 10 -21l-180 -250q-18 -20 -37 -20z" />
    <glyph glyph-name="Zdotaccent" unicode="&#x17b;" horiz-adv-x="1105" 
d="M1010 1372v-69q0 -12 -9 -27l-772 -1163v-2h658q12 0 12 12v143q0 20 21 21h69q20 0 21 -21v-246q0 -20 -21 -20h-876q-20 0 -21 20v70q0 16 10 29l770 1161v2h-628q-12 0 -13 -12v-140q0 -20 -20 -20h-70q-20 0 -20 20v242q0 20 20 21h848q21 -1 21 -21zM621 1745v-115
q0 -20 -21 -20h-90q-20 0 -21 20v115q0 20 21 20h90q21 0 21 -20z" />
    <glyph glyph-name="zdotaccent" unicode="&#x17c;" horiz-adv-x="993" 
d="M860 956v-63q0 -10 -10 -27l-598 -762v-2h498q12 0 12 13v133q0 20 20 20h68q20 0 20 -20v-228q0 -20 -20 -20h-717q-20 0 -20 20v60q0 12 10 29l600 763v2h-465q-12 0 -12 -12v-131q0 -20 -21 -20h-65q-20 0 -21 20v225q0 20 21 21h680q20 -1 20 -21zM557 1372v-115
q0 -20 -20 -20h-91q-20 0 -20 20v115q0 20 20 21h91q20 -1 20 -21z" />
    <glyph glyph-name="Zcaron" unicode="&#x17d;" horiz-adv-x="1105" 
d="M1010 1372v-69q0 -12 -9 -27l-772 -1163v-2h658q12 0 12 12v143q0 20 21 21h69q20 0 21 -21v-246q0 -20 -21 -20h-876q-20 0 -21 20v70q0 16 10 29l770 1161v2h-628q-12 0 -13 -12v-140q0 -20 -20 -20h-70q-20 0 -20 20v242q0 20 20 21h848q21 -1 21 -21zM580 1544h-48
q-20 0 -32 19l-185 249q-6 8 -3 14t12 7h51q17 0 35 -21l143 -174h4l145 174q18 21 35 21h51q23 0 9 -21l-187 -249q-15 -19 -30 -19z" />
    <glyph glyph-name="zcaron" unicode="&#x17e;" horiz-adv-x="993" 
d="M860 956v-63q0 -10 -10 -27l-598 -762v-2h498q12 0 12 13v133q0 20 20 20h68q20 0 20 -20v-228q0 -20 -20 -20h-717q-20 0 -20 20v60q0 12 10 29l600 763v2h-465q-12 0 -12 -12v-131q0 -20 -21 -20h-65q-20 0 -21 20v225q0 20 21 21h680q20 -1 20 -21zM512 1143h-47
q-20 0 -33 18l-184 250q-6 8 -3 14t11 7h51q18 0 35 -21l143 -174h4l146 174q16 20 35 21h51q22 -2 8 -21l-186 -250q-14 -18 -31 -18z" />
    <glyph glyph-name="florin" unicode="&#x192;" 
d="M942 1372v-63q0 -20 -20 -21h-50q-84 0 -124.5 -40t-55.5 -142l-47 -297h205q20 0 20 -21v-55q0 -20 -20 -20h-219l-121 -789q-27 -164 -93.5 -228.5t-205.5 -64.5h-43q-20 0 -21 21v63q0 20 21 21h47q86 0 127 39t57 143l121 795h-176q-20 0 -20 20v55q0 20 20 21h193
l45 293q25 160 91 225.5t206 65.5h43q20 -1 20 -21z" />
    <glyph glyph-name="Scommaaccent" unicode="&#x218;" horiz-adv-x="1202" 
d="M995 1300v-217q0 -20 -20 -20h-70q-20 0 -20 20v144q0 17 -13 20q-118 55 -272 55t-236 -69q-82 -70 -81 -188q-1 -118 69 -181t244 -90l82 -12q203 -31 298 -125t95 -268t-124 -282q-124 -107 -363 -107t-422 114q-10 6 -10 21v221q0 20 20 20h70q20 0 20 -20v-150
q0 -12 10 -18q150 -78 322 -78t265 74t93 199t-70 193t-251 95l-72 11q-205 28 -300 120t-95 262t118 270t330 100q212 1 369 -91q14 -8 14 -23zM659 -135v-86q0 -25 -10 -45l-65 -117q-8 -16 -24 -16t-17 18v246q0 20 20 20h76q20 0 20 -20z" />
    <glyph glyph-name="scommaaccent" unicode="&#x219;" horiz-adv-x="968" 
d="M799 729q0 -20 -21 -20h-65q-20 0 -21 20v115q0 12 -10 16q-93 37 -205 37q-113 0 -173 -44t-60 -121t50 -117t171 -54l102 -12q287 -35 287 -270q0 -141 -98 -221t-284 -78q-186 0 -333 81q-12 6 -12 25v188q0 20 20 21h66q20 0 20 -21v-124q0 -12 9 -19
q106 -51 238 -51t198 49t66 133t-49 126q-48 42 -177 56l-102 13q-283 33 -283 271q0 122 92 196t259 74t298 -64q16 -8 17 -25v-180zM545 -135v-86q0 -25 -10 -45l-66 -117q-9 -16 -25 -16t-16 18v246q0 20 21 20h75q21 0 21 -20z" />
    <glyph glyph-name="uni021A" unicode="&#x21a;" horiz-adv-x="1173" 
d="M1122 1372v-242q0 -20 -20 -20h-70q-20 0 -20 20v142q0 12 -13 12h-342q-12 0 -12 -12v-1157q0 -12 12 -13h129q20 0 21 -20v-62q0 -20 -21 -20h-399q-20 0 -20 20v62q0 20 20 20h129q12 0 12 13v1157q0 12 -12 12h-342q-12 0 -12 -12v-142q0 -20 -21 -20h-69
q-20 0 -21 20v242q0 20 21 21h1030q20 -1 20 -21zM645 -135v-86q0 -25 -10 -45l-66 -117q-8 -16 -24 -16t-17 18v246q0 20 21 20h76q20 0 20 -20z" />
    <glyph glyph-name="uni021B" unicode="&#x21b;" horiz-adv-x="641" 
d="M330 1270v-281q0 -12 12 -12h184q20 0 21 -21v-61q0 -20 -21 -21h-184q-12 0 -12 -12v-596q0 -96 36 -131t123 -35h37q20 0 21 -20v-64q0 -20 -21 -20h-53q-137 0 -195 60t-59 204v602q0 12 -12 12h-103q-20 0 -20 21v61q0 20 20 21h103q12 0 12 12v281q0 20 21 20h69
q21 0 21 -20zM428 -135v-86q0 -25 -10 -45l-66 -117q-8 -16 -24 -16t-17 18v246q0 20 21 20h76q20 0 20 -20z" />
    <glyph glyph-name="dotlessj" unicode="&#x237;" horiz-adv-x="565" 
d="M346 956v-1069q0 -141 -57.5 -198.5t-194.5 -57.5h-22q-20 0 -21 21v61q0 20 21 21h18q84 0 115 30.5t31 120.5v977q0 12 -13 12h-114q-20 0 -21 21v61q0 20 21 21h217q20 -1 20 -21z" />
    <glyph glyph-name="circumflex" unicode="&#x2c6;" horiz-adv-x="860" 
d="M664 1143h-52q-17 0 -34 20l-146 174h-4l-143 -174q-17 -20 -35 -20h-51q-8 0 -11.5 6t2.5 14l185 252q12 18 33 19h47q15 0 30 -19l187 -252q15 -20 -8 -20z" />
    <glyph glyph-name="caron" unicode="&#x2c7;" horiz-adv-x="860" 
d="M455 1143h-47q-20 0 -33 18l-185 250q-6 8 -3 14.5t12 6.5h51q16 0 35 -21l143 -174h4l146 174q18 21 34 21h52q10 0 12 -6.5t-4 -14.5l-187 -250q-14 -18 -30 -18z" />
    <glyph glyph-name="uni02C9" unicode="&#x2c9;" horiz-adv-x="862" 
d="M700 1712v-53q0 -20 -20 -21h-500q-20 0 -20 21v53q0 20 20 21h500q20 -1 20 -21z" />
    <glyph glyph-name="breve" unicode="&#x2d8;" horiz-adv-x="862" 
d="M432 1167q-104 0 -174 59.5t-82 153.5v4q0 16 19 17h38q18 0 25 -21q33 -123 172 -123t176 123q6 20 23 21h39q23 0 18 -21q-14 -96 -82 -154.5t-172 -58.5z" />
    <glyph glyph-name="dotaccent" unicode="&#x2d9;" horiz-adv-x="862" 
d="M496 1372v-115q0 -20 -21 -20h-90q-20 0 -20 20v115q0 20 20 21h90q21 -1 21 -21z" />
    <glyph glyph-name="ring" unicode="&#x2da;" horiz-adv-x="862" 
d="M322 1288q0 -49 29.5 -81.5t78.5 -32.5t79 32.5t30 81.5t-30 82t-79 33t-78.5 -33t-29.5 -82zM610 1288q0 -78 -51 -129t-129 -51t-129 51t-51 129t51 129t129 51t129 -51t51 -129z" />
    <glyph glyph-name="ogonek" unicode="&#x2db;" horiz-adv-x="862" 
d="M387 -199q0 -57 59 -57q26 0 46 11t26 11t12 -10l23 -43l2 -8q0 -8 -15 -21t-47.5 -24.5t-80.5 -11.5t-86.5 36t-38.5 96t32.5 110t86.5 90t77 40h70q8 0 10 -8t-6 -12q-100 -72 -135 -117t-35 -82z" />
    <glyph glyph-name="tilde" unicode="&#x2dc;" horiz-adv-x="862" 
d="M639 1357q41 42 41 19v-61q0 -16 -14 -33q-61 -61 -120 -61t-124 40q-64 39 -102 39t-63.5 -16t-59.5 -51q-8 -6 -13.5 -4t-5.5 10v61q0 14 17 31q55 61 119 61t126 -38q61 -39 110 -39q48 0 89 42z" />
    <glyph glyph-name="hungarumlaut" unicode="&#x2dd;" horiz-adv-x="860" 
d="M498 1143h-49q-8 0 -11.5 6t0.5 14l137 250q12 20 33 21h66q8 0 11 -6.5t-1 -14.5l-156 -252q-11 -18 -30 -18zM244 1143h-49q-23 0 -13 20l137 250q12 20 33 21h68q8 0 11 -6.5t-1 -14.5l-156 -252q-11 -18 -30 -18z" />
    <glyph glyph-name="uni0326" unicode="&#x326;" horiz-adv-x="0" 
d="M489 -135v-86q0 -25 -10 -45l-65 -117q-8 -16 -24 -16t-17 18v246q0 20 20 20h76q20 0 20 -20z" />
    <glyph glyph-name="uni0394" unicode="&#x394;" horiz-adv-x="1220" 
d="M993 104q14 0 11 13l-390 1087h-6l-393 -1087q-2 -12 12 -13h766zM1141 0h-1061q-23 0 -17 20l488 1352q6 20 24 21h74q17 -1 23 -21l485 -1352l2 -6q0 -14 -18 -14z" />
    <glyph glyph-name="uni03A9" unicode="&#x3a9;" horiz-adv-x="1253" 
d="M1120 744q0 -228 -22 -342t-67 -182q-46 -68 -126 -114v-4h178q20 0 21 -20v-62q0 -20 -21 -20h-356q-20 0 -20 20v66q0 18 20 25q111 39 169 103t82 178q24 112 23 337t-38 339q-76 233 -335 234t-339 -235q-37 -118 -37 -341q0 -224 24 -336t81 -176q58 -64 169 -103
q20 -6 21 -25v-66q0 -20 -21 -20h-356q-20 0 -20 20v62q0 20 20 20h178v4q-80 45 -126 113q-89 132 -89 445t41 434q49 156 166 236q116 80 286 79q170 0 287 -80t162 -220q45 -141 45 -369z" />
    <glyph glyph-name="uni03BC" unicode="&#x3bc;" horiz-adv-x="1173" 
d="M944 956v-841q0 -12 12 -13h115q20 0 21 -20v-62q0 -20 -21 -20h-217q-20 0 -20 20v119h-3q-33 -74 -105.5 -116.5t-168.5 -42.5q-168 0 -235 104h-3v-432q0 -20 -20 -21h-70q-20 0 -20 21v1304q0 20 20 21h70q20 0 20 -21v-598q0 -131 63.5 -201.5t183.5 -70.5t194 73.5
t74 198.5v598q0 20 20 21h70q20 -1 20 -21z" />
    <glyph glyph-name="pi" unicode="&#x3c0;" horiz-adv-x="1148" 
d="M1036 956v-65q0 -20 -20 -21h-78q-12 0 -12 -12v-696q0 -37 12 -52.5t41 -15.5h12q20 0 21 -20v-66q0 -20 -21 -20h-22q-84 0 -120 42t-36 130v698q0 12 -12 12h-455q-12 0 -12 -12v-838q0 -20 -21 -20h-71q-20 0 -21 20v838q0 12 -14 12h-76q-20 0 -20 21v65q0 20 20 21
h885q20 -1 20 -21z" />
    <glyph glyph-name="Wgrave" unicode="&#x1e80;" horiz-adv-x="1767" 
d="M1745 1372v-61q0 -20 -21 -21h-67q-12 0 -17 -12l-307 -1258q-5 -20 -24 -20h-72q-16 0 -23 20l-327 1149h-4l-330 -1149q-6 -20 -23 -20h-71q-18 0 -25 20l-309 1260q-4 10 -16 10h-66q-20 0 -20 21v61q0 20 20 21h342q20 0 21 -21v-61q0 -20 -21 -21h-125
q-16 0 -12 -16l252 -1055h4l319 1153q6 20 25 21h72q18 0 24 -21l326 -1149h4l252 1053q4 14 -10 14h-136q-20 0 -20 21v61q0 20 20 21h344q21 -1 21 -21zM911 1565h-53q-20 0 -37 18l-196 215q-6 8 -3 14t11 7h82q23 -1 37 -21l168 -213q8 -8 5 -14t-14 -6z" />
    <glyph glyph-name="wgrave" unicode="&#x1e81;" horiz-adv-x="1538" 
d="M1516 956v-61q0 -20 -21 -21h-65q-12 0 -17 -12l-274 -842q-6 -20 -25 -20h-61q-18 0 -25 20l-256 777h-4l-258 -777q-6 -20 -25 -20h-61q-18 0 -25 20l-274 842q-2 12 -16 12h-66q-20 0 -20 21v61q0 20 20 21h313q20 0 21 -21v-61q0 -20 -21 -21h-104q-14 0 -10 -14
l217 -688h2l252 784q6 20 24 21h64q18 0 24 -21l258 -782h4l216 686q4 14 -11 14h-102q-20 0 -21 21v61q0 20 21 21h305q21 -1 21 -21zM791 1143h-52q-23 0 -37 20l-180 250q-4 8 -4 10q0 10 14 11h78q21 -1 33 -21l158 -250l4 -10q0 -10 -14 -10z" />
    <glyph glyph-name="Wacute" unicode="&#x1e82;" horiz-adv-x="1767" 
d="M1745 1372v-61q0 -20 -21 -21h-67q-12 0 -17 -12l-307 -1258q-5 -20 -24 -20h-72q-16 0 -23 20l-327 1149h-4l-330 -1149q-6 -20 -23 -20h-71q-18 0 -25 20l-309 1260q-4 10 -16 10h-66q-20 0 -20 21v61q0 20 20 21h342q20 0 21 -21v-61q0 -20 -21 -21h-125
q-16 0 -12 -16l252 -1055h4l319 1153q6 20 25 21h72q18 0 24 -21l326 -1149h4l252 1053q4 14 -10 14h-136q-20 0 -20 21v61q0 20 20 21h344q21 -1 21 -21zM911 1565h-53q-10 0 -13 6t5 14l168 213q14 20 37 21h82q22 -2 8 -21l-197 -215q-15 -18 -37 -18z" />
    <glyph glyph-name="wacute" unicode="&#x1e83;" horiz-adv-x="1538" 
d="M1516 956v-61q0 -20 -21 -21h-65q-12 0 -17 -12l-274 -842q-6 -20 -25 -20h-61q-18 0 -25 20l-256 777h-4l-258 -777q-6 -20 -25 -20h-61q-18 0 -25 20l-274 842q-2 12 -16 12h-66q-20 0 -20 21v61q0 20 20 21h313q20 0 21 -21v-61q0 -20 -21 -21h-104q-14 0 -10 -14
l217 -688h2l252 784q6 20 24 21h64q18 0 24 -21l258 -782h4l216 686q4 14 -11 14h-102q-20 0 -21 21v61q0 20 21 21h305q21 -1 21 -21zM797 1143h-52q-22 0 -12 20l158 250q12 20 35 21h78q24 -2 10 -21l-180 -250q-18 -20 -37 -20z" />
    <glyph glyph-name="Wdieresis" unicode="&#x1e84;" horiz-adv-x="1767" 
d="M1745 1372v-61q0 -20 -21 -21h-67q-12 0 -17 -12l-307 -1258q-5 -20 -24 -20h-72q-16 0 -23 20l-327 1149h-4l-330 -1149q-6 -20 -23 -20h-71q-18 0 -25 20l-309 1260q-4 10 -16 10h-66q-20 0 -20 21v61q0 20 20 21h342q20 0 21 -21v-61q0 -20 -21 -21h-125
q-16 0 -12 -16l252 -1055h4l319 1153q6 20 25 21h72q18 0 24 -21l326 -1149h4l252 1053q4 14 -10 14h-136q-20 0 -20 21v61q0 20 20 21h344q21 -1 21 -21zM1147 1745v-115q0 -20 -21 -20h-79q-20 0 -21 20v115q0 20 21 20h79q21 0 21 -20zM737 1745v-115q0 -20 -20 -20h-80
q-20 0 -21 20v115q0 20 21 20h80q20 0 20 -20z" />
    <glyph glyph-name="wdieresis" unicode="&#x1e85;" horiz-adv-x="1538" 
d="M1516 956v-61q0 -20 -21 -21h-65q-12 0 -17 -12l-274 -842q-6 -20 -25 -20h-61q-18 0 -25 20l-256 777h-4l-258 -777q-6 -20 -25 -20h-61q-18 0 -25 20l-274 842q-2 12 -16 12h-66q-20 0 -20 21v61q0 20 20 21h313q20 0 21 -21v-61q0 -20 -21 -21h-104q-14 0 -10 -14
l217 -688h2l252 784q6 20 24 21h64q18 0 24 -21l258 -782h4l216 686q4 14 -11 14h-102q-20 0 -21 21v61q0 20 21 21h305q21 -1 21 -21zM1032 1372v-115q0 -20 -20 -20h-82q-20 0 -21 20v115q0 20 21 21h82q20 -1 20 -21zM625 1372v-115q0 -20 -21 -20h-82q-20 0 -20 20v115
q0 20 20 21h82q21 -1 21 -21z" />
    <glyph glyph-name="Germandbls" unicode="&#x1e9e;" horiz-adv-x="1351" 
d="M1137 1270v-56q0 -12 -11 -26l-256 -320q190 -16 286.5 -114.5t96.5 -315.5t-105.5 -333.5t-307.5 -116.5q-148 0 -230 49q-18 8 -12 29l23 59q8 21 26 12q90 -41 189 -41q145 0 223 89t78 257t-83 248t-268 80h-32q-20 0 -21 21v59q0 14 8 24l275 349q-53 35 -138 58.5
t-169 23.5q-162 0 -260.5 -97.5t-98.5 -275.5v-817q0 -12 12 -13h115q20 0 21 -20v-62q0 -20 -21 -20h-373q-20 0 -20 20v62q0 20 20 20h117q12 0 12 13v819q0 221 129.5 350t355.5 129t400 -115q19 -11 19 -28z" />
    <glyph glyph-name="Ygrave" unicode="&#x1ef2;" horiz-adv-x="1116" 
d="M1102 1372v-61q0 -20 -21 -21h-65q-10 0 -19 -12l-381 -707v-456q0 -12 13 -13h127q20 0 20 -20v-62q0 -20 -20 -20h-396q-20 0 -20 20v62q0 20 20 20h127q12 0 13 13v456l-383 705q-6 14 -19 14h-63q-20 0 -21 21v61q0 20 21 21h344q20 0 20 -21v-61q0 -20 -20 -21h-119
q-8 0 -11 -5t1 -11l309 -576h4l309 578q5 14 -10 14h-125q-20 0 -20 21v61q0 20 20 21h344q21 -1 21 -21zM610 1565h-53q-20 0 -37 18l-196 215q-6 8 -3 14t11 7h82q23 -1 37 -21l167 -213q8 -8 6 -14t-14 -6z" />
    <glyph glyph-name="ygrave" unicode="&#x1ef3;" horiz-adv-x="991" 
d="M977 956v-61q0 -20 -21 -21h-63q-12 0 -16 -12l-367 -958q-75 -203 -169 -250q-46 -23 -112 -23h-43q-20 0 -20 21v65q0 20 20 21h37q66 0 105 37t80 145l38 100l-327 842q-4 12 -17 12h-63q-20 0 -21 21v61q0 20 21 21h311q20 0 21 -21v-61q0 -20 -21 -21h-102
q-14 0 -8 -16l260 -692h4l258 692q6 16 -8 16h-101q-20 0 -20 21v61q0 20 20 21h303q21 -1 21 -21zM569 1143h-51q-23 0 -37 20l-180 250q-4 8 -4 10q0 10 14 11h78q21 -1 33 -21l158 -250l4 -10q0 -10 -15 -10z" />
    <glyph glyph-name="endash" unicode="&#x2013;" horiz-adv-x="1032" 
d="M977 575v-59q0 -20 -21 -20h-880q-20 0 -21 20v59q0 20 21 21h880q21 -1 21 -21z" />
    <glyph glyph-name="emdash" unicode="&#x2014;" horiz-adv-x="1699" 
d="M1645 575v-59q0 -20 -21 -20h-1548q-20 0 -21 20v59q0 20 21 21h1548q21 -1 21 -21z" />
    <glyph glyph-name="quoteleft" unicode="&#x2018;" horiz-adv-x="423" 
d="M272 1374v-287q0 -20 -20 -20h-80q-20 0 -20 20v142q0 31 10 45l69 106q10 14 23 15q18 0 18 -21z" />
    <glyph glyph-name="quoteright" unicode="&#x2019;" horiz-adv-x="423" 
d="M168 1065q-16 0 -16 20v287q0 20 20 21h80q20 -1 20 -21v-141q0 -29 -10 -45l-69 -107q-9 -14 -25 -14z" />
    <glyph glyph-name="quotesinglbase" unicode="&#x201a;" horiz-adv-x="423" 
d="M168 -170q-16 0 -16 20v287q0 20 20 21h80q20 -1 20 -21v-141q0 -31 -10 -45l-69 -107q-9 -14 -25 -14z" />
    <glyph glyph-name="quotedblleft" unicode="&#x201c;" horiz-adv-x="708" 
d="M557 1374v-287q0 -20 -20 -20h-80q-20 0 -21 20v142q0 31 10 45l70 106q10 14 23 15q18 0 18 -21zM272 1374v-287q0 -20 -20 -20h-80q-20 0 -20 20v142q0 31 10 45l69 106q10 14 23 15q18 0 18 -21z" />
    <glyph glyph-name="quotedblright" unicode="&#x201d;" horiz-adv-x="708" 
d="M455 1065q-19 0 -19 20v287q0 20 21 21h80q20 -1 20 -21v-141q0 -29 -10 -45l-70 -107q-10 -14 -22 -14zM168 1065q-16 0 -16 20v287q0 20 20 21h80q20 -1 20 -21v-141q0 -29 -10 -45l-69 -107q-9 -14 -25 -14z" />
    <glyph glyph-name="quotedblbase" unicode="&#x201e;" horiz-adv-x="708" 
d="M436 -94v287q0 20 21 20h80q20 0 20 -20v-142q0 -29 -10 -45l-70 -106q-10 -14 -22 -15q-19 0 -19 21zM152 -94v287q0 20 20 20h80q20 0 20 -20v-142q0 -29 -10 -45l-69 -106q-10 -14 -23 -15q-18 0 -18 21z" />
    <glyph glyph-name="dagger" unicode="&#x2020;" horiz-adv-x="915" 
d="M512 1372v-481q0 -12 12 -12h281q20 0 20 -21v-59q0 -20 -20 -21h-281q-12 0 -12 -12v-1114q0 -20 -20 -21h-68q-20 0 -21 21v1114q0 12 -12 12h-280q-20 0 -21 21v59q0 20 21 21h280q12 0 12 12v481q0 20 21 21h68q20 -1 20 -21z" />
    <glyph glyph-name="daggerdbl" unicode="&#x2021;" horiz-adv-x="915" 
d="M512 1372v-422q0 -12 12 -12h281q20 0 20 -20v-60q0 -20 -20 -20h-281q-12 0 -12 -13v-622q0 -12 12 -13h281q20 0 20 -20v-59q0 -20 -20 -21h-281q-12 0 -12 -12v-426q0 -20 -20 -21h-68q-20 0 -21 21v426q0 12 -12 12h-280q-20 0 -21 21v59q0 20 21 20h280q12 0 12 13
v622q0 12 -12 13h-280q-20 0 -21 20v60q0 20 21 20h280q12 0 12 12v422q0 20 21 21h68q20 -1 20 -21z" />
    <glyph glyph-name="bullet" unicode="&#x2022;" horiz-adv-x="866" 
d="M668 630.5q0 -102.5 -66 -170t-168 -67.5t-168.5 67.5t-66.5 170t66.5 170t168.5 67.5t168 -67.5t66 -170z" />
    <glyph glyph-name="ellipsis" unicode="&#x2026;" horiz-adv-x="1345" 
d="M1192 158v-138q0 -20 -21 -20h-100q-20 0 -20 20v138q0 20 20 20h100q21 0 21 -20zM743 158v-138q0 -20 -20 -20h-100q-20 0 -21 20v138q0 20 21 20h100q20 0 20 -20zM295 158v-138q0 -20 -21 -20h-100q-20 0 -20 20v138q0 20 20 20h100q21 0 21 -20z" />
    <glyph glyph-name="perthousand" unicode="&#x2030;" horiz-adv-x="2197" 
d="M1647 543q-15 -43 -15 -195t15 -192q31 -88 147.5 -88t124.5 91t8 217t-14 167q-31 88 -133 88t-133 -88zM1026 543q-14 -40 -14 -193q0 -152 14 -194q31 -88 147 -88t125 91t9 216t-15 168q-31 88 -133 88t-133 -88zM1998 572q20 -65 19 -224q1 -159 -19 -222
t-78 -102.5t-140 -39.5t-151 46.5t-78 130t-9 217.5t20 197q20 62 78 102t140 40t140 -40t78 -105zM1378 570q20 -67 19 -225q0 -159 -20 -221t-78 -101t-140 -39t-151.5 47.5t-77.5 130t-8 214.5t20 197q20 64 77.5 104t139.5 40t140.5 -40t78.5 -107zM419 760
q130 0 138 90t8 218.5t-14 168.5q-27 88 -132 88t-132 -88q-15 -43 -15 -195.5t15 -193.5q27 -88 132 -88zM419 676q-83 0 -141.5 40t-73.5 92t-19.5 93t-4.5 168.5t20 193.5t78 106t141 40t141 -40.5t74 -92.5t19.5 -92.5t3.5 -165.5t-16 -191q-23 -72 -81 -111.5
t-141 -39.5zM403 -20h-55q-22 0 -12 20l807 1393q10 20 28 20h56q22 0 12 -20l-807 -1393q-10 -20 -29 -20z" />
    <glyph glyph-name="guilsinglleft" unicode="&#x2039;" horiz-adv-x="667" 
d="M504 920q8 0 8 -13v-92q0 -23 -14 -37l-228 -229q-8 -8 0 -17l228 -229q14 -14 14 -37v-92q0 -8 -7 -11t-13 3l-351 360q-6 6 -6 14.5t6 14.5l351 360q4 5 12 5z" />
    <glyph glyph-name="guilsinglright" unicode="&#x203a;" horiz-adv-x="667" 
d="M164 162q-8 0 -8 12v92q0 23 14 37l227 229q8 8 0 17l-227 229q-14 14 -14 37v92q0 8 7 11.5t13 -3.5l350 -360q6 -6 6 -14.5t-6 -14.5l-350 -360q-4 -4 -12 -4z" />
    <glyph glyph-name="fraction" unicode="&#x2044;" horiz-adv-x="307" 
d="M-229 -20h-56q-22 0 -12 20l807 1393q10 20 29 20h55q22 0 12 -20l-807 -1393q-10 -20 -28 -20z" />
    <glyph glyph-name="zero.superior" unicode="&#x2070;" horiz-adv-x="677" 
d="M340 954q55 0 94 27t49 63q17 61 17 255t-14 240t-52 73q-39 27 -94 27t-94 -27t-53 -76q-15 -48 -15 -238t14 -240t54 -77q39 -27 94 -27zM574 1574q22 -66 22 -278q0 -211 -22 -277q-22 -67 -82 -110t-152 -43t-154 43q-61 43 -86 121q-18 74 -18 266t18 267
q55 163 240 163q91 0 152 -43q60 -43 82 -109z" />
    <glyph glyph-name="four.superior" unicode="&#x2074;" horiz-adv-x="677" 
d="M164 1124h244q12 0 12 13v200q0 20 20 21h52q20 0 20 -21v-200q0 -12 12 -13h74q20 0 20 -20v-47q0 -20 -20 -21h-74q-12 0 -12 -12v-123q0 -20 -20 -20h-52q-20 0 -20 20v123q0 12 -12 12h-330q-20 0 -21 21v45q0 16 9 33l272 557q8 20 27 20h59q22 0 12 -20l-272 -566
v-2z" />
    <glyph glyph-name="five.superior" unicode="&#x2075;" horiz-adv-x="677" 
d="M373 1427q164 0 209 -135q14 -45 14 -138q0 -92 -20 -152t-83 -98q-62 -38 -174 -38t-184 52q-16 13 -16 30v135q0 20 20 21h47q20 0 21 -21v-86q0 -12 10 -18q45 -25 119 -25q129 0 156 93q10 37 10 103t-10 101q-30 88 -130 88t-139 -75q-8 -18 -28 -19h-48
q-20 0 -20 21v426q0 20 20 20h414q21 0 21 -20v-47q0 -20 -21 -21h-330q-12 0 -12 -12v-246h2q45 61 152 61z" />
    <glyph glyph-name="six.superior" unicode="&#x2076;" horiz-adv-x="677" 
d="M172 1121q0 -75 46 -121t122 -46t122 46t46 121t-46 121t-122 46t-122 -46t-46 -121zM340 866q-116 0 -190 71q-72 71 -72 174t57 206l209 377q12 18 29 18h61q22 0 12 -20l-188 -338l2 -2q35 25 96 24q109 0 178 -70q68 -70 68 -185t-73 -185t-189 -70z" />
    <glyph glyph-name="seven.superior" unicode="&#x2077;" horiz-adv-x="677" 
d="M596 1692v-58q0 -14 -6 -26l-303 -711q-8 -16 -27 -16h-57q-10 0 -14 7q-3 7 1 15l306 719v2h-287q-12 0 -12 -12v-94q0 -20 -21 -21h-53q-20 0 -21 21v174q0 20 21 20h452q21 0 21 -20z" />
    <glyph glyph-name="eight.superior" unicode="&#x2078;" horiz-adv-x="677" 
d="M168 1114q0 -70 48 -115t124 -45t124 45t48 115t-48 115t-124 45t-124 -45t-48 -115zM188 1498q0 -60 44 -100t108 -40t106 40q43 40 43 100t-43 100q-42 40 -106 40t-108 -40t-44 -100zM584 1497q0 -59 -30 -105t-77 -71v-4q55 -25 92 -78t37 -127q0 -110 -75 -178
t-191 -68t-192 68q-75 68 -74 178q0 72 36 126t91 79v4q-47 25 -77 71t-30 105q0 98 69 164t176 66t176 -66t69 -164z" />
    <glyph glyph-name="nine.superior" unicode="&#x2079;" horiz-adv-x="677" 
d="M172 1471q0 -75 46 -121t122 -45q76 0 122 46q46 47 46 121t-46 120t-122 46t-122 -46t-46 -121zM602 1484q0 -102 -59 -208l-209 -377q-8 -18 -27 -18h-63q-8 0 -13 6q-4 6 0 14l189 338l-2 2q-31 -25 -94 -24q-109 1 -178 71q-68 70 -68 184t73 184q73 71 189 71
t189 -71q73 -70 73 -172z" />
    <glyph glyph-name="plussuperior" unicode="&#x207a;" horiz-adv-x="677" 
d="M383 1509v-180q0 -12 12 -12h178q20 0 21 -21v-47q0 -20 -21 -20h-178q-12 0 -12 -12v-181q0 -20 -21 -20h-47q-20 0 -20 20v181q0 12 -12 12h-179q-20 0 -20 20v47q0 20 20 21h179q12 0 12 12v180q0 20 20 21h47q21 -1 21 -21z" />
    <glyph glyph-name="uni207B" unicode="&#x207b;" horiz-adv-x="677" 
d="M594 1296v-47q0 -20 -21 -20h-469q-20 0 -20 20v47q0 20 20 21h469q21 -1 21 -21z" />
    <glyph glyph-name="equalsuperior" unicode="&#x207c;" horiz-adv-x="677" 
d="M594 1192v-45q0 -20 -21 -21h-469q-20 0 -20 21v45q0 20 20 20h469q21 0 21 -20zM594 1399v-45q0 -20 -21 -21h-469q-20 0 -20 21v45q0 20 20 20h469q21 0 21 -20z" />
    <glyph glyph-name="parenleftsuperior" unicode="&#x207d;" horiz-adv-x="409" 
d="M334 844q0 -12 -17 -13h-43q-14 0 -26 21q-119 201 -119 444.5t119 444.5q12 20 26 20h43q11 0 15 -6t0 -14q-104 -213 -104.5 -444.5t104.5 -444.5q2 -2 2 -8z" />
    <glyph glyph-name="parenrightsuperior" unicode="&#x207e;" horiz-adv-x="407" 
d="M281 1296.5q0 -243.5 -119 -444.5q-12 -20 -27 -21h-43q-10 0 -14 6.5t0 14.5q104 208 104 444.5t-104 444.5q-2 2 -2 11t16 9h43q15 0 27 -20q119 -201 119 -444.5z" />
    <glyph glyph-name="zero.inferior" unicode="&#x2080;" horiz-adv-x="677" 
d="M340 -246q55 0 94 27t49 63q17 61 17 255t-14 240t-52 73q-39 27 -94 27t-94 -27t-53 -76q-15 -48 -15 -238t14 -240t54 -77q39 -27 94 -27zM574 373q22 -67 22 -277t-22 -277t-82 -110t-152 -43t-154 43q-61 43 -86 121q-18 74 -18 266t18 266q55 164 240 164
q91 0 152 -43q60 -43 82 -110z" />
    <glyph glyph-name="one.inferior" unicode="&#x2081;" horiz-adv-x="677" 
d="M162 293q-12 0 -12 14v64q0 20 14 28l145 101q18 12 33 12h51q21 0 21 -20v-711q0 -12 12 -12h137q20 0 21 -21v-47q0 -20 -21 -20h-393q-20 0 -20 20v47q0 20 20 21h137q12 0 12 12v614h-2l-147 -100q-2 -2 -8 -2z" />
    <glyph glyph-name="two.inferior" unicode="&#x2082;" horiz-adv-x="677" 
d="M211 -231h364q20 0 21 -21v-47q0 -20 -21 -20h-466q-20 0 -21 20v47q0 14 12 29l320 370q70 79 70 147t-41 106t-113 38t-123 -32q-10 -8 -10 -21v-88q0 -20 -21 -21h-49q-20 0 -20 21v133q0 20 16 33q86 63 206 63q119 0 184 -62t65 -162t-90 -210l-283 -321v-2z" />
    <glyph glyph-name="three.inferior" unicode="&#x2083;" horiz-adv-x="677" 
d="M594 -104q0 -94 -70 -162t-195 -68t-206 62q-15 12 -17 32v127q0 20 21 21h49q20 0 21 -21v-80q0 -12 10 -20q47 -33 125 -33t123 44t45 112t-46 113t-120 45h-37q-20 0 -21 20v47q0 20 21 21h33q68 0 110 39t41 103q0 64 -40 102q-41 38 -113 38t-121 -32
q-10 -8 -10 -21v-80q0 -20 -21 -20h-49q-20 0 -21 20v123q0 41 109 79q55 19 121 19q110 0 175 -61t65 -170t-107 -176v-2q49 -19 87 -73t38 -148z" />
    <glyph glyph-name="four.inferior" unicode="&#x2084;" horiz-adv-x="677" 
d="M164 -76h244q12 0 12 13v200q0 20 20 21h52q20 0 20 -21v-200q0 -12 12 -13h74q20 0 20 -20v-47q0 -20 -20 -21h-74q-12 0 -12 -12v-123q0 -20 -20 -20h-52q-20 0 -20 20v123q0 12 -12 12h-330q-20 0 -21 21v45q0 16 9 32l272 558q8 20 27 20h59q22 0 12 -20l-272 -566
v-2z" />
    <glyph glyph-name="five.inferior" unicode="&#x2085;" horiz-adv-x="677" 
d="M596 -46q0 -92 -20 -152t-83 -98q-62 -38 -174 -38t-184 51q-16 13 -16 31v135q0 20 20 21h47q20 0 21 -21v-86q0 -12 10 -18q45 -25 119 -25q129 0 156 92q10 37 10 103t-10 102q-30 88 -130 88t-139 -76q-8 -18 -28 -18h-48q-20 0 -20 21v426q0 20 20 20h414
q21 0 21 -20v-48q0 -20 -21 -20h-330q-12 0 -12 -12v-246h2q45 61 152 61q164 0 209 -135q14 -45 14 -138z" />
    <glyph glyph-name="six.inferior" unicode="&#x2086;" horiz-adv-x="677" 
d="M172 -79q0 -75 46 -121t122 -46t122 46t46 121t-46 121t-122 46t-122 -46t-46 -121zM340 -334q-116 0 -190 71q-72 71 -72 174t57 206l209 377q12 18 29 18h61q22 0 12 -20l-188 -338l2 -2q35 25 96 24q109 0 178 -71q68 -71 68 -185t-73 -184t-189 -70z" />
    <glyph glyph-name="seven.inferior" unicode="&#x2087;" horiz-adv-x="677" 
d="M596 492v-58q0 -14 -6 -26l-303 -711q-8 -16 -27 -16h-57q-10 0 -14 7q-3 7 1 15l306 719v2h-287q-12 0 -12 -12v-95q0 -20 -21 -20h-53q-20 0 -21 20v175q0 20 21 20h452q21 0 21 -20z" />
    <glyph glyph-name="eight.inferior" unicode="&#x2088;" horiz-adv-x="677" 
d="M168 -86q0 -70 48 -115t124 -45t124 45t48 115t-48 115t-124 45t-124 -45t-48 -115zM188 298q0 -60 44 -100t108 -40t106 40q43 40 43 100t-43 100q-42 40 -106 40t-108 -40t-44 -100zM94 286q0 109 69 175t176 66t176 -66t69 -164q0 -59 -30 -105t-77 -71v-4
q55 -25 92 -78t37 -127q0 -110 -75 -178t-191 -68t-192 68q-75 68 -74 178q0 72 36 126t91 79v4q-107 56 -107 165z" />
    <glyph glyph-name="nine.inferior" unicode="&#x2089;" horiz-adv-x="677" 
d="M172 271q0 -75 46 -121t122 -46t122 46t46 122q0 74 -46 120t-122 46t-122 -46t-46 -121zM602 284q0 -102 -59 -208l-209 -377q-8 -18 -27 -18h-63q-8 0 -13 6q-4 6 0 14l189 338l-2 2q-31 -25 -94 -25q-109 0 -178 71q-68 71 -68 185t73 184q73 71 189 71t189 -71
q73 -70 73 -172z" />
    <glyph glyph-name="uni208A" unicode="&#x208a;" horiz-adv-x="677" 
d="M383 309v-180q0 -12 12 -12h178q20 0 21 -21v-47q0 -20 -21 -20h-178q-12 0 -12 -13v-180q0 -20 -21 -20h-47q-20 0 -20 20v180q0 12 -12 13h-179q-20 0 -20 20v47q0 20 20 21h179q12 0 12 12v180q0 20 20 21h47q21 -1 21 -21z" />
    <glyph glyph-name="uni208B" unicode="&#x208b;" horiz-adv-x="677" 
d="M594 96v-47q0 -20 -21 -20h-469q-20 0 -20 20v47q0 20 20 21h469q21 -1 21 -21z" />
    <glyph glyph-name="uni208C" unicode="&#x208c;" horiz-adv-x="677" 
d="M594 -8v-45q0 -20 -21 -21h-469q-20 0 -20 21v45q0 20 20 20h469q21 0 21 -20zM594 199v-45q0 -20 -21 -21h-469q-20 0 -20 21v45q0 20 20 20h469q21 0 21 -20z" />
    <glyph glyph-name="uni208D" unicode="&#x208d;" horiz-adv-x="409" 
d="M334 -356q0 -12 -17 -13h-43q-14 0 -26 21q-119 200 -119 444t119 445q12 20 26 20h43q11 0 15 -6t0 -14q-104 -213 -104 -445t104 -444q2 -2 2 -8z" />
    <glyph glyph-name="uni208E" unicode="&#x208e;" horiz-adv-x="409" 
d="M281 96q0 -244 -119 -444q-12 -20 -27 -21h-43q-10 1 -14 7t0 14q106 212 105 446q-1 235 -105 443q-2 2 -2 11t16 9h43q15 0 27 -20q119 -201 119 -445z" />
    <glyph glyph-name="Euro" unicode="&#x20ac;" 
d="M967 1090q0 -20 -21 -21h-63q-20 0 -21 21v133q0 13 -22 33t-83 36.5t-145 16.5t-168.5 -55t-97 -163t-12.5 -204q0 -12 12 -13h436q10 0 14.5 -7t2.5 -15l-17 -49q-6 -20 -28 -21h-408q-12 0 -12 -12v-135q0 -12 12 -12h375q22 0 16 -23l-16 -49q-6 -20 -25 -21h-350
q-12 0 -12 -12q0 -186 30 -267q61 -167 265 -167q63 0 148 20.5t85 57.5v141q0 20 21 21h63q20 0 21 -21v-190q0 -20 -15 -33q-117 -100 -325 -100q-295 0 -377 253q-29 106 -29 285q0 12 -12 12h-96q-20 0 -21 21v51q0 20 21 21h96q12 0 12 12v135q0 12 -12 12h-96
q-20 0 -21 21v51q0 20 21 20h96q12 0 12 13q0 185 27 266q41 125 139 192.5t220 67.5q222 0 345 -102q14 -12 15 -33v-188z" />
    <glyph glyph-name="uni20B9" unicode="&#x20b9;" 
d="M961 1372v-51q0 -20 -21 -21h-272q70 -61 98 -159h174q20 0 21 -21v-51q0 -20 -21 -20h-160v-27q0 -104 -45 -191.5t-140 -139.5t-237 -52h-36l405 -526q8 -10 18 -11h119q20 0 21 -20v-62q0 -20 -21 -20h-182q-16 0 -31 16l-469 619q-12 16 -12 29v57q0 20 20 20h160
q154 0 235 73t81 208q0 18 -2 27h-480q-20 0 -20 20v51q0 20 20 21h461q-29 76 -101.5 117.5t-181.5 41.5h-178q-20 0 -20 21v51q0 20 20 21h756q21 -1 21 -21z" />
    <glyph glyph-name="uni20BA" unicode="&#x20ba;" 
d="M803 940q12 0 12 -14v-64q0 -16 -20 -28l-402 -199v-516q0 -12 13 -13q143 0 250.5 61.5t167 178.5t59.5 279q0 20 20 20h64q20 0 20 -20q0 -297 -159.5 -461t-452.5 -164h-228q-20 0 -20 20v62q0 20 20 20h121q12 0 13 13v463l-119 -60l-8 -2q-12 0 -13 14v64
q0 18 21 29l119 57v164l-119 -60l-8 -2q-12 0 -13 15v63q0 20 21 29l119 59v330q0 12 -13 12h-121q-20 0 -20 21v61q0 20 20 21h379q21 -1 21 -21v-61q0 -20 -21 -21h-120q-12 0 -13 -12v-272l402 200q2 2 8 2q12 0 12 -14v-64q0 -20 -20 -28l-402 -201v-164l402 201
q2 2 8 2z" />
    <glyph glyph-name="uni2113" unicode="&#x2113;" horiz-adv-x="759" 
d="M348 715q197 225 197 421q0 94 -25.5 136.5t-66.5 42.5q-105 0 -105 -256v-344zM645 1146q0 -134 -68.5 -271.5t-228.5 -301.5v-362q0 -125 98 -125q66 0 125 59q17 17 29 -2l31 -43q6 -6 6 -13t-8 -15q-86 -92 -199 -92q-193 0 -192 233v276l-68 -57q-8 -4 -15 -4t-14 8
l-32 47q-14 14 2 29l127 109v432q0 360 215 360q88 0 140 -66.5t52 -200.5z" />
    <glyph glyph-name="uni2117" unicode="&#x2117;" horiz-adv-x="1699" 
d="M936 705q188 1 188 153t-188 152h-174q-12 -1 -12 -13v-280q0 -12 12 -12h174zM1210 858.5q0 -110.5 -69.5 -172t-200.5 -61.5h-178q-12 0 -12 -13v-219q0 -12 12 -12h67q20 0 21 -21v-36q0 -20 -21 -21h-243q-20 0 -21 21v36q0 20 21 21h65q12 0 13 12v606q0 12 -13 13
h-65q-20 0 -21 20v37q0 20 21 21h354q133 0 201.5 -60.5t68.5 -171zM221 696q0 -178 82 -322.5t226.5 -226t320.5 -81.5t320.5 81.5t226.5 226t82 322.5t-82 322.5t-226.5 226.5t-320.5 82t-320.5 -82t-226.5 -226.5t-82 -322.5zM1567 696.5q0 -200.5 -94.5 -364.5
t-258 -258t-364.5 -94t-364.5 94t-258 258t-94.5 364.5t94.5 364.5t258 258t364.5 94t364.5 -94t258 -258t94.5 -364.5z" />
    <glyph glyph-name="trademark" unicode="&#x2122;" horiz-adv-x="1810" 
d="M1708 1372v-45q0 -20 -20 -20h-60q-12 0 -12 -13v-616q0 -12 12 -12h60q20 0 20 -21v-39q0 -20 -20 -20h-230q-20 0 -20 20v39q0 20 20 21h60q12 0 12 12v510h-4l-223 -471q-8 -16 -25 -17h-39q-16 0 -25 17l-223 471h-4v-510q0 -12 12 -12h60q20 0 20 -21v-39
q0 -20 -20 -20h-232q-20 0 -20 20v39q0 20 20 21h62q12 0 12 12v616q0 12 -12 13h-62q-20 0 -20 20v45q0 20 20 21h142q18 0 26 -19l262 -561h7l258 561q10 18 26 19h140q20 -1 20 -21zM723 1372v-141q0 -20 -21 -21h-47q-20 0 -20 21v67q0 12 -12 13h-162q-12 0 -12 -13
v-620q0 -12 12 -12h59q20 0 21 -21v-39q0 -20 -21 -20h-235q-20 0 -21 20v39q0 20 21 21h61q12 0 12 12v620q0 12 -12 13h-162q-12 0 -12 -13v-67q0 -20 -20 -21h-48q-20 0 -20 21v141q0 20 20 21h598q21 -1 21 -21z" />
    <glyph glyph-name="Omega" unicode="&#x2126;" horiz-adv-x="1253" 
d="M1120 744q0 -228 -21.5 -341.5t-67.5 -182t-126 -114.5v-4h178q20 0 21 -20v-62q0 -20 -21 -20h-356q-20 0 -20 20v66q0 18 20 25q111 39 169 103.5t81.5 177t23.5 336.5q1 224 -37 339q-77 236 -336 236t-339 -236q-37 -118 -37 -341t23.5 -335t82 -176.5t168.5 -103.5
q20 -6 21 -25v-66q0 -20 -21 -20h-356q-20 0 -20 20v62q0 20 20 20h178v4q-80 45 -147.5 145t-67.5 410t45 451q45 142 162 221.5t287 79.5t286.5 -80t161.5 -220q45 -141 45 -369z" />
    <glyph glyph-name="estimated" unicode="&#x212e;" horiz-adv-x="1699" 
d="M1323 711q18 0 18 22v377q-90 104 -221 162.5t-272 58.5t-270 -58.5t-220 -160.5v-379q0 -22 21 -22h944zM1624 664h-1245q-20 0 -21 -23v-403q96 -104 225 -161t273 -57t279 67t231 181h117q-115 -139 -283 -215t-362 -76t-371.5 89.5t-285 249t-107.5 358.5
t104.5 358.5t282.5 250.5t388 91t387 -92t282.5 -255t105.5 -363z" />
    <glyph glyph-name="partialdiff" unicode="&#x2202;" horiz-adv-x="1099" 
d="M541 748q-144 0 -226 -90.5t-82 -240.5t78.5 -240.5t220.5 -90.5t228 123t102 350q-125 189 -321 189zM977 694q0 -328 -118 -521t-347 -193q-117 0 -206 55t-136 154.5t-47 223.5t51 223t142.5 155.5t205.5 56.5q215 0 346 -176h2q6 279 -87 459t-277 180
q-119 0 -240 -92q-18 -9 -26 6l-33 51q-4 8 -4 15t10 14q137 109 295 108q231 0 350 -195.5t119 -523.5z" />
    <glyph glyph-name="Delta" unicode="&#x2206;" horiz-adv-x="1218" 
d="M993 104q14 0 11 13l-390 1087h-6l-393 -1087q-2 -12 12 -13h766zM1141 0h-1061q-25 0 -17 20l488 1352q6 20 24 21h74q17 -1 23 -21l485 -1352l2 -6q0 -14 -18 -14z" />
    <glyph glyph-name="product" unicode="&#x220f;" horiz-adv-x="1304" 
d="M1255 1495v-61q0 -20 -20 -21h-121q-12 0 -12 -12v-1749q0 -20 -21 -21h-75q-20 0 -21 21v1747q0 12 -12 12h-641q-12 0 -13 -12v-1747q0 -20 -20 -21h-76q-20 0 -20 21v1749q0 12 -13 12h-120q-20 0 -21 21v61q0 20 21 21h1165q20 -1 20 -21z" />
    <glyph glyph-name="summation" unicode="&#x2211;" horiz-adv-x="1087" 
d="M1006 1495v-242q0 -20 -21 -20h-65q-20 0 -21 20v140q0 12 -12 12h-627l389 -723q6 -14 0 -29l-401 -911h659q12 0 13 12v140q0 20 20 20h66q20 0 20 -20v-242q0 -20 -20 -21h-867q-20 0 -20 21v61q0 10 4 19l405 927l-395 744q-6 12 -6 22v70q0 20 20 21h838
q21 -1 21 -21z" />
    <glyph glyph-name="minus" unicode="&#x2212;" 
d="M954 596v-61q0 -20 -20 -21h-778q-20 0 -21 21v61q0 20 21 20h778q20 0 20 -20z" />
    <glyph glyph-name="uni2215" unicode="&#x2215;" horiz-adv-x="309" 
d="M-229 -20h-56q-22 0 -12 20l807 1393q10 20 29 20h55q22 0 12 -20l-807 -1393q-10 -20 -28 -20z" />
    <glyph glyph-name="uni2219" unicode="&#x2219;" horiz-adv-x="448" 
d="M295 612v-137q0 -20 -21 -20h-100q-20 0 -20 20v137q0 20 20 21h100q21 -1 21 -21z" />
    <glyph glyph-name="radical" unicode="&#x221a;" horiz-adv-x="1261" 
d="M623 -369q-18 0 -25 21l-301 612q-6 12 -18 6l-148 -69q-4 -2 -13 -2t-14 10l-24 53q-2 4 -2 13t10 14l236 117q8 4 15 4t13 -13l287 -596h6l473 1694q6 20 25 21h61q22 0 17 -21l-514 -1843q-6 -20 -25 -21h-59z" />
    <glyph glyph-name="infinity" unicode="&#x221e;" horiz-adv-x="1574" 
d="M1175 274q88 0 149.5 70t61.5 166t-59 161.5t-148 65.5t-160 -53t-173 -180q109 -131 175 -180.5t154 -49.5zM188 508q0 -100 63 -167t149 -67t156.5 53.5t170.5 178.5q-102 127 -173 179t-159 52t-147.5 -64.5t-59.5 -164.5zM1479 508q0 -143 -87 -234.5t-225 -91.5
q-98 0 -187 59.5t-194 188.5q-104 -129 -192 -188.5t-188 -59.5q-135 0 -222.5 90t-87.5 233.5t86 232.5t226 89q96 0 183 -59t195 -188q109 131 197 189t182 58q140 0 227 -88t87 -231z" />
    <glyph glyph-name="integral" unicode="&#x222b;" horiz-adv-x="782" 
d="M674 1427q0 -25 -26 -19q-14 3 -46 3q-80 0 -118 -54t-38 -177v-1182q0 -193 -60 -278t-193 -89q-47 0 -65 4t-19 21v63q0 25 20 21q18 -2 51 -2q80 0 118 54t38 177v1182q0 193 61.5 277.5t194.5 89.5l61 -5q20 -4 21 -20v-66z" />
    <glyph glyph-name="approxequal" unicode="&#x2248;" 
d="M729 346q84 0 158 117q9 18 31 4l38 -25q18 -10 7 -28q-39 -76 -103 -120t-130 -44t-111.5 20.5t-117.5 72.5t-130 52q-57 0 -95 -26.5t-75 -89.5q-10 -16 -29 -5l-41 27q-13 10 -6 29q39 76 104 119t131 43t110 -20.5t94 -56.5t85 -52.5t80 -16.5zM729 735q83 0 158 117
q9 18 31 4l38 -25q18 -10 7 -28q-39 -76 -103 -120t-130 -44t-111.5 20.5t-117.5 72.5t-130 52q-57 0 -95 -26.5t-75 -89.5q-10 -16 -29 -4l-41 26q-14 10 -6 29q39 76 104 119t131 43t110 -20.5t94 -56.5t85 -52.5t80 -16.5z" />
    <glyph glyph-name="notequal" unicode="&#x2260;" 
d="M934 815q20 0 20 -20v-62q0 -20 -20 -20h-256l-166 -295h422q20 0 20 -21v-61q0 -20 -20 -21h-479l-117 -209q-12 -20 -31 -20h-59q-8 0 -11.5 7t1.5 16l114 206h-196q-20 0 -21 21v61q0 20 21 21h254l165 295h-419q-20 0 -21 20v62q0 20 21 20h477l119 209q12 20 28 20
h62q8 0 11 -7t-1 -15l-117 -207h199z" />
    <glyph glyph-name="lessequal" unicode="&#x2264;" 
d="M954 82v-62q0 -20 -20 -20h-778q-20 0 -21 20v62q0 20 21 20h778q20 0 20 -20zM954 989v-69q0 -18 -20 -27l-647 -258v-4l647 -256q20 -8 20 -27v-72q0 -19 -20 -14l-778 318q-21 7 -21 26v53q0 21 21 27l778 318l6 2q14 0 14 -17z" />
    <glyph glyph-name="greaterequal" unicode="&#x2265;" 
d="M954 82v-62q0 -20 -20 -20h-778q-20 0 -21 20v62q0 20 21 20h778q20 0 20 -20zM954 659v-53q0 -19 -20 -26l-778 -318l-6 -2q-14 0 -15 16v72q0 18 21 27l647 256v4l-647 258q-20 8 -21 27v69q0 20 21 15l778 -318q20 -7 20 -27z" />
    <glyph glyph-name="lozenge" unicode="&#x25ca;" horiz-adv-x="1134" 
d="M256 674l315 -641h4l310 641l-314 641h-4zM602 -106h-65q-14 0 -25 20l-367 745q-6 14 0 29l367 746q10 20 25 20h65q15 0 25 -20l366 -746q6 -14 0 -29l-366 -745q-10 -20 -25 -20z" />
    <glyph glyph-name="uniF8FF" unicode="&#xf8ff;" horiz-adv-x="962" 
d="M514 332v-80q0 -20 -20 -21h-64q-20 0 -20 21v80q0 20 20 20h64q20 0 20 -20zM700 932q0 -57 -17 -99t-60 -98l-76 -98q-27 -31 -34 -53.5t-7 -59.5v-45q0 -20 -21 -20h-45q-20 0 -20 20v49q0 82 45 138l76 96q45 55 60 89.5t15 88.5t-40.5 92.5t-113.5 38.5t-120 -33
q-10 -8 -10 -20v-92q0 -20 -21 -21h-41q-20 0 -20 21v131q0 20 18 33q86 61 196 61t173 -60.5t63 -158.5zM80 1305v-1217q0 -12 12 -12h778q12 0 13 12v1217q0 12 -13 12h-778q-12 0 -12 -12zM963 1372v-1352q0 -20 -21 -20h-922q-20 0 -20 20v1352q0 20 20 21h922
q21 -1 21 -21z" />
    <glyph glyph-name="Z.alt01" horiz-adv-x="1105" 
d="M1010 1372v-72q0 -10 -9 -24l-346 -518h217q20 0 21 -21v-61q0 -20 -21 -21h-284l-361 -542v-2h660q12 0 12 12v137q0 20 21 21h69q20 0 21 -21v-240q0 -20 -21 -20h-876q-20 0 -21 20v72q0 14 10 27l355 536h-207q-20 0 -21 21v61q0 20 21 21h274l348 522v2h-628
q-12 0 -13 -12v-133q0 -20 -20 -21h-70q-20 0 -20 21v235q0 20 20 21h848q21 -1 21 -21z" />
    <glyph glyph-name="Zacute.alt01" horiz-adv-x="1105" 
d="M1010 1372v-72q0 -10 -9 -24l-346 -518h217q20 0 21 -21v-61q0 -20 -21 -21h-284l-361 -542v-2h660q12 0 12 12v137q0 20 21 21h69q20 0 21 -21v-240q0 -20 -21 -20h-876q-20 0 -21 20v72q0 14 10 27l355 536h-207q-20 0 -21 21v61q0 20 21 21h274l348 522v2h-628
q-12 0 -13 -12v-133q0 -20 -20 -21h-70q-20 0 -20 21v235q0 20 20 21h848q21 -1 21 -21zM541 1565h-54q-10 0 -13 6t5 14l168 213q14 20 37 21h82q22 -2 8 -21l-196 -215q-15 -18 -37 -18z" />
    <glyph glyph-name="Zcaron.alt01" horiz-adv-x="1105" 
d="M1010 1372v-72q0 -10 -9 -24l-346 -518h217q20 0 21 -21v-61q0 -20 -21 -21h-284l-361 -542v-2h660q12 0 12 12v137q0 20 21 21h69q20 0 21 -21v-240q0 -20 -21 -20h-876q-20 0 -21 20v72q0 14 10 27l355 536h-207q-20 0 -21 21v61q0 20 21 21h274l348 522v2h-628
q-12 0 -13 -12v-133q0 -20 -20 -21h-70q-20 0 -20 21v235q0 20 20 21h848q21 -1 21 -21zM582 1544h-47q-20 0 -33 19l-185 249q-6 8 -3 14t12 7h51q17 0 35 -21l143 -174h4l146 174q18 21 34 21h52q22 0 8 -21l-187 -249q-15 -19 -30 -19z" />
    <glyph glyph-name="Zdotaccent.alt01" horiz-adv-x="1105" 
d="M1010 1372v-72q0 -10 -9 -24l-346 -518h217q20 0 21 -21v-61q0 -20 -21 -21h-284l-361 -542v-2h660q12 0 12 12v137q0 20 21 21h69q20 0 21 -21v-240q0 -20 -21 -20h-876q-20 0 -21 20v72q0 14 10 27l355 536h-207q-20 0 -21 21v61q0 20 21 21h274l348 522v2h-628
q-12 0 -13 -12v-133q0 -20 -20 -21h-70q-20 0 -20 21v235q0 20 20 21h848q21 -1 21 -21zM623 1745v-115q0 -20 -21 -20h-90q-20 0 -20 20v115q0 20 20 20h90q21 0 21 -20z" />
    <glyph glyph-name="a.alt01" horiz-adv-x="1128" 
d="M229 488q0 -150 28 -232q58 -170 251 -170t248 172q26 78 26 230t-26 234q-26 81 -91 125t-159 44t-157.5 -44t-91.5 -126t-28 -233zM782 836v120q0 20 21 21h217q20 0 20 -21v-61q0 -20 -20 -21h-115q-12 0 -12 -12v-747q0 -12 12 -13h115q20 0 20 -20v-62
q0 -20 -20 -20h-217q-20 0 -21 20v119h-2q-82 -160 -295 -159q-260 0 -333 233q-35 104 -35 275t35 276q74 233 333 233q215 1 295 -161h2z" />
    <glyph glyph-name="aacute.alt01" horiz-adv-x="1128" 
d="M506 891q-191 0 -249 -170q-28 -82 -28 -233q0 -150 28 -232q58 -170 249 -170q94 0 159 44t91 125t26 233t-26 234q-26 81 -91 125t-159 44zM782 836v120q0 20 21 21h217q20 0 20 -21v-61q0 -20 -20 -21h-115q-12 0 -12 -12v-747q0 -12 12 -13h115q20 0 20 -20v-62
q0 -20 -20 -20h-217q-20 0 -21 20v119h-2q-82 -160 -295 -159q-260 0 -333 233q-35 104 -35 275t35 276q74 233 333 233q215 1 295 -161h2zM502 1143h-51q-23 0 -13 20l158 250q12 20 35 21h78q24 -2 10 -21l-180 -250q-18 -20 -37 -20z" />
    <glyph glyph-name="abreve.alt01" horiz-adv-x="1128" 
d="M506 891q-191 0 -249 -170q-28 -82 -28 -233q0 -150 28 -232q58 -170 249 -170q94 0 159 44t91 125t26 233t-26 234q-26 81 -91 125t-159 44zM782 836v120q0 20 21 21h217q20 0 20 -21v-61q0 -20 -20 -21h-115q-12 0 -12 -12v-747q0 -12 12 -13h115q20 0 20 -20v-62
q0 -20 -20 -20h-217q-20 0 -21 20v119h-2q-82 -160 -295 -159q-260 0 -333 233q-35 104 -35 275t35 276q74 233 333 233q215 1 295 -161h2zM270 1384q0 16 19 17h39q18 0 24 -21q33 -123 172 -123t176 123q6 20 23 21h39q23 0 18 -21q-14 -96 -83 -154t-172 -58t-173 58
q-70 60 -82 154v4z" />
    <glyph glyph-name="acircumflex.alt01" horiz-adv-x="1128" 
d="M506 891q-191 0 -249 -170q-28 -82 -28 -233q0 -150 28 -232q58 -170 249 -170q94 0 159 44t91 125t26 233t-26 234q-26 81 -91 125t-159 44zM782 836v120q0 20 21 21h217q20 0 20 -21v-61q0 -20 -20 -21h-115q-12 0 -12 -12v-747q0 -12 12 -13h115q20 0 20 -20v-62
q0 -20 -20 -20h-217q-20 0 -21 20v119h-2q-82 -160 -295 -159q-260 0 -333 233q-35 104 -35 275t35 276q74 233 333 233q215 1 295 -161h2zM713 1143q-18 0 -35 20l-146 174h-4l-143 -174q-17 -20 -35 -20h-51q-8 0 -11 6t3 14l184 252q12 18 33 19h47q15 0 31 -19l186 -252
q15 -20 -8 -20h-51z" />
    <glyph glyph-name="adieresis.alt01" horiz-adv-x="1128" 
d="M506 891q-191 0 -249 -170q-28 -82 -28 -233q0 -150 28 -232q58 -170 249 -170q94 0 159 44t91 125t26 233t-26 234q-26 81 -91 125t-159 44zM782 836v120q0 20 21 21h217q20 0 20 -21v-61q0 -20 -20 -21h-115q-12 0 -12 -12v-747q0 -12 12 -13h115q20 0 20 -20v-62
q0 -20 -20 -20h-217q-20 0 -21 20v119h-2q-82 -160 -295 -159q-260 0 -333 233q-35 104 -35 275t35 276q74 233 333 233q215 1 295 -161h2zM795 1372v-115q0 -20 -21 -20h-82q-20 0 -20 20v115q0 20 20 21h82q21 -1 21 -21zM387 1372v-115q0 -20 -20 -20h-82q-20 0 -21 20
v115q0 20 21 21h82q20 -1 20 -21z" />
    <glyph glyph-name="agrave.alt01" horiz-adv-x="1128" 
d="M506 891q-191 0 -249 -170q-28 -82 -28 -233q0 -150 28 -232q58 -170 249 -170q94 0 159 44t91 125t26 233t-26 234q-26 81 -91 125t-159 44zM782 836v120q0 20 21 21h217q20 0 20 -21v-61q0 -20 -20 -21h-115q-12 0 -12 -12v-747q0 -12 12 -13h115q20 0 20 -20v-62
q0 -20 -20 -20h-217q-20 0 -21 20v119h-2q-82 -160 -295 -159q-260 0 -333 233q-35 104 -35 275t35 276q74 233 333 233q215 1 295 -161h2zM586 1143h-51q-23 0 -37 20l-181 250q-4 8 -4 10q0 10 15 11h78q20 -1 32 -21l158 -250l4 -10q0 -10 -14 -10z" />
    <glyph glyph-name="amacron.alt01" horiz-adv-x="1128" 
d="M506 891q-191 0 -249 -170q-28 -82 -28 -233q0 -150 28 -232q58 -170 249 -170q94 0 159 44t91 125t26 233t-26 234q-26 81 -91 125t-159 44zM782 836v120q0 20 21 21h217q20 0 20 -21v-61q0 -20 -20 -21h-115q-12 0 -12 -12v-747q0 -12 12 -13h115q20 0 20 -20v-62
q0 -20 -20 -20h-217q-20 0 -21 20v119h-2q-82 -160 -295 -159q-260 0 -333 233q-35 104 -35 275t35 276q74 233 333 233q215 1 295 -161h2zM788 1339v-53q0 -20 -20 -20h-492q-20 0 -20 20v53q0 20 20 21h492q20 -1 20 -21z" />
    <glyph glyph-name="aogonek.alt01" horiz-adv-x="1128" 
d="M229 488q0 -150 28 -232q58 -170 251 -170t248 172q26 78 26 230t-26 234q-26 81 -91 125t-159 44t-157.5 -44t-91.5 -126t-28 -233zM725 -199q0 -57 59 -57q26 0 46 11t26 11t12 -10l23 -43l2 -8q0 -8 -15 -21t-47.5 -24.5t-80.5 -11.5t-86.5 36t-38.5 96t34.5 111.5
t122.5 116.5v131h-2q-82 -160 -295 -159q-260 0 -333 233q-35 104 -35 275t35 276q74 233 333 233q215 1 295 -161h2v120q0 20 21 21h217q20 0 20 -21v-61q0 -20 -20 -21h-115q-12 0 -12 -12v-747q0 -12 12 -13h115q20 0 20 -20v-62q0 -20 -20 -20h-125q-100 -72 -135 -117
t-35 -82z" />
    <glyph glyph-name="aring.alt01" horiz-adv-x="1128" 
d="M506 891q-191 0 -249 -170q-28 -82 -28 -233q0 -150 28 -232q58 -170 249 -170q94 0 159 44t91 125t26 233t-26 234q-26 81 -91 125t-159 44zM782 836v120q0 20 21 21h217q20 0 20 -21v-61q0 -20 -20 -21h-115q-12 0 -12 -12v-747q0 -12 12 -13h115q20 0 20 -20v-62
q0 -20 -20 -20h-217q-20 0 -21 20v119h-2q-82 -160 -295 -159q-260 0 -333 233q-35 104 -35 275t35 276q74 233 333 233q215 1 295 -161h2zM420 1288q0 -49 30 -82q30 -32 78 -32t79 32q30 32 30 82q0 49 -30 82q-31 33 -79 33t-78 -33t-30 -82zM528 1108q-78 0 -129 51
t-51 129t51 129t129 51t129 -51t51 -129t-50 -129q-52 -51 -130 -51z" />
    <glyph glyph-name="atilde.alt01" horiz-adv-x="1128" 
d="M506 891q-191 0 -249 -170q-28 -82 -28 -233q0 -150 28 -232q58 -170 249 -170q94 0 159 44t91 125t26 233t-26 234q-26 81 -91 125t-159 44zM782 836v120q0 20 21 21h217q20 0 20 -21v-61q0 -20 -20 -21h-115q-12 0 -12 -12v-747q0 -12 12 -13h115q20 0 20 -20v-62
q0 -20 -20 -20h-217q-20 0 -21 20v119h-2q-82 -160 -295 -159q-260 0 -333 233q-35 104 -35 275t35 276q74 233 333 233q215 1 295 -161h2zM740 1357q40 42 40 19v-61q0 -16 -14 -33q-61 -61 -120 -61t-124 40q-65 39 -102 39t-63 -16t-60 -51q-18 -14 -18 6v61q0 14 16 31
q55 61 120 61t126 -38q61 -39 110 -39t89 42z" />
    <glyph glyph-name="germandbls.alt01" horiz-adv-x="1146" 
d="M567 1372v-63q0 -20 -20 -21h-45q-78 0 -114 -14t-49 -50t-13 -114v-121q0 -12 12 -12h637q20 0 20 -21v-63q0 -16 -10 -29l-258 -338v-4q139 -45 216 -152.5t77 -257.5t-63.5 -257t-178 -166.5t-262.5 -59.5q-20 0 -20 21v65q0 20 20 21q115 0 204 46t138 127t49 203
t-74.5 211t-209.5 115q-20 4 -21 21v63q0 14 12 29l244 315v4h-520q-12 0 -12 -12v-743q0 -12 12 -13h115q20 0 20 -20v-62q0 -20 -20 -20h-365q-20 0 -20 20v62q0 20 20 20h115q12 0 12 13v979q0 117 26.5 181t85 91t160.5 27h60q20 -1 20 -21z" />
    <glyph glyph-name="f_i" horiz-adv-x="1214" 
d="M582 1372v-61q0 -20 -21 -21h-45q-76 0 -112 -14t-49 -51t-13 -115v-121q0 -12 12 -12h207q20 0 21 -21v-61q0 -20 -21 -21h-207q-12 0 -12 -12v-747q0 -12 12 -13h125q20 0 21 -20v-62q0 -20 -21 -20h-370q-20 0 -21 20v62q0 20 21 20h110q12 0 12 13v747q0 12 -12 12
h-104q-20 0 -21 21v61q0 20 21 21h104q12 0 12 12v105q0 118 27 182t85 90t161 27h57q21 -1 21 -21zM985 956v-841q0 -12 12 -13h115q20 0 21 -20v-62q0 -20 -21 -20h-364q-20 0 -21 20v62q0 20 21 20h114q12 0 12 13v747q0 12 -12 12h-114q-20 0 -21 21v61q0 20 21 21h217
q20 -1 20 -21zM995 1372v-115q0 -20 -20 -20h-90q-20 0 -21 20v115q0 20 21 21h90q20 -1 20 -21z" />
    <glyph glyph-name="f_l" horiz-adv-x="1202" 
d="M582 1372v-61q0 -20 -21 -21h-45q-76 0 -112 -14t-49 -51t-13 -115v-121q0 -12 12 -12h207q20 0 21 -21v-61q0 -20 -21 -21h-207q-12 0 -12 -12v-747q0 -12 12 -13h125q20 0 21 -20v-62q0 -20 -21 -20h-370q-20 0 -21 20v62q0 20 21 20h110q12 0 12 13v747q0 12 -12 12
h-104q-20 0 -21 21v61q0 20 21 21h104q12 0 12 12v105q0 118 27 182t85 90t161 27h57q21 -1 21 -21zM954 1372v-1145q0 -71 24 -99t81 -28h35q20 0 20 -20v-64q0 -20 -20 -20h-47q-109 0 -156 54t-47 175v1053q0 12 -13 12h-114q-20 0 -21 21v61q0 20 21 21h217
q20 -1 20 -21z" />
    <glyph glyph-name="uni1E9E.sc" horiz-adv-x="1161" 
d="M971 961v-48q0 -18 -13 -30l-190 -199q305 -16 305 -334q0 -172 -86 -265t-256 -93q-109 0 -168 24q-16 6 -10 27l20 63q6 18 49 4t105 -14q119 0 176.5 62.5t57.5 191.5t-67 184.5t-208 55.5h-39q-20 0 -20 22v47q0 16 10 31l207 228q-94 55 -230 55t-217.5 -71
t-81.5 -197v-590q0 -12 13 -13h108q20 0 21 -20v-62q0 -20 -21 -20h-358q-20 0 -21 20v62q0 20 21 20h115q12 0 12 13v590q0 172 111.5 273t303.5 101t332 -90q19 -11 19 -28z" />
    <glyph glyph-name="a.sc" horiz-adv-x="1091" 
d="M365 432h364l-178 492h-4zM1065 102q20 0 20 -20v-62q0 -20 -20 -20h-356q-20 0 -21 20v62q0 20 21 20h127q15 0 10 15l-78 213h-442l-78 -213q-6 -14 8 -15h129q20 0 21 -20v-62q0 -20 -21 -20h-358q-20 0 -21 20v62q0 20 21 20h88q12 0 18 15l346 921q6 20 25 21h90
q18 -1 24 -21l343 -921q6 -14 18 -15h86z" />
    <glyph glyph-name="aacute.sc" horiz-adv-x="1091" 
d="M365 432h364l-178 492h-4zM1065 102q20 0 20 -20v-62q0 -20 -20 -20h-356q-20 0 -21 20v62q0 20 21 20h127q14 0 10 15l-78 213h-442l-78 -213q-6 -14 8 -15h129q20 0 21 -20v-62q0 -20 -21 -20h-358q-20 0 -21 20v62q0 20 21 20h88q12 0 18 15l346 921q6 20 25 21h90
q18 -1 24 -21l343 -921q6 -14 18 -15h86zM565 1225h-51q-22 0 -12 20l157 250q12 20 35 21h78q24 -2 10 -21l-180 -250q-18 -20 -37 -20z" />
    <glyph glyph-name="abreve.sc" horiz-adv-x="1091" 
d="M365 432h364l-178 492h-4zM1065 102q20 0 20 -20v-62q0 -20 -20 -20h-356q-20 0 -21 20v62q0 20 21 20h127q14 0 10 15l-78 213h-442l-78 -213q-6 -14 8 -15h129q20 0 21 -20v-62q0 -20 -21 -20h-358q-20 0 -21 20v62q0 20 21 20h88q12 0 18 15l346 921q6 20 25 21h90
q18 -1 24 -21l343 -921q6 -14 18 -15h86zM291 1466q0 16 18 17h39q18 0 25 -21q33 -123 172 -123t176 123q6 20 22 21h39q24 0 19 -21q-14 -96 -83 -154t-172 -58t-173 58q-70 60 -82 154v4z" />
    <glyph glyph-name="acircumflex.sc" horiz-adv-x="1091" 
d="M365 432h364l-178 492h-4zM1065 102q20 0 20 -20v-62q0 -20 -20 -20h-356q-20 0 -21 20v62q0 20 21 20h127q14 0 10 15l-78 213h-442l-78 -213q-6 -14 8 -15h129q20 0 21 -20v-62q0 -20 -21 -20h-358q-20 0 -21 20v62q0 20 21 20h88q12 0 18 15l346 921q6 20 25 21h90
q18 -1 24 -21l343 -921q6 -14 18 -15h86zM778 1225h-51q-17 0 -35 20l-145 174h-4l-144 -174q-17 -20 -34 -20h-52q-8 0 -11 6t3 14l184 252q12 18 33 19h47q17 -2 31 -19l186 -252q15 -20 -8 -20z" />
    <glyph glyph-name="adieresis.sc" horiz-adv-x="1091" 
d="M365 432h364l-178 492h-4zM1065 102q20 0 20 -20v-62q0 -20 -20 -20h-356q-20 0 -21 20v62q0 20 21 20h127q14 0 10 15l-78 213h-442l-78 -213q-6 -14 8 -15h129q20 0 21 -20v-62q0 -20 -21 -20h-358q-20 0 -21 20v62q0 20 21 20h88q12 0 18 15l346 921q6 20 25 21h90
q18 -1 24 -21l343 -921q6 -14 18 -15h86zM811 1454v-115q0 -20 -20 -20h-82q-20 0 -21 20v115q0 20 21 21h82q20 -1 20 -21zM403 1454v-115q0 -20 -20 -20h-82q-20 0 -20 20v115q0 20 20 21h82q20 -1 20 -21z" />
    <glyph glyph-name="agrave.sc" horiz-adv-x="1091" 
d="M365 432h364l-178 492h-4zM1065 102q20 0 20 -20v-62q0 -20 -20 -20h-356q-20 0 -21 20v62q0 20 21 20h127q14 0 10 15l-78 213h-442l-78 -213q-6 -14 8 -15h129q20 0 21 -20v-62q0 -20 -21 -20h-358q-20 0 -21 20v62q0 20 21 20h88q12 0 18 15l346 921q6 20 25 21h90
q18 -1 24 -21l343 -921q6 -14 18 -15h86zM584 1225h-52q-18 0 -36 20l-181 250q-4 8 -4 10q0 10 15 11h77q21 -1 33 -21l158 -250l4 -10q0 -10 -14 -10z" />
    <glyph glyph-name="amacron.sc" horiz-adv-x="1091" 
d="M365 432h364l-178 492h-4zM1065 102q20 0 20 -20v-62q0 -20 -20 -20h-356q-20 0 -21 20v62q0 20 21 20h127q14 0 10 15l-78 213h-442l-78 -213q-6 -14 8 -15h129q20 0 21 -20v-62q0 -20 -21 -20h-358q-20 0 -21 20v62q0 20 21 20h88q12 0 18 15l346 921q6 20 25 21h90
q18 -1 24 -21l343 -921q6 -14 18 -15h86zM811 1421v-53q0 -20 -20 -20h-492q-20 0 -20 20v53q0 20 20 21h492q20 -1 20 -21z" />
    <glyph glyph-name="aogonek.sc" horiz-adv-x="1091" 
d="M365 432h364l-178 492h-4zM616 -199q0 -57 60 -57q27 0 46 11t25 11t13 -10l22 -43l2 -8q0 -8 -15 -21t-47 -24.5t-80 -11.5t-87 37t-39 97t38 114.5t134 119.5v66q0 20 21 20h127q15 0 10 15l-78 213h-442l-78 -213q-6 -14 8 -15h129q20 0 21 -20v-62q0 -20 -21 -20
h-358q-20 0 -21 20v62q0 20 21 20h88q12 0 18 15l346 921q6 20 25 21h90q18 -1 24 -21l343 -921q6 -14 18 -15h86q20 0 20 -20v-62q0 -20 -20 -20h-279q-100 -72 -135 -117t-35 -82z" />
    <glyph glyph-name="aring.sc" horiz-adv-x="1091" 
d="M365 432h364l-178 492h-4zM1065 102q20 0 20 -20v-62q0 -20 -20 -20h-356q-20 0 -21 20v62q0 20 21 20h127q14 0 10 15l-78 213h-442l-78 -213q-6 -14 8 -15h129q20 0 21 -20v-62q0 -20 -21 -20h-358q-20 0 -21 20v62q0 20 21 20h88q12 0 18 15l346 921q6 20 25 21h90
q18 -1 24 -21l343 -921q6 -14 18 -15h86zM434 1370q0 -49 32 -81t80 -32t79 32t30 81q0 49 -30 81q-31 32 -79 32t-80 -32t-32 -81zM725 1370q0 -78 -51 -130t-129 -52t-129 52t-51 130t51 130t129 52t129 -52t51 -130z" />
    <glyph glyph-name="atilde.sc" horiz-adv-x="1091" 
d="M365 432h364l-178 492h-4zM1065 102q20 0 20 -20v-62q0 -20 -20 -20h-356q-20 0 -21 20v62q0 20 21 20h127q14 0 10 15l-78 213h-442l-78 -213q-6 -14 8 -15h129q20 0 21 -20v-62q0 -20 -21 -20h-358q-20 0 -21 20v62q0 20 21 20h88q12 0 18 15l346 921q6 20 25 21h90
q18 -1 24 -21l343 -921q6 -14 18 -15h86zM756 1437q41 42 41 19v-61q0 -16 -15 -31q-56 -61 -116 -61t-134 40q-59 37 -96 37q-38 0 -64 -16t-59 -51q-18 -14 -18 6v61q0 14 16 33q105 112 245 22q62 -40 110 -40q49 0 90 42z" />
    <glyph glyph-name="ae.sc" horiz-adv-x="1556" 
d="M731 393q12 0 12 13v548h-6l-344 -561h338zM1432 1038v-215q0 -20 -21 -20h-63q-20 0 -21 20v119q0 12 -12 12h-449q-12 0 -12 -12v-342q0 -12 12 -12h328q12 0 12 12v90q0 20 21 21h63q20 0 21 -21v-307q0 -20 -21 -21h-63q-20 0 -21 21v90q0 12 -12 12h-328
q-12 0 -12 -12v-356q0 -12 12 -13h451q12 0 12 13v125q0 20 21 20h63q20 0 21 -20v-222q0 -20 -21 -20h-649q-20 0 -21 20v256q0 12 -12 13h-403l-105 -172q-8 -14 6 -15h119q20 0 21 -20v-62q0 -20 -21 -20h-325q-20 0 -21 20v62q0 20 21 20h63q12 0 18 11l560 925
q14 20 32 21h715q21 -1 21 -21z" />
    <glyph glyph-name="b.sc" horiz-adv-x="1062" 
d="M346 475v-358q0 -12 12 -13h263q117 0 178 50.5t61 140.5t-61.5 141t-177.5 51h-263q-12 0 -12 -12zM346 942v-340q0 -12 12 -12h256q109 0 167.5 49t58.5 134t-58.5 133t-167.5 48h-256q-12 0 -12 -12zM952 782q0 -90 -45 -150.5t-127 -84.5v-4q72 -14 131.5 -80
t59.5 -170q0 -139 -93.5 -216t-267.5 -77h-501q-20 0 -21 20v62q0 20 21 20h114q12 0 13 13v829q0 12 -13 12h-114q-20 0 -21 21v61q0 20 21 21h509q160 0 247 -75t87 -202z" />
    <glyph glyph-name="c.sc" horiz-adv-x="1044" 
d="M895 961v-197q0 -20 -21 -21h-65q-20 0 -21 21v141q0 10 -8 17q-96 53 -225 53q-284 0 -305 -173t-21 -307t25 -219q66 -193 303 -192q135 0 223 47q8 6 8 16v146q0 20 21 20h65q20 0 21 -20v-201q0 -23 -14 -33q-129 -79 -311 -79t-281 65t-136 179t-37 299t34 288
q86 268 407 268q183 0 322 -84q16 -10 16 -34z" />
    </font>
</defs>
</svg>
